G04 #@! TF.GenerationSoftware,KiCad,Pcbnew,(5.0.0-rc2-196-g73a8d2a9d)*
G04 #@! TF.CreationDate,2018-06-23T20:12:08-07:00*
G04 #@! TF.ProjectId,SMD_Lebowski,534D445F4C65626F77736B692E6B6963,rev?*
G04 #@! TF.SameCoordinates,Original*
G04 #@! TF.FileFunction,Copper,L2,Bot,Signal*
G04 #@! TF.FilePolarity,Positive*
%FSLAX46Y46*%
G04 Gerber Fmt 4.6, Leading zero omitted, Abs format (unit mm)*
G04 Created by KiCad (PCBNEW (5.0.0-rc2-196-g73a8d2a9d)) date Sat Jun 23 20:12:08 2018*
%MOMM*%
%LPD*%
G01*
G04 APERTURE LIST*
G04 #@! TA.AperFunction,ComponentPad*
%ADD10R,1.700000X1.700000*%
G04 #@! TD*
G04 #@! TA.AperFunction,ComponentPad*
%ADD11O,1.700000X1.700000*%
G04 #@! TD*
G04 #@! TA.AperFunction,ViaPad*
%ADD12C,0.600000*%
G04 #@! TD*
G04 #@! TA.AperFunction,ViaPad*
%ADD13C,3.000000*%
G04 #@! TD*
G04 #@! TA.AperFunction,Conductor*
%ADD14C,0.500000*%
G04 #@! TD*
G04 #@! TA.AperFunction,Conductor*
%ADD15C,0.250000*%
G04 #@! TD*
G04 #@! TA.AperFunction,Conductor*
%ADD16C,0.050000*%
G04 #@! TD*
G04 #@! TA.AperFunction,Conductor*
%ADD17C,0.254000*%
G04 #@! TD*
G04 APERTURE END LIST*
D10*
G04 #@! TO.P,P1,1*
G04 #@! TO.N,NRES*
X133096000Y-99060000D03*
D11*
G04 #@! TO.P,P1,2*
G04 #@! TO.N,+5V*
X133096000Y-101600000D03*
G04 #@! TO.P,P1,3*
G04 #@! TO.N,GND*
X133096000Y-104140000D03*
G04 #@! TO.P,P1,4*
G04 #@! TO.N,HALL2*
X133096000Y-106680000D03*
G04 #@! TO.P,P1,5*
G04 #@! TO.N,HALL1*
X133096000Y-109220000D03*
G04 #@! TD*
D10*
G04 #@! TO.P,P2,1*
G04 #@! TO.N,+5V*
X138684000Y-95504000D03*
D11*
G04 #@! TO.P,P2,2*
G04 #@! TO.N,HALL1*
X138684000Y-98044000D03*
G04 #@! TO.P,P2,3*
G04 #@! TO.N,HALL2*
X138684000Y-100584000D03*
G04 #@! TO.P,P2,4*
G04 #@! TO.N,HALL3*
X138684000Y-103124000D03*
G04 #@! TO.P,P2,5*
G04 #@! TO.N,GND*
X138684000Y-105664000D03*
G04 #@! TD*
D10*
G04 #@! TO.P,P3,1*
G04 #@! TO.N,+5V*
X170688000Y-109220000D03*
D11*
G04 #@! TO.P,P3,2*
G04 #@! TO.N,TH2*
X170688000Y-111760000D03*
G04 #@! TO.P,P3,3*
G04 #@! TO.N,TH1*
X170688000Y-114300000D03*
G04 #@! TO.P,P3,4*
G04 #@! TO.N,REV*
X170688000Y-116840000D03*
G04 #@! TO.P,P3,5*
G04 #@! TO.N,GND*
X170688000Y-119380000D03*
G04 #@! TD*
D10*
G04 #@! TO.P,P4,1*
G04 #@! TO.N,+15V*
X136930000Y-132790000D03*
D11*
G04 #@! TO.P,P4,2*
G04 #@! TO.N,+5V*
X136930000Y-135330000D03*
G04 #@! TO.P,P4,3*
G04 #@! TO.N,GLC*
X139470000Y-132790000D03*
G04 #@! TO.P,P4,4*
G04 #@! TO.N,GUC*
X139470000Y-135330000D03*
G04 #@! TO.P,P4,5*
G04 #@! TO.N,GLB*
X142010000Y-132790000D03*
G04 #@! TO.P,P4,6*
G04 #@! TO.N,GUB*
X142010000Y-135330000D03*
G04 #@! TO.P,P4,7*
G04 #@! TO.N,GLA*
X144550000Y-132790000D03*
G04 #@! TO.P,P4,8*
G04 #@! TO.N,GUA*
X144550000Y-135330000D03*
G04 #@! TO.P,P4,9*
G04 #@! TO.N,GND*
X147090000Y-132790000D03*
G04 #@! TO.P,P4,10*
G04 #@! TO.N,IA*
X147090000Y-135330000D03*
G04 #@! TO.P,P4,11*
G04 #@! TO.N,IB*
X149630000Y-132790000D03*
G04 #@! TO.P,P4,12*
G04 #@! TO.N,IC*
X149630000Y-135330000D03*
G04 #@! TO.P,P4,13*
G04 #@! TO.N,AFB*
X152170000Y-132790000D03*
G04 #@! TO.P,P4,14*
G04 #@! TO.N,BAT*
X152170000Y-135330000D03*
G04 #@! TO.P,P4,15*
G04 #@! TO.N,CFB*
X154710000Y-132790000D03*
G04 #@! TO.P,P4,16*
G04 #@! TO.N,BFB*
X154710000Y-135330000D03*
G04 #@! TO.P,P4,17*
G04 #@! TO.N,GND*
X157250000Y-132790000D03*
G04 #@! TO.P,P4,18*
G04 #@! TO.N,READY*
X157250000Y-135330000D03*
G04 #@! TO.P,P4,19*
G04 #@! TO.N,+5V*
X159790000Y-132790000D03*
G04 #@! TO.P,P4,20*
G04 #@! TO.N,TEMP*
X159790000Y-135330000D03*
G04 #@! TO.P,P4,21*
G04 #@! TO.N,GND*
X162330000Y-132790000D03*
G04 #@! TO.P,P4,22*
G04 #@! TO.N,Net-(P4-Pad22)*
X162330000Y-135330000D03*
G04 #@! TO.P,P4,23*
G04 #@! TO.N,Net-(P4-Pad23)*
X164870000Y-132790000D03*
G04 #@! TO.P,P4,24*
G04 #@! TO.N,BPOW*
X164870000Y-135330000D03*
G04 #@! TD*
D10*
G04 #@! TO.P,P5,1*
G04 #@! TO.N,RCAN*
X139700000Y-124610000D03*
D11*
G04 #@! TO.P,P5,2*
G04 #@! TO.N,GND*
X139700000Y-127150000D03*
G04 #@! TD*
D10*
G04 #@! TO.P,P7,1*
G04 #@! TO.N,NRES*
X142494000Y-102616000D03*
D11*
G04 #@! TO.P,P7,2*
G04 #@! TO.N,GND*
X145034000Y-102616000D03*
G04 #@! TD*
D10*
G04 #@! TO.P,P8,1*
G04 #@! TO.N,SETUP*
X159766000Y-103632000D03*
D11*
G04 #@! TO.P,P8,2*
G04 #@! TO.N,GND*
X162306000Y-103632000D03*
G04 #@! TD*
D10*
G04 #@! TO.P,P6,1*
G04 #@! TO.N,Net-(P6-Pad1)*
X133350000Y-120650000D03*
D11*
G04 #@! TO.P,P6,2*
G04 #@! TO.N,Net-(P6-Pad2)*
X133350000Y-123190000D03*
G04 #@! TO.P,P6,3*
G04 #@! TO.N,GND*
X133350000Y-125730000D03*
G04 #@! TO.P,P6,4*
G04 #@! TO.N,N/C*
X133350000Y-128270000D03*
G04 #@! TD*
D12*
G04 #@! TO.N,+5V*
X150000000Y-103000000D03*
X144000000Y-100000000D03*
X159500000Y-119000000D03*
X158500000Y-116772500D03*
X169500000Y-124000000D03*
D13*
G04 #@! TO.N,GND*
X165960000Y-92210000D03*
D12*
X150000000Y-90500000D03*
X142000000Y-81500000D03*
X148530331Y-100469669D03*
X143448962Y-95449963D03*
X143500000Y-91000000D03*
X149988497Y-104018928D03*
X164000000Y-117000000D03*
X163500000Y-114500000D03*
X137000000Y-121000000D03*
X140500000Y-115000000D03*
X155340001Y-123595232D03*
X150500000Y-122500000D03*
X160230108Y-124947703D03*
X163000000Y-124000000D03*
X160000000Y-121500000D03*
X155511232Y-131011232D03*
X135500000Y-111500000D03*
X166500000Y-111000000D03*
G04 #@! TO.N,Net-(C2-Pad1)*
X149340000Y-125025000D03*
X151950000Y-119560000D03*
G04 #@! TO.N,Net-(C10-Pad1)*
X141920000Y-123430000D03*
X146350000Y-124800000D03*
X150360000Y-119410000D03*
G04 #@! TO.N,+15V*
X153500000Y-92000000D03*
G04 #@! TO.N,AFB*
X157950000Y-122725000D03*
X155450000Y-121075000D03*
G04 #@! TO.N,BFB*
X160000000Y-120500000D03*
X166447999Y-120973998D03*
G04 #@! TO.N,CFB*
X159450000Y-125125000D03*
X154125000Y-118500000D03*
G04 #@! TO.N,BAT*
X168500000Y-125040002D03*
X157000000Y-120000000D03*
G04 #@! TO.N,NRES*
X148000000Y-116641000D03*
G04 #@! TO.N,HALL2*
X144000000Y-109000000D03*
G04 #@! TO.N,REV*
X147675000Y-111000000D03*
X154475000Y-107450000D03*
G04 #@! TO.N,READY*
X148500000Y-111500000D03*
G04 #@! TO.N,BPOW*
X162500000Y-102000000D03*
G04 #@! TO.N,RCAN*
X142000000Y-120000000D03*
X143500000Y-114500000D03*
G04 #@! TO.N,Net-(P6-Pad2)*
X141000000Y-107500000D03*
G04 #@! TO.N,TCAN*
X140000000Y-119000000D03*
X146500000Y-113500000D03*
G04 #@! TD*
D14*
G04 #@! TO.N,+5V*
X150000000Y-103000000D02*
X147000000Y-100000000D01*
X147000000Y-100000000D02*
X144000000Y-100000000D01*
X143180000Y-100000000D02*
X138684000Y-95504000D01*
X144000000Y-100000000D02*
X143180000Y-100000000D01*
D15*
X169500000Y-124965004D02*
X169500000Y-124000000D01*
X168800001Y-125665003D02*
X169500000Y-124965004D01*
X159790000Y-132790000D02*
X166914997Y-125665003D01*
X166914997Y-125665003D02*
X168800001Y-125665003D01*
X159500000Y-117772500D02*
X158500000Y-116772500D01*
X159500000Y-119000000D02*
X159500000Y-117772500D01*
D14*
G04 #@! TO.N,GND*
X162306000Y-110998000D02*
X162306000Y-103632000D01*
X170688000Y-119380000D02*
X162306000Y-110998000D01*
X139886081Y-105664000D02*
X138684000Y-105664000D01*
X143188081Y-105664000D02*
X139886081Y-105664000D01*
X145034000Y-103818081D02*
X143188081Y-105664000D01*
X138280000Y-125730000D02*
X139700000Y-127150000D01*
X133350000Y-125730000D02*
X138280000Y-125730000D01*
X150000000Y-90500000D02*
X150000000Y-89500000D01*
X150000000Y-89500000D02*
X142000000Y-81500000D01*
X148530331Y-100469669D02*
X143510625Y-95449963D01*
X143510625Y-95449963D02*
X143448962Y-95449963D01*
X150000000Y-90500000D02*
X144000000Y-90500000D01*
X144000000Y-90500000D02*
X143500000Y-91000000D01*
X164250000Y-90500000D02*
X150000000Y-90500000D01*
X165960000Y-92210000D02*
X164250000Y-90500000D01*
X165960000Y-92210000D02*
X154151072Y-104018928D01*
X154151072Y-104018928D02*
X149988497Y-104018928D01*
X166380000Y-119380000D02*
X170688000Y-119380000D01*
X164000000Y-117000000D02*
X166380000Y-119380000D01*
X164000000Y-117000000D02*
X164000000Y-115000000D01*
X164000000Y-115000000D02*
X163500000Y-114500000D01*
X141450000Y-127150000D02*
X147090000Y-132790000D01*
X139700000Y-127150000D02*
X141450000Y-127150000D01*
X133350000Y-125730000D02*
X137000000Y-122080000D01*
X137000000Y-122080000D02*
X137000000Y-121000000D01*
X138475010Y-117024990D02*
X140500000Y-115000000D01*
X137000000Y-121000000D02*
X138475010Y-119524990D01*
X138475010Y-119524990D02*
X138475010Y-117024990D01*
X145034000Y-103818081D02*
X145034000Y-102616000D01*
X145034000Y-109076002D02*
X145034000Y-103818081D01*
X140500000Y-113610002D02*
X145034000Y-109076002D01*
X140500000Y-115000000D02*
X140500000Y-113610002D01*
X147090000Y-132790000D02*
X155340001Y-124539999D01*
X155340001Y-124539999D02*
X155340001Y-123595232D01*
X151595232Y-123595232D02*
X155340001Y-123595232D01*
X150500000Y-122500000D02*
X151595232Y-123595232D01*
X157250000Y-132790000D02*
X160230108Y-129809892D01*
X160230108Y-129809892D02*
X160230108Y-124947703D01*
X163000000Y-124000000D02*
X162500000Y-124000000D01*
X162500000Y-124000000D02*
X160000000Y-121500000D01*
X166068000Y-124000000D02*
X170688000Y-119380000D01*
X163000000Y-124000000D02*
X166068000Y-124000000D01*
X148868768Y-131011232D02*
X147090000Y-132790000D01*
X155511232Y-131011232D02*
X148868768Y-131011232D01*
D16*
G04 #@! TO.N,Net-(C2-Pad1)*
X149340000Y-125025000D02*
X149340000Y-122170000D01*
X149340000Y-122170000D02*
X151950000Y-119560000D01*
G04 #@! TO.N,Net-(C10-Pad1)*
X141920000Y-123430000D02*
X144980000Y-123430000D01*
X144980000Y-123430000D02*
X146350000Y-124800000D01*
X146350000Y-124800000D02*
X146350000Y-123420000D01*
X146350000Y-123420000D02*
X150360000Y-119410000D01*
D14*
G04 #@! TO.N,+15V*
X137645998Y-92000000D02*
X153500000Y-92000000D01*
X131545989Y-98100009D02*
X137645998Y-92000000D01*
X131545989Y-128755989D02*
X131545989Y-98100009D01*
X136930000Y-132790000D02*
X135580000Y-132790000D01*
X135580000Y-132790000D02*
X131545989Y-128755989D01*
D16*
G04 #@! TO.N,AFB*
X157950000Y-122725000D02*
X157100000Y-122725000D01*
X157100000Y-122725000D02*
X155450000Y-121075000D01*
G04 #@! TO.N,BFB*
X160000000Y-120500000D02*
X160473998Y-120973998D01*
X160473998Y-120973998D02*
X166447999Y-120973998D01*
G04 #@! TO.N,CFB*
X159450000Y-123447998D02*
X156177002Y-120175000D01*
X159450000Y-125125000D02*
X159450000Y-123447998D01*
X156177002Y-120175000D02*
X155275000Y-120175000D01*
X155275000Y-120175000D02*
X154125000Y-119025000D01*
X154125000Y-119025000D02*
X154125000Y-118500000D01*
G04 #@! TO.N,BAT*
X168500000Y-125040002D02*
X162040002Y-125040002D01*
X162040002Y-125040002D02*
X157000000Y-120000000D01*
G04 #@! TO.N,NRES*
X143394000Y-102616000D02*
X142494000Y-102616000D01*
X144469001Y-101540999D02*
X143394000Y-102616000D01*
X147149999Y-103140997D02*
X145550001Y-101540999D01*
X145550001Y-101540999D02*
X144469001Y-101540999D01*
X147149999Y-115790999D02*
X147149999Y-103140997D01*
X148000000Y-116641000D02*
X147149999Y-115790999D01*
G04 #@! TO.N,HALL2*
X138684000Y-101092000D02*
X138684000Y-100584000D01*
X133096000Y-106680000D02*
X138684000Y-101092000D01*
X134298081Y-106680000D02*
X133096000Y-106680000D01*
X134357082Y-106739001D02*
X134298081Y-106680000D01*
X141739001Y-106739001D02*
X134357082Y-106739001D01*
X144000000Y-109000000D02*
X141739001Y-106739001D01*
G04 #@! TO.N,HALL1*
X137834001Y-98893999D02*
X138684000Y-98044000D01*
X137608999Y-99119001D02*
X137834001Y-98893999D01*
X137608999Y-101218003D02*
X137608999Y-99119001D01*
X133612001Y-105215001D02*
X137608999Y-101218003D01*
X132969997Y-105215001D02*
X133612001Y-105215001D01*
X132020999Y-106163999D02*
X132969997Y-105215001D01*
X132020999Y-108144999D02*
X132020999Y-106163999D01*
X133096000Y-109220000D02*
X132020999Y-108144999D01*
G04 #@! TO.N,REV*
X147675000Y-111000000D02*
X151225000Y-107450000D01*
X151225000Y-107450000D02*
X154475000Y-107450000D01*
X169838001Y-115990001D02*
X170688000Y-116840000D01*
X169612999Y-115764999D02*
X169838001Y-115990001D01*
X169612999Y-108335997D02*
X169612999Y-115764999D01*
X162752001Y-101474999D02*
X169612999Y-108335997D01*
X159817999Y-101474999D02*
X162752001Y-101474999D01*
X154475000Y-106817998D02*
X159817999Y-101474999D01*
X154475000Y-107450000D02*
X154475000Y-106817998D01*
G04 #@! TO.N,READY*
X148500000Y-114902002D02*
X148500000Y-111500000D01*
X156174999Y-122577001D02*
X148500000Y-114902002D01*
X157250000Y-135330000D02*
X156174999Y-134254999D01*
X156174999Y-134254999D02*
X156174999Y-122577001D01*
D15*
G04 #@! TO.N,BPOW*
X164870000Y-135330000D02*
X171863001Y-128336999D01*
X171863001Y-128336999D02*
X171863001Y-118815999D01*
X171863001Y-118815999D02*
X171252001Y-118204999D01*
X171252001Y-118204999D02*
X170326185Y-118204999D01*
X164870000Y-104370000D02*
X162500000Y-102000000D01*
X170326185Y-118204999D02*
X164870000Y-112748814D01*
X164870000Y-112748814D02*
X164870000Y-104370000D01*
D16*
G04 #@! TO.N,RCAN*
X139474999Y-118525001D02*
X143500000Y-114500000D01*
X139474999Y-119252001D02*
X139474999Y-118525001D01*
X142000000Y-120000000D02*
X140222998Y-120000000D01*
X140222998Y-120000000D02*
X139474999Y-119252001D01*
G04 #@! TO.N,Net-(P6-Pad2)*
X138000000Y-110500000D02*
X141000000Y-107500000D01*
X133350000Y-123190000D02*
X138000000Y-118540000D01*
X138000000Y-118540000D02*
X138000000Y-110500000D01*
G04 #@! TO.N,TCAN*
X140000000Y-119000000D02*
X141000000Y-119000000D01*
X141000000Y-119000000D02*
X146500000Y-113500000D01*
G04 #@! TD*
D17*
G04 #@! TO.N,GND*
G36*
X142492577Y-100564156D02*
X142541951Y-100638049D01*
X142615844Y-100687423D01*
X142615845Y-100687424D01*
X142642672Y-100705349D01*
X142834690Y-100833652D01*
X143092835Y-100885000D01*
X143092839Y-100885000D01*
X143179999Y-100902337D01*
X143267159Y-100885000D01*
X143693306Y-100885000D01*
X143814017Y-100935000D01*
X144185983Y-100935000D01*
X144191224Y-100932829D01*
X144147050Y-100962345D01*
X144059893Y-101020582D01*
X143993168Y-101065166D01*
X143956348Y-101120271D01*
X143781799Y-101294820D01*
X143591765Y-101167843D01*
X143344000Y-101118560D01*
X141644000Y-101118560D01*
X141396235Y-101167843D01*
X141186191Y-101308191D01*
X141045843Y-101518235D01*
X140996560Y-101766000D01*
X140996560Y-103466000D01*
X141045843Y-103713765D01*
X141186191Y-103923809D01*
X141396235Y-104064157D01*
X141644000Y-104113440D01*
X143344000Y-104113440D01*
X143591765Y-104064157D01*
X143801809Y-103923809D01*
X143942157Y-103713765D01*
X143962739Y-103610292D01*
X144267076Y-103887645D01*
X144677110Y-104057476D01*
X144907000Y-103936155D01*
X144907000Y-102743000D01*
X144887000Y-102743000D01*
X144887000Y-102489000D01*
X144907000Y-102489000D01*
X144907000Y-102469000D01*
X145161000Y-102469000D01*
X145161000Y-102489000D01*
X145181000Y-102489000D01*
X145181000Y-102743000D01*
X145161000Y-102743000D01*
X145161000Y-103936155D01*
X145390890Y-104057476D01*
X145800924Y-103887645D01*
X146229183Y-103497358D01*
X146339045Y-103263424D01*
X146490000Y-103414379D01*
X146489999Y-112565000D01*
X146314017Y-112565000D01*
X145970365Y-112707345D01*
X145707345Y-112970365D01*
X145565000Y-113314017D01*
X145565000Y-113501619D01*
X144435000Y-114631619D01*
X144435000Y-114314017D01*
X144292655Y-113970365D01*
X144029635Y-113707345D01*
X143685983Y-113565000D01*
X143314017Y-113565000D01*
X142970365Y-113707345D01*
X142707345Y-113970365D01*
X142565000Y-114314017D01*
X142565000Y-114501619D01*
X139054272Y-118012348D01*
X138999167Y-118049168D01*
X138962347Y-118104273D01*
X138962345Y-118104275D01*
X138908529Y-118184817D01*
X138853294Y-118267482D01*
X138814999Y-118459998D01*
X138814999Y-118460003D01*
X138802070Y-118525001D01*
X138814999Y-118589999D01*
X138814999Y-119187003D01*
X138802070Y-119252001D01*
X138814999Y-119316999D01*
X138814999Y-119317003D01*
X138853293Y-119509519D01*
X138911942Y-119597294D01*
X138944959Y-119646706D01*
X138999166Y-119727833D01*
X139054272Y-119764654D01*
X139710345Y-120420728D01*
X139747165Y-120475833D01*
X139965479Y-120621706D01*
X140157995Y-120660000D01*
X140157999Y-120660000D01*
X140222997Y-120672929D01*
X140287995Y-120660000D01*
X141337710Y-120660000D01*
X141470365Y-120792655D01*
X141814017Y-120935000D01*
X142185983Y-120935000D01*
X142529635Y-120792655D01*
X142792655Y-120529635D01*
X142935000Y-120185983D01*
X142935000Y-119814017D01*
X142792655Y-119470365D01*
X142529635Y-119207345D01*
X142185983Y-119065000D01*
X141868380Y-119065000D01*
X146489999Y-114443382D01*
X146489999Y-115726001D01*
X146477070Y-115790999D01*
X146489999Y-115855997D01*
X146489999Y-115856001D01*
X146528293Y-116048517D01*
X146528294Y-116048518D01*
X146619973Y-116185725D01*
X146674166Y-116266831D01*
X146729272Y-116303652D01*
X147065000Y-116639380D01*
X147065000Y-116826983D01*
X147207345Y-117170635D01*
X147470365Y-117433655D01*
X147814017Y-117576000D01*
X148185983Y-117576000D01*
X148529635Y-117433655D01*
X148792655Y-117170635D01*
X148935000Y-116826983D01*
X148935000Y-116455017D01*
X148804444Y-116139826D01*
X151428566Y-118763948D01*
X151420365Y-118767345D01*
X151197963Y-118989747D01*
X151152655Y-118880365D01*
X150889635Y-118617345D01*
X150545983Y-118475000D01*
X150174017Y-118475000D01*
X149830365Y-118617345D01*
X149567345Y-118880365D01*
X149425000Y-119224017D01*
X149425000Y-119411619D01*
X145929273Y-122907347D01*
X145874168Y-122944167D01*
X145837348Y-122999272D01*
X145837346Y-122999274D01*
X145728295Y-123162481D01*
X145714618Y-123231238D01*
X145492655Y-123009275D01*
X145455833Y-122954167D01*
X145237519Y-122808294D01*
X145045003Y-122770000D01*
X145044998Y-122770000D01*
X144980000Y-122757071D01*
X144915002Y-122770000D01*
X142582290Y-122770000D01*
X142449635Y-122637345D01*
X142105983Y-122495000D01*
X141734017Y-122495000D01*
X141390365Y-122637345D01*
X141127345Y-122900365D01*
X140985000Y-123244017D01*
X140985000Y-123286950D01*
X140797765Y-123161843D01*
X140550000Y-123112560D01*
X138850000Y-123112560D01*
X138602235Y-123161843D01*
X138392191Y-123302191D01*
X138251843Y-123512235D01*
X138202560Y-123760000D01*
X138202560Y-125460000D01*
X138251843Y-125707765D01*
X138392191Y-125917809D01*
X138602235Y-126058157D01*
X138705708Y-126078739D01*
X138428355Y-126383076D01*
X138258524Y-126793110D01*
X138379845Y-127023000D01*
X139573000Y-127023000D01*
X139573000Y-127003000D01*
X139827000Y-127003000D01*
X139827000Y-127023000D01*
X141020155Y-127023000D01*
X141141476Y-126793110D01*
X140971645Y-126383076D01*
X140694292Y-126078739D01*
X140797765Y-126058157D01*
X141007809Y-125917809D01*
X141148157Y-125707765D01*
X141197440Y-125460000D01*
X141197440Y-124029730D01*
X141390365Y-124222655D01*
X141734017Y-124365000D01*
X142105983Y-124365000D01*
X142449635Y-124222655D01*
X142582290Y-124090000D01*
X144706620Y-124090000D01*
X145415000Y-124798381D01*
X145415000Y-124985983D01*
X145557345Y-125329635D01*
X145820365Y-125592655D01*
X146164017Y-125735000D01*
X146535983Y-125735000D01*
X146879635Y-125592655D01*
X147142655Y-125329635D01*
X147285000Y-124985983D01*
X147285000Y-124614017D01*
X147142655Y-124270365D01*
X147010000Y-124137710D01*
X147010000Y-123693380D01*
X148700267Y-122003113D01*
X148667071Y-122170000D01*
X148680001Y-122235003D01*
X148680000Y-124362710D01*
X148547345Y-124495365D01*
X148405000Y-124839017D01*
X148405000Y-125210983D01*
X148547345Y-125554635D01*
X148810365Y-125817655D01*
X149154017Y-125960000D01*
X149525983Y-125960000D01*
X149869635Y-125817655D01*
X150132655Y-125554635D01*
X150275000Y-125210983D01*
X150275000Y-124839017D01*
X150132655Y-124495365D01*
X150000000Y-124362710D01*
X150000000Y-122443380D01*
X151948381Y-120495000D01*
X152135983Y-120495000D01*
X152479635Y-120352655D01*
X152742655Y-120089635D01*
X152746052Y-120081434D01*
X155515000Y-122850383D01*
X155514999Y-131541890D01*
X155289418Y-131391161D01*
X154856256Y-131305000D01*
X154563744Y-131305000D01*
X154130582Y-131391161D01*
X153639375Y-131719375D01*
X153440000Y-132017761D01*
X153240625Y-131719375D01*
X152749418Y-131391161D01*
X152316256Y-131305000D01*
X152023744Y-131305000D01*
X151590582Y-131391161D01*
X151099375Y-131719375D01*
X150900000Y-132017761D01*
X150700625Y-131719375D01*
X150209418Y-131391161D01*
X149776256Y-131305000D01*
X149483744Y-131305000D01*
X149050582Y-131391161D01*
X148559375Y-131719375D01*
X148346157Y-132038478D01*
X148285183Y-131908642D01*
X147856924Y-131518355D01*
X147446890Y-131348524D01*
X147217000Y-131469845D01*
X147217000Y-132663000D01*
X147237000Y-132663000D01*
X147237000Y-132917000D01*
X147217000Y-132917000D01*
X147217000Y-132937000D01*
X146963000Y-132937000D01*
X146963000Y-132917000D01*
X146943000Y-132917000D01*
X146943000Y-132663000D01*
X146963000Y-132663000D01*
X146963000Y-131469845D01*
X146733110Y-131348524D01*
X146323076Y-131518355D01*
X145894817Y-131908642D01*
X145833843Y-132038478D01*
X145620625Y-131719375D01*
X145129418Y-131391161D01*
X144696256Y-131305000D01*
X144403744Y-131305000D01*
X143970582Y-131391161D01*
X143479375Y-131719375D01*
X143280000Y-132017761D01*
X143080625Y-131719375D01*
X142589418Y-131391161D01*
X142156256Y-131305000D01*
X141863744Y-131305000D01*
X141430582Y-131391161D01*
X140939375Y-131719375D01*
X140740000Y-132017761D01*
X140540625Y-131719375D01*
X140049418Y-131391161D01*
X139616256Y-131305000D01*
X139323744Y-131305000D01*
X138890582Y-131391161D01*
X138399375Y-131719375D01*
X138387184Y-131737619D01*
X138378157Y-131692235D01*
X138237809Y-131482191D01*
X138027765Y-131341843D01*
X137780000Y-131292560D01*
X136080000Y-131292560D01*
X135832235Y-131341843D01*
X135622191Y-131482191D01*
X135582769Y-131541190D01*
X133746752Y-129705173D01*
X133929418Y-129668839D01*
X134420625Y-129340625D01*
X134748839Y-128849418D01*
X134864092Y-128270000D01*
X134748839Y-127690582D01*
X134626100Y-127506890D01*
X138258524Y-127506890D01*
X138428355Y-127916924D01*
X138818642Y-128345183D01*
X139343108Y-128591486D01*
X139573000Y-128470819D01*
X139573000Y-127277000D01*
X139827000Y-127277000D01*
X139827000Y-128470819D01*
X140056892Y-128591486D01*
X140581358Y-128345183D01*
X140971645Y-127916924D01*
X141141476Y-127506890D01*
X141020155Y-127277000D01*
X139827000Y-127277000D01*
X139573000Y-127277000D01*
X138379845Y-127277000D01*
X138258524Y-127506890D01*
X134626100Y-127506890D01*
X134420625Y-127199375D01*
X134101522Y-126986157D01*
X134231358Y-126925183D01*
X134621645Y-126496924D01*
X134791476Y-126086890D01*
X134670155Y-125857000D01*
X133477000Y-125857000D01*
X133477000Y-125877000D01*
X133223000Y-125877000D01*
X133223000Y-125857000D01*
X133203000Y-125857000D01*
X133203000Y-125603000D01*
X133223000Y-125603000D01*
X133223000Y-125583000D01*
X133477000Y-125583000D01*
X133477000Y-125603000D01*
X134670155Y-125603000D01*
X134791476Y-125373110D01*
X134621645Y-124963076D01*
X134231358Y-124534817D01*
X134101522Y-124473843D01*
X134420625Y-124260625D01*
X134748839Y-123769418D01*
X134864092Y-123190000D01*
X134767746Y-122705634D01*
X138420730Y-119052651D01*
X138475832Y-119015833D01*
X138512651Y-118960730D01*
X138512654Y-118960727D01*
X138595188Y-118837206D01*
X138621706Y-118797519D01*
X138660000Y-118605003D01*
X138660000Y-118604999D01*
X138672929Y-118540001D01*
X138660000Y-118475003D01*
X138660000Y-110773380D01*
X140998381Y-108435000D01*
X141185983Y-108435000D01*
X141529635Y-108292655D01*
X141792655Y-108029635D01*
X141881577Y-107814957D01*
X143065000Y-108998381D01*
X143065000Y-109185983D01*
X143207345Y-109529635D01*
X143470365Y-109792655D01*
X143814017Y-109935000D01*
X144185983Y-109935000D01*
X144529635Y-109792655D01*
X144792655Y-109529635D01*
X144935000Y-109185983D01*
X144935000Y-108814017D01*
X144792655Y-108470365D01*
X144529635Y-108207345D01*
X144185983Y-108065000D01*
X143998381Y-108065000D01*
X142251655Y-106318275D01*
X142214834Y-106263168D01*
X141996520Y-106117295D01*
X141804004Y-106079001D01*
X141803999Y-106079001D01*
X141739001Y-106066072D01*
X141674003Y-106079001D01*
X140101407Y-106079001D01*
X140125476Y-106020890D01*
X140004155Y-105791000D01*
X138811000Y-105791000D01*
X138811000Y-105811000D01*
X138557000Y-105811000D01*
X138557000Y-105791000D01*
X137363845Y-105791000D01*
X137242524Y-106020890D01*
X137266593Y-106079001D01*
X134630379Y-106079001D01*
X137238839Y-103470542D01*
X137285161Y-103703418D01*
X137613375Y-104194625D01*
X137932478Y-104407843D01*
X137802642Y-104468817D01*
X137412355Y-104897076D01*
X137242524Y-105307110D01*
X137363845Y-105537000D01*
X138557000Y-105537000D01*
X138557000Y-105517000D01*
X138811000Y-105517000D01*
X138811000Y-105537000D01*
X140004155Y-105537000D01*
X140125476Y-105307110D01*
X139955645Y-104897076D01*
X139565358Y-104468817D01*
X139435522Y-104407843D01*
X139754625Y-104194625D01*
X140082839Y-103703418D01*
X140198092Y-103124000D01*
X140082839Y-102544582D01*
X139754625Y-102053375D01*
X139456239Y-101854000D01*
X139754625Y-101654625D01*
X140082839Y-101163418D01*
X140198092Y-100584000D01*
X140082839Y-100004582D01*
X139754625Y-99513375D01*
X139456239Y-99314000D01*
X139754625Y-99114625D01*
X140082839Y-98623418D01*
X140160651Y-98232229D01*
X142492577Y-100564156D01*
X142492577Y-100564156D01*
G37*
X142492577Y-100564156D02*
X142541951Y-100638049D01*
X142615844Y-100687423D01*
X142615845Y-100687424D01*
X142642672Y-100705349D01*
X142834690Y-100833652D01*
X143092835Y-100885000D01*
X143092839Y-100885000D01*
X143179999Y-100902337D01*
X143267159Y-100885000D01*
X143693306Y-100885000D01*
X143814017Y-100935000D01*
X144185983Y-100935000D01*
X144191224Y-100932829D01*
X144147050Y-100962345D01*
X144059893Y-101020582D01*
X143993168Y-101065166D01*
X143956348Y-101120271D01*
X143781799Y-101294820D01*
X143591765Y-101167843D01*
X143344000Y-101118560D01*
X141644000Y-101118560D01*
X141396235Y-101167843D01*
X141186191Y-101308191D01*
X141045843Y-101518235D01*
X140996560Y-101766000D01*
X140996560Y-103466000D01*
X141045843Y-103713765D01*
X141186191Y-103923809D01*
X141396235Y-104064157D01*
X141644000Y-104113440D01*
X143344000Y-104113440D01*
X143591765Y-104064157D01*
X143801809Y-103923809D01*
X143942157Y-103713765D01*
X143962739Y-103610292D01*
X144267076Y-103887645D01*
X144677110Y-104057476D01*
X144907000Y-103936155D01*
X144907000Y-102743000D01*
X144887000Y-102743000D01*
X144887000Y-102489000D01*
X144907000Y-102489000D01*
X144907000Y-102469000D01*
X145161000Y-102469000D01*
X145161000Y-102489000D01*
X145181000Y-102489000D01*
X145181000Y-102743000D01*
X145161000Y-102743000D01*
X145161000Y-103936155D01*
X145390890Y-104057476D01*
X145800924Y-103887645D01*
X146229183Y-103497358D01*
X146339045Y-103263424D01*
X146490000Y-103414379D01*
X146489999Y-112565000D01*
X146314017Y-112565000D01*
X145970365Y-112707345D01*
X145707345Y-112970365D01*
X145565000Y-113314017D01*
X145565000Y-113501619D01*
X144435000Y-114631619D01*
X144435000Y-114314017D01*
X144292655Y-113970365D01*
X144029635Y-113707345D01*
X143685983Y-113565000D01*
X143314017Y-113565000D01*
X142970365Y-113707345D01*
X142707345Y-113970365D01*
X142565000Y-114314017D01*
X142565000Y-114501619D01*
X139054272Y-118012348D01*
X138999167Y-118049168D01*
X138962347Y-118104273D01*
X138962345Y-118104275D01*
X138908529Y-118184817D01*
X138853294Y-118267482D01*
X138814999Y-118459998D01*
X138814999Y-118460003D01*
X138802070Y-118525001D01*
X138814999Y-118589999D01*
X138814999Y-119187003D01*
X138802070Y-119252001D01*
X138814999Y-119316999D01*
X138814999Y-119317003D01*
X138853293Y-119509519D01*
X138911942Y-119597294D01*
X138944959Y-119646706D01*
X138999166Y-119727833D01*
X139054272Y-119764654D01*
X139710345Y-120420728D01*
X139747165Y-120475833D01*
X139965479Y-120621706D01*
X140157995Y-120660000D01*
X140157999Y-120660000D01*
X140222997Y-120672929D01*
X140287995Y-120660000D01*
X141337710Y-120660000D01*
X141470365Y-120792655D01*
X141814017Y-120935000D01*
X142185983Y-120935000D01*
X142529635Y-120792655D01*
X142792655Y-120529635D01*
X142935000Y-120185983D01*
X142935000Y-119814017D01*
X142792655Y-119470365D01*
X142529635Y-119207345D01*
X142185983Y-119065000D01*
X141868380Y-119065000D01*
X146489999Y-114443382D01*
X146489999Y-115726001D01*
X146477070Y-115790999D01*
X146489999Y-115855997D01*
X146489999Y-115856001D01*
X146528293Y-116048517D01*
X146528294Y-116048518D01*
X146619973Y-116185725D01*
X146674166Y-116266831D01*
X146729272Y-116303652D01*
X147065000Y-116639380D01*
X147065000Y-116826983D01*
X147207345Y-117170635D01*
X147470365Y-117433655D01*
X147814017Y-117576000D01*
X148185983Y-117576000D01*
X148529635Y-117433655D01*
X148792655Y-117170635D01*
X148935000Y-116826983D01*
X148935000Y-116455017D01*
X148804444Y-116139826D01*
X151428566Y-118763948D01*
X151420365Y-118767345D01*
X151197963Y-118989747D01*
X151152655Y-118880365D01*
X150889635Y-118617345D01*
X150545983Y-118475000D01*
X150174017Y-118475000D01*
X149830365Y-118617345D01*
X149567345Y-118880365D01*
X149425000Y-119224017D01*
X149425000Y-119411619D01*
X145929273Y-122907347D01*
X145874168Y-122944167D01*
X145837348Y-122999272D01*
X145837346Y-122999274D01*
X145728295Y-123162481D01*
X145714618Y-123231238D01*
X145492655Y-123009275D01*
X145455833Y-122954167D01*
X145237519Y-122808294D01*
X145045003Y-122770000D01*
X145044998Y-122770000D01*
X144980000Y-122757071D01*
X144915002Y-122770000D01*
X142582290Y-122770000D01*
X142449635Y-122637345D01*
X142105983Y-122495000D01*
X141734017Y-122495000D01*
X141390365Y-122637345D01*
X141127345Y-122900365D01*
X140985000Y-123244017D01*
X140985000Y-123286950D01*
X140797765Y-123161843D01*
X140550000Y-123112560D01*
X138850000Y-123112560D01*
X138602235Y-123161843D01*
X138392191Y-123302191D01*
X138251843Y-123512235D01*
X138202560Y-123760000D01*
X138202560Y-125460000D01*
X138251843Y-125707765D01*
X138392191Y-125917809D01*
X138602235Y-126058157D01*
X138705708Y-126078739D01*
X138428355Y-126383076D01*
X138258524Y-126793110D01*
X138379845Y-127023000D01*
X139573000Y-127023000D01*
X139573000Y-127003000D01*
X139827000Y-127003000D01*
X139827000Y-127023000D01*
X141020155Y-127023000D01*
X141141476Y-126793110D01*
X140971645Y-126383076D01*
X140694292Y-126078739D01*
X140797765Y-126058157D01*
X141007809Y-125917809D01*
X141148157Y-125707765D01*
X141197440Y-125460000D01*
X141197440Y-124029730D01*
X141390365Y-124222655D01*
X141734017Y-124365000D01*
X142105983Y-124365000D01*
X142449635Y-124222655D01*
X142582290Y-124090000D01*
X144706620Y-124090000D01*
X145415000Y-124798381D01*
X145415000Y-124985983D01*
X145557345Y-125329635D01*
X145820365Y-125592655D01*
X146164017Y-125735000D01*
X146535983Y-125735000D01*
X146879635Y-125592655D01*
X147142655Y-125329635D01*
X147285000Y-124985983D01*
X147285000Y-124614017D01*
X147142655Y-124270365D01*
X147010000Y-124137710D01*
X147010000Y-123693380D01*
X148700267Y-122003113D01*
X148667071Y-122170000D01*
X148680001Y-122235003D01*
X148680000Y-124362710D01*
X148547345Y-124495365D01*
X148405000Y-124839017D01*
X148405000Y-125210983D01*
X148547345Y-125554635D01*
X148810365Y-125817655D01*
X149154017Y-125960000D01*
X149525983Y-125960000D01*
X149869635Y-125817655D01*
X150132655Y-125554635D01*
X150275000Y-125210983D01*
X150275000Y-124839017D01*
X150132655Y-124495365D01*
X150000000Y-124362710D01*
X150000000Y-122443380D01*
X151948381Y-120495000D01*
X152135983Y-120495000D01*
X152479635Y-120352655D01*
X152742655Y-120089635D01*
X152746052Y-120081434D01*
X155515000Y-122850383D01*
X155514999Y-131541890D01*
X155289418Y-131391161D01*
X154856256Y-131305000D01*
X154563744Y-131305000D01*
X154130582Y-131391161D01*
X153639375Y-131719375D01*
X153440000Y-132017761D01*
X153240625Y-131719375D01*
X152749418Y-131391161D01*
X152316256Y-131305000D01*
X152023744Y-131305000D01*
X151590582Y-131391161D01*
X151099375Y-131719375D01*
X150900000Y-132017761D01*
X150700625Y-131719375D01*
X150209418Y-131391161D01*
X149776256Y-131305000D01*
X149483744Y-131305000D01*
X149050582Y-131391161D01*
X148559375Y-131719375D01*
X148346157Y-132038478D01*
X148285183Y-131908642D01*
X147856924Y-131518355D01*
X147446890Y-131348524D01*
X147217000Y-131469845D01*
X147217000Y-132663000D01*
X147237000Y-132663000D01*
X147237000Y-132917000D01*
X147217000Y-132917000D01*
X147217000Y-132937000D01*
X146963000Y-132937000D01*
X146963000Y-132917000D01*
X146943000Y-132917000D01*
X146943000Y-132663000D01*
X146963000Y-132663000D01*
X146963000Y-131469845D01*
X146733110Y-131348524D01*
X146323076Y-131518355D01*
X145894817Y-131908642D01*
X145833843Y-132038478D01*
X145620625Y-131719375D01*
X145129418Y-131391161D01*
X144696256Y-131305000D01*
X144403744Y-131305000D01*
X143970582Y-131391161D01*
X143479375Y-131719375D01*
X143280000Y-132017761D01*
X143080625Y-131719375D01*
X142589418Y-131391161D01*
X142156256Y-131305000D01*
X141863744Y-131305000D01*
X141430582Y-131391161D01*
X140939375Y-131719375D01*
X140740000Y-132017761D01*
X140540625Y-131719375D01*
X140049418Y-131391161D01*
X139616256Y-131305000D01*
X139323744Y-131305000D01*
X138890582Y-131391161D01*
X138399375Y-131719375D01*
X138387184Y-131737619D01*
X138378157Y-131692235D01*
X138237809Y-131482191D01*
X138027765Y-131341843D01*
X137780000Y-131292560D01*
X136080000Y-131292560D01*
X135832235Y-131341843D01*
X135622191Y-131482191D01*
X135582769Y-131541190D01*
X133746752Y-129705173D01*
X133929418Y-129668839D01*
X134420625Y-129340625D01*
X134748839Y-128849418D01*
X134864092Y-128270000D01*
X134748839Y-127690582D01*
X134626100Y-127506890D01*
X138258524Y-127506890D01*
X138428355Y-127916924D01*
X138818642Y-128345183D01*
X139343108Y-128591486D01*
X139573000Y-128470819D01*
X139573000Y-127277000D01*
X139827000Y-127277000D01*
X139827000Y-128470819D01*
X140056892Y-128591486D01*
X140581358Y-128345183D01*
X140971645Y-127916924D01*
X141141476Y-127506890D01*
X141020155Y-127277000D01*
X139827000Y-127277000D01*
X139573000Y-127277000D01*
X138379845Y-127277000D01*
X138258524Y-127506890D01*
X134626100Y-127506890D01*
X134420625Y-127199375D01*
X134101522Y-126986157D01*
X134231358Y-126925183D01*
X134621645Y-126496924D01*
X134791476Y-126086890D01*
X134670155Y-125857000D01*
X133477000Y-125857000D01*
X133477000Y-125877000D01*
X133223000Y-125877000D01*
X133223000Y-125857000D01*
X133203000Y-125857000D01*
X133203000Y-125603000D01*
X133223000Y-125603000D01*
X133223000Y-125583000D01*
X133477000Y-125583000D01*
X133477000Y-125603000D01*
X134670155Y-125603000D01*
X134791476Y-125373110D01*
X134621645Y-124963076D01*
X134231358Y-124534817D01*
X134101522Y-124473843D01*
X134420625Y-124260625D01*
X134748839Y-123769418D01*
X134864092Y-123190000D01*
X134767746Y-122705634D01*
X138420730Y-119052651D01*
X138475832Y-119015833D01*
X138512651Y-118960730D01*
X138512654Y-118960727D01*
X138595188Y-118837206D01*
X138621706Y-118797519D01*
X138660000Y-118605003D01*
X138660000Y-118604999D01*
X138672929Y-118540001D01*
X138660000Y-118475003D01*
X138660000Y-110773380D01*
X140998381Y-108435000D01*
X141185983Y-108435000D01*
X141529635Y-108292655D01*
X141792655Y-108029635D01*
X141881577Y-107814957D01*
X143065000Y-108998381D01*
X143065000Y-109185983D01*
X143207345Y-109529635D01*
X143470365Y-109792655D01*
X143814017Y-109935000D01*
X144185983Y-109935000D01*
X144529635Y-109792655D01*
X144792655Y-109529635D01*
X144935000Y-109185983D01*
X144935000Y-108814017D01*
X144792655Y-108470365D01*
X144529635Y-108207345D01*
X144185983Y-108065000D01*
X143998381Y-108065000D01*
X142251655Y-106318275D01*
X142214834Y-106263168D01*
X141996520Y-106117295D01*
X141804004Y-106079001D01*
X141803999Y-106079001D01*
X141739001Y-106066072D01*
X141674003Y-106079001D01*
X140101407Y-106079001D01*
X140125476Y-106020890D01*
X140004155Y-105791000D01*
X138811000Y-105791000D01*
X138811000Y-105811000D01*
X138557000Y-105811000D01*
X138557000Y-105791000D01*
X137363845Y-105791000D01*
X137242524Y-106020890D01*
X137266593Y-106079001D01*
X134630379Y-106079001D01*
X137238839Y-103470542D01*
X137285161Y-103703418D01*
X137613375Y-104194625D01*
X137932478Y-104407843D01*
X137802642Y-104468817D01*
X137412355Y-104897076D01*
X137242524Y-105307110D01*
X137363845Y-105537000D01*
X138557000Y-105537000D01*
X138557000Y-105517000D01*
X138811000Y-105517000D01*
X138811000Y-105537000D01*
X140004155Y-105537000D01*
X140125476Y-105307110D01*
X139955645Y-104897076D01*
X139565358Y-104468817D01*
X139435522Y-104407843D01*
X139754625Y-104194625D01*
X140082839Y-103703418D01*
X140198092Y-103124000D01*
X140082839Y-102544582D01*
X139754625Y-102053375D01*
X139456239Y-101854000D01*
X139754625Y-101654625D01*
X140082839Y-101163418D01*
X140198092Y-100584000D01*
X140082839Y-100004582D01*
X139754625Y-99513375D01*
X139456239Y-99314000D01*
X139754625Y-99114625D01*
X140082839Y-98623418D01*
X140160651Y-98232229D01*
X142492577Y-100564156D01*
G36*
X156842481Y-123346706D02*
X157034997Y-123385000D01*
X157035001Y-123385000D01*
X157099999Y-123397929D01*
X157164997Y-123385000D01*
X157287710Y-123385000D01*
X157420365Y-123517655D01*
X157764017Y-123660000D01*
X158135983Y-123660000D01*
X158479635Y-123517655D01*
X158532956Y-123464334D01*
X158790001Y-123721380D01*
X158790000Y-124462710D01*
X158657345Y-124595365D01*
X158515000Y-124939017D01*
X158515000Y-125310983D01*
X158657345Y-125654635D01*
X158920365Y-125917655D01*
X159264017Y-126060000D01*
X159635983Y-126060000D01*
X159979635Y-125917655D01*
X160242655Y-125654635D01*
X160385000Y-125310983D01*
X160385000Y-124939017D01*
X160242655Y-124595365D01*
X160110000Y-124462710D01*
X160110000Y-124043381D01*
X161527349Y-125460730D01*
X161564169Y-125515835D01*
X161782483Y-125661708D01*
X161974999Y-125700002D01*
X161975003Y-125700002D01*
X162040001Y-125712931D01*
X162104999Y-125700002D01*
X165805195Y-125700002D01*
X160156408Y-131348791D01*
X159936256Y-131305000D01*
X159643744Y-131305000D01*
X159210582Y-131391161D01*
X158719375Y-131719375D01*
X158506157Y-132038478D01*
X158445183Y-131908642D01*
X158016924Y-131518355D01*
X157606890Y-131348524D01*
X157377000Y-131469845D01*
X157377000Y-132663000D01*
X157397000Y-132663000D01*
X157397000Y-132917000D01*
X157377000Y-132917000D01*
X157377000Y-132937000D01*
X157123000Y-132937000D01*
X157123000Y-132917000D01*
X157103000Y-132917000D01*
X157103000Y-132663000D01*
X157123000Y-132663000D01*
X157123000Y-131469845D01*
X156893110Y-131348524D01*
X156834999Y-131372593D01*
X156834999Y-123341707D01*
X156842481Y-123346706D01*
X156842481Y-123346706D01*
G37*
X156842481Y-123346706D02*
X157034997Y-123385000D01*
X157035001Y-123385000D01*
X157099999Y-123397929D01*
X157164997Y-123385000D01*
X157287710Y-123385000D01*
X157420365Y-123517655D01*
X157764017Y-123660000D01*
X158135983Y-123660000D01*
X158479635Y-123517655D01*
X158532956Y-123464334D01*
X158790001Y-123721380D01*
X158790000Y-124462710D01*
X158657345Y-124595365D01*
X158515000Y-124939017D01*
X158515000Y-125310983D01*
X158657345Y-125654635D01*
X158920365Y-125917655D01*
X159264017Y-126060000D01*
X159635983Y-126060000D01*
X159979635Y-125917655D01*
X160242655Y-125654635D01*
X160385000Y-125310983D01*
X160385000Y-124939017D01*
X160242655Y-124595365D01*
X160110000Y-124462710D01*
X160110000Y-124043381D01*
X161527349Y-125460730D01*
X161564169Y-125515835D01*
X161782483Y-125661708D01*
X161974999Y-125700002D01*
X161975003Y-125700002D01*
X162040001Y-125712931D01*
X162104999Y-125700002D01*
X165805195Y-125700002D01*
X160156408Y-131348791D01*
X159936256Y-131305000D01*
X159643744Y-131305000D01*
X159210582Y-131391161D01*
X158719375Y-131719375D01*
X158506157Y-132038478D01*
X158445183Y-131908642D01*
X158016924Y-131518355D01*
X157606890Y-131348524D01*
X157377000Y-131469845D01*
X157377000Y-132663000D01*
X157397000Y-132663000D01*
X157397000Y-132917000D01*
X157377000Y-132917000D01*
X157377000Y-132937000D01*
X157123000Y-132937000D01*
X157123000Y-132917000D01*
X157103000Y-132917000D01*
X157103000Y-132663000D01*
X157123000Y-132663000D01*
X157123000Y-131469845D01*
X156893110Y-131348524D01*
X156834999Y-131372593D01*
X156834999Y-123341707D01*
X156842481Y-123346706D01*
G36*
X162457000Y-132663000D02*
X162477000Y-132663000D01*
X162477000Y-132917000D01*
X162457000Y-132917000D01*
X162457000Y-132937000D01*
X162203000Y-132937000D01*
X162203000Y-132917000D01*
X162183000Y-132917000D01*
X162183000Y-132663000D01*
X162203000Y-132663000D01*
X162203000Y-132643000D01*
X162457000Y-132643000D01*
X162457000Y-132663000D01*
X162457000Y-132663000D01*
G37*
X162457000Y-132663000D02*
X162477000Y-132663000D01*
X162477000Y-132917000D01*
X162457000Y-132917000D01*
X162457000Y-132937000D01*
X162203000Y-132937000D01*
X162203000Y-132917000D01*
X162183000Y-132917000D01*
X162183000Y-132663000D01*
X162203000Y-132663000D01*
X162203000Y-132643000D01*
X162457000Y-132643000D01*
X162457000Y-132663000D01*
G36*
X162433000Y-103505000D02*
X162453000Y-103505000D01*
X162453000Y-103759000D01*
X162433000Y-103759000D01*
X162433000Y-104952155D01*
X162662890Y-105073476D01*
X163072924Y-104903645D01*
X163501183Y-104513358D01*
X163640948Y-104215749D01*
X164110001Y-104684803D01*
X164110000Y-112673967D01*
X164095112Y-112748814D01*
X164110000Y-112823661D01*
X164110000Y-112823665D01*
X164154096Y-113045350D01*
X164322071Y-113296743D01*
X164385530Y-113339145D01*
X169532269Y-118485885D01*
X169416355Y-118613076D01*
X169246524Y-119023110D01*
X169367845Y-119253000D01*
X170561000Y-119253000D01*
X170561000Y-119233000D01*
X170815000Y-119233000D01*
X170815000Y-119253000D01*
X170835000Y-119253000D01*
X170835000Y-119507000D01*
X170815000Y-119507000D01*
X170815000Y-120700819D01*
X171044892Y-120821486D01*
X171103002Y-120794196D01*
X171103001Y-128022197D01*
X166375980Y-132749219D01*
X166268839Y-132210582D01*
X165940625Y-131719375D01*
X165449418Y-131391161D01*
X165016256Y-131305000D01*
X164723744Y-131305000D01*
X164290582Y-131391161D01*
X163799375Y-131719375D01*
X163586157Y-132038478D01*
X163525183Y-131908642D01*
X163096924Y-131518355D01*
X162686890Y-131348524D01*
X162457002Y-131469844D01*
X162457002Y-131305000D01*
X162349801Y-131305000D01*
X167229800Y-126425003D01*
X168725154Y-126425003D01*
X168800001Y-126439891D01*
X168874848Y-126425003D01*
X168874853Y-126425003D01*
X169096538Y-126380907D01*
X169347930Y-126212932D01*
X169390332Y-126149473D01*
X169984473Y-125555333D01*
X170047929Y-125512933D01*
X170215904Y-125261541D01*
X170260000Y-125039856D01*
X170260000Y-125039852D01*
X170274888Y-124965005D01*
X170260000Y-124890158D01*
X170260000Y-124562290D01*
X170292655Y-124529635D01*
X170435000Y-124185983D01*
X170435000Y-123814017D01*
X170292655Y-123470365D01*
X170029635Y-123207345D01*
X169685983Y-123065000D01*
X169314017Y-123065000D01*
X168970365Y-123207345D01*
X168707345Y-123470365D01*
X168565000Y-123814017D01*
X168565000Y-124105002D01*
X168314017Y-124105002D01*
X167970365Y-124247347D01*
X167837710Y-124380002D01*
X162313383Y-124380002D01*
X157935000Y-120001620D01*
X157935000Y-119814017D01*
X157792655Y-119470365D01*
X157529635Y-119207345D01*
X157185983Y-119065000D01*
X156814017Y-119065000D01*
X156470365Y-119207345D01*
X156207345Y-119470365D01*
X156192902Y-119505234D01*
X156177002Y-119502071D01*
X156112004Y-119515000D01*
X155548381Y-119515000D01*
X154960230Y-118926850D01*
X155060000Y-118685983D01*
X155060000Y-118314017D01*
X154917655Y-117970365D01*
X154654635Y-117707345D01*
X154310983Y-117565000D01*
X153939017Y-117565000D01*
X153595365Y-117707345D01*
X153332345Y-117970365D01*
X153190000Y-118314017D01*
X153190000Y-118658621D01*
X151117896Y-116586517D01*
X157565000Y-116586517D01*
X157565000Y-116958483D01*
X157707345Y-117302135D01*
X157970365Y-117565155D01*
X158314017Y-117707500D01*
X158360199Y-117707500D01*
X158740001Y-118087302D01*
X158740000Y-118437710D01*
X158707345Y-118470365D01*
X158565000Y-118814017D01*
X158565000Y-119185983D01*
X158707345Y-119529635D01*
X158970365Y-119792655D01*
X159263595Y-119914115D01*
X159207345Y-119970365D01*
X159065000Y-120314017D01*
X159065000Y-120685983D01*
X159207345Y-121029635D01*
X159470365Y-121292655D01*
X159814017Y-121435000D01*
X159988255Y-121435000D01*
X159998165Y-121449831D01*
X160053270Y-121486651D01*
X160053271Y-121486652D01*
X160068863Y-121497070D01*
X160216479Y-121595704D01*
X160408995Y-121633998D01*
X160408999Y-121633998D01*
X160473997Y-121646927D01*
X160538995Y-121633998D01*
X165785709Y-121633998D01*
X165918364Y-121766653D01*
X166262016Y-121908998D01*
X166633982Y-121908998D01*
X166977634Y-121766653D01*
X167240654Y-121503633D01*
X167382999Y-121159981D01*
X167382999Y-120788015D01*
X167240654Y-120444363D01*
X166977634Y-120181343D01*
X166633982Y-120038998D01*
X166262016Y-120038998D01*
X165918364Y-120181343D01*
X165785709Y-120313998D01*
X160934992Y-120313998D01*
X160792655Y-119970365D01*
X160559180Y-119736890D01*
X169246524Y-119736890D01*
X169416355Y-120146924D01*
X169806642Y-120575183D01*
X170331108Y-120821486D01*
X170561000Y-120700819D01*
X170561000Y-119507000D01*
X169367845Y-119507000D01*
X169246524Y-119736890D01*
X160559180Y-119736890D01*
X160529635Y-119707345D01*
X160236405Y-119585885D01*
X160292655Y-119529635D01*
X160435000Y-119185983D01*
X160435000Y-118814017D01*
X160292655Y-118470365D01*
X160260000Y-118437710D01*
X160260000Y-117847348D01*
X160274888Y-117772500D01*
X160260000Y-117697652D01*
X160260000Y-117697648D01*
X160215904Y-117475963D01*
X160047929Y-117224571D01*
X159984473Y-117182171D01*
X159435000Y-116632699D01*
X159435000Y-116586517D01*
X159292655Y-116242865D01*
X159029635Y-115979845D01*
X158685983Y-115837500D01*
X158314017Y-115837500D01*
X157970365Y-115979845D01*
X157707345Y-116242865D01*
X157565000Y-116586517D01*
X151117896Y-116586517D01*
X149160000Y-114628622D01*
X149160000Y-112162290D01*
X149292655Y-112029635D01*
X149435000Y-111685983D01*
X149435000Y-111314017D01*
X149292655Y-110970365D01*
X149029635Y-110707345D01*
X148938701Y-110669679D01*
X151498381Y-108110000D01*
X153812710Y-108110000D01*
X153945365Y-108242655D01*
X154289017Y-108385000D01*
X154660983Y-108385000D01*
X155004635Y-108242655D01*
X155267655Y-107979635D01*
X155410000Y-107635983D01*
X155410000Y-107264017D01*
X155278890Y-106947488D01*
X158268560Y-103957819D01*
X158268560Y-104482000D01*
X158317843Y-104729765D01*
X158458191Y-104939809D01*
X158668235Y-105080157D01*
X158916000Y-105129440D01*
X160616000Y-105129440D01*
X160863765Y-105080157D01*
X161073809Y-104939809D01*
X161214157Y-104729765D01*
X161234739Y-104626292D01*
X161539076Y-104903645D01*
X161949110Y-105073476D01*
X162179000Y-104952155D01*
X162179000Y-103759000D01*
X162159000Y-103759000D01*
X162159000Y-103505000D01*
X162179000Y-103505000D01*
X162179000Y-103485000D01*
X162433000Y-103485000D01*
X162433000Y-103505000D01*
X162433000Y-103505000D01*
G37*
X162433000Y-103505000D02*
X162453000Y-103505000D01*
X162453000Y-103759000D01*
X162433000Y-103759000D01*
X162433000Y-104952155D01*
X162662890Y-105073476D01*
X163072924Y-104903645D01*
X163501183Y-104513358D01*
X163640948Y-104215749D01*
X164110001Y-104684803D01*
X164110000Y-112673967D01*
X164095112Y-112748814D01*
X164110000Y-112823661D01*
X164110000Y-112823665D01*
X164154096Y-113045350D01*
X164322071Y-113296743D01*
X164385530Y-113339145D01*
X169532269Y-118485885D01*
X169416355Y-118613076D01*
X169246524Y-119023110D01*
X169367845Y-119253000D01*
X170561000Y-119253000D01*
X170561000Y-119233000D01*
X170815000Y-119233000D01*
X170815000Y-119253000D01*
X170835000Y-119253000D01*
X170835000Y-119507000D01*
X170815000Y-119507000D01*
X170815000Y-120700819D01*
X171044892Y-120821486D01*
X171103002Y-120794196D01*
X171103001Y-128022197D01*
X166375980Y-132749219D01*
X166268839Y-132210582D01*
X165940625Y-131719375D01*
X165449418Y-131391161D01*
X165016256Y-131305000D01*
X164723744Y-131305000D01*
X164290582Y-131391161D01*
X163799375Y-131719375D01*
X163586157Y-132038478D01*
X163525183Y-131908642D01*
X163096924Y-131518355D01*
X162686890Y-131348524D01*
X162457002Y-131469844D01*
X162457002Y-131305000D01*
X162349801Y-131305000D01*
X167229800Y-126425003D01*
X168725154Y-126425003D01*
X168800001Y-126439891D01*
X168874848Y-126425003D01*
X168874853Y-126425003D01*
X169096538Y-126380907D01*
X169347930Y-126212932D01*
X169390332Y-126149473D01*
X169984473Y-125555333D01*
X170047929Y-125512933D01*
X170215904Y-125261541D01*
X170260000Y-125039856D01*
X170260000Y-125039852D01*
X170274888Y-124965005D01*
X170260000Y-124890158D01*
X170260000Y-124562290D01*
X170292655Y-124529635D01*
X170435000Y-124185983D01*
X170435000Y-123814017D01*
X170292655Y-123470365D01*
X170029635Y-123207345D01*
X169685983Y-123065000D01*
X169314017Y-123065000D01*
X168970365Y-123207345D01*
X168707345Y-123470365D01*
X168565000Y-123814017D01*
X168565000Y-124105002D01*
X168314017Y-124105002D01*
X167970365Y-124247347D01*
X167837710Y-124380002D01*
X162313383Y-124380002D01*
X157935000Y-120001620D01*
X157935000Y-119814017D01*
X157792655Y-119470365D01*
X157529635Y-119207345D01*
X157185983Y-119065000D01*
X156814017Y-119065000D01*
X156470365Y-119207345D01*
X156207345Y-119470365D01*
X156192902Y-119505234D01*
X156177002Y-119502071D01*
X156112004Y-119515000D01*
X155548381Y-119515000D01*
X154960230Y-118926850D01*
X155060000Y-118685983D01*
X155060000Y-118314017D01*
X154917655Y-117970365D01*
X154654635Y-117707345D01*
X154310983Y-117565000D01*
X153939017Y-117565000D01*
X153595365Y-117707345D01*
X153332345Y-117970365D01*
X153190000Y-118314017D01*
X153190000Y-118658621D01*
X151117896Y-116586517D01*
X157565000Y-116586517D01*
X157565000Y-116958483D01*
X157707345Y-117302135D01*
X157970365Y-117565155D01*
X158314017Y-117707500D01*
X158360199Y-117707500D01*
X158740001Y-118087302D01*
X158740000Y-118437710D01*
X158707345Y-118470365D01*
X158565000Y-118814017D01*
X158565000Y-119185983D01*
X158707345Y-119529635D01*
X158970365Y-119792655D01*
X159263595Y-119914115D01*
X159207345Y-119970365D01*
X159065000Y-120314017D01*
X159065000Y-120685983D01*
X159207345Y-121029635D01*
X159470365Y-121292655D01*
X159814017Y-121435000D01*
X159988255Y-121435000D01*
X159998165Y-121449831D01*
X160053270Y-121486651D01*
X160053271Y-121486652D01*
X160068863Y-121497070D01*
X160216479Y-121595704D01*
X160408995Y-121633998D01*
X160408999Y-121633998D01*
X160473997Y-121646927D01*
X160538995Y-121633998D01*
X165785709Y-121633998D01*
X165918364Y-121766653D01*
X166262016Y-121908998D01*
X166633982Y-121908998D01*
X166977634Y-121766653D01*
X167240654Y-121503633D01*
X167382999Y-121159981D01*
X167382999Y-120788015D01*
X167240654Y-120444363D01*
X166977634Y-120181343D01*
X166633982Y-120038998D01*
X166262016Y-120038998D01*
X165918364Y-120181343D01*
X165785709Y-120313998D01*
X160934992Y-120313998D01*
X160792655Y-119970365D01*
X160559180Y-119736890D01*
X169246524Y-119736890D01*
X169416355Y-120146924D01*
X169806642Y-120575183D01*
X170331108Y-120821486D01*
X170561000Y-120700819D01*
X170561000Y-119507000D01*
X169367845Y-119507000D01*
X169246524Y-119736890D01*
X160559180Y-119736890D01*
X160529635Y-119707345D01*
X160236405Y-119585885D01*
X160292655Y-119529635D01*
X160435000Y-119185983D01*
X160435000Y-118814017D01*
X160292655Y-118470365D01*
X160260000Y-118437710D01*
X160260000Y-117847348D01*
X160274888Y-117772500D01*
X160260000Y-117697652D01*
X160260000Y-117697648D01*
X160215904Y-117475963D01*
X160047929Y-117224571D01*
X159984473Y-117182171D01*
X159435000Y-116632699D01*
X159435000Y-116586517D01*
X159292655Y-116242865D01*
X159029635Y-115979845D01*
X158685983Y-115837500D01*
X158314017Y-115837500D01*
X157970365Y-115979845D01*
X157707345Y-116242865D01*
X157565000Y-116586517D01*
X151117896Y-116586517D01*
X149160000Y-114628622D01*
X149160000Y-112162290D01*
X149292655Y-112029635D01*
X149435000Y-111685983D01*
X149435000Y-111314017D01*
X149292655Y-110970365D01*
X149029635Y-110707345D01*
X148938701Y-110669679D01*
X151498381Y-108110000D01*
X153812710Y-108110000D01*
X153945365Y-108242655D01*
X154289017Y-108385000D01*
X154660983Y-108385000D01*
X155004635Y-108242655D01*
X155267655Y-107979635D01*
X155410000Y-107635983D01*
X155410000Y-107264017D01*
X155278890Y-106947488D01*
X158268560Y-103957819D01*
X158268560Y-104482000D01*
X158317843Y-104729765D01*
X158458191Y-104939809D01*
X158668235Y-105080157D01*
X158916000Y-105129440D01*
X160616000Y-105129440D01*
X160863765Y-105080157D01*
X161073809Y-104939809D01*
X161214157Y-104729765D01*
X161234739Y-104626292D01*
X161539076Y-104903645D01*
X161949110Y-105073476D01*
X162179000Y-104952155D01*
X162179000Y-103759000D01*
X162159000Y-103759000D01*
X162159000Y-103505000D01*
X162179000Y-103505000D01*
X162179000Y-103485000D01*
X162433000Y-103485000D01*
X162433000Y-103505000D01*
G36*
X140065000Y-107501619D02*
X137579273Y-109987347D01*
X137524168Y-110024167D01*
X137487348Y-110079272D01*
X137487346Y-110079274D01*
X137378295Y-110242481D01*
X137327071Y-110500000D01*
X137340001Y-110565003D01*
X137340000Y-118266619D01*
X134847440Y-120759180D01*
X134847440Y-119800000D01*
X134798157Y-119552235D01*
X134657809Y-119342191D01*
X134447765Y-119201843D01*
X134200000Y-119152560D01*
X132500000Y-119152560D01*
X132430989Y-119166287D01*
X132430989Y-110561648D01*
X132516582Y-110618839D01*
X132949744Y-110705000D01*
X133242256Y-110705000D01*
X133675418Y-110618839D01*
X134166625Y-110290625D01*
X134494839Y-109799418D01*
X134610092Y-109220000D01*
X134494839Y-108640582D01*
X134166625Y-108149375D01*
X133868239Y-107950000D01*
X134166625Y-107750625D01*
X134398429Y-107403705D01*
X134422079Y-107399001D01*
X140065000Y-107399001D01*
X140065000Y-107501619D01*
X140065000Y-107501619D01*
G37*
X140065000Y-107501619D02*
X137579273Y-109987347D01*
X137524168Y-110024167D01*
X137487348Y-110079272D01*
X137487346Y-110079274D01*
X137378295Y-110242481D01*
X137327071Y-110500000D01*
X137340001Y-110565003D01*
X137340000Y-118266619D01*
X134847440Y-120759180D01*
X134847440Y-119800000D01*
X134798157Y-119552235D01*
X134657809Y-119342191D01*
X134447765Y-119201843D01*
X134200000Y-119152560D01*
X132500000Y-119152560D01*
X132430989Y-119166287D01*
X132430989Y-110561648D01*
X132516582Y-110618839D01*
X132949744Y-110705000D01*
X133242256Y-110705000D01*
X133675418Y-110618839D01*
X134166625Y-110290625D01*
X134494839Y-109799418D01*
X134610092Y-109220000D01*
X134494839Y-108640582D01*
X134166625Y-108149375D01*
X133868239Y-107950000D01*
X134166625Y-107750625D01*
X134398429Y-107403705D01*
X134422079Y-107399001D01*
X140065000Y-107399001D01*
X140065000Y-107501619D01*
G36*
X172315000Y-118193196D02*
X171868295Y-117746492D01*
X172086839Y-117419418D01*
X172202092Y-116840000D01*
X172086839Y-116260582D01*
X171758625Y-115769375D01*
X171460239Y-115570000D01*
X171758625Y-115370625D01*
X172086839Y-114879418D01*
X172202092Y-114300000D01*
X172086839Y-113720582D01*
X171758625Y-113229375D01*
X171460239Y-113030000D01*
X171758625Y-112830625D01*
X172086839Y-112339418D01*
X172202092Y-111760000D01*
X172086839Y-111180582D01*
X171758625Y-110689375D01*
X171740381Y-110677184D01*
X171785765Y-110668157D01*
X171995809Y-110527809D01*
X172136157Y-110317765D01*
X172185440Y-110070000D01*
X172185440Y-108370000D01*
X172136157Y-108122235D01*
X171995809Y-107912191D01*
X171785765Y-107771843D01*
X171538000Y-107722560D01*
X169932943Y-107722560D01*
X163264656Y-101054274D01*
X163227834Y-100999166D01*
X163009520Y-100853293D01*
X162817004Y-100814999D01*
X162816999Y-100814999D01*
X162752001Y-100802070D01*
X162687003Y-100814999D01*
X159882998Y-100814999D01*
X159817999Y-100802070D01*
X159753000Y-100814999D01*
X159752996Y-100814999D01*
X159560480Y-100853293D01*
X159400058Y-100960484D01*
X159342166Y-100999166D01*
X159305346Y-101054271D01*
X154054273Y-106305345D01*
X153999168Y-106342165D01*
X153962347Y-106397271D01*
X153962346Y-106397272D01*
X153945502Y-106422481D01*
X153853294Y-106560479D01*
X153815000Y-106752995D01*
X153815000Y-106753000D01*
X153807640Y-106790000D01*
X151289997Y-106790000D01*
X151224999Y-106777071D01*
X151160001Y-106790000D01*
X151159997Y-106790000D01*
X150967481Y-106828294D01*
X150749167Y-106974167D01*
X150712347Y-107029272D01*
X147809999Y-109931621D01*
X147809999Y-103205996D01*
X147822928Y-103140997D01*
X147809999Y-103075997D01*
X147809999Y-103075994D01*
X147771705Y-102883478D01*
X147771705Y-102883477D01*
X147662653Y-102720270D01*
X147662652Y-102720269D01*
X147625832Y-102665164D01*
X147570727Y-102628344D01*
X146062656Y-101120274D01*
X146025834Y-101065166D01*
X145807520Y-100919293D01*
X145635118Y-100885000D01*
X146633422Y-100885000D01*
X149157345Y-103408924D01*
X149207345Y-103529635D01*
X149470365Y-103792655D01*
X149814017Y-103935000D01*
X150185983Y-103935000D01*
X150529635Y-103792655D01*
X150792655Y-103529635D01*
X150935000Y-103185983D01*
X150935000Y-102814017D01*
X150792655Y-102470365D01*
X150529635Y-102207345D01*
X150408924Y-102157345D01*
X147687425Y-99435847D01*
X147638049Y-99361951D01*
X147345310Y-99166348D01*
X147087165Y-99115000D01*
X147087161Y-99115000D01*
X147000000Y-99097663D01*
X146912839Y-99115000D01*
X144306694Y-99115000D01*
X144185983Y-99065000D01*
X143814017Y-99065000D01*
X143693306Y-99115000D01*
X143546579Y-99115000D01*
X140181440Y-95749862D01*
X140181440Y-94654000D01*
X140132157Y-94406235D01*
X139991809Y-94196191D01*
X139781765Y-94055843D01*
X139534000Y-94006560D01*
X137834000Y-94006560D01*
X137586235Y-94055843D01*
X137376191Y-94196191D01*
X137235843Y-94406235D01*
X137186560Y-94654000D01*
X137186560Y-96354000D01*
X137235843Y-96601765D01*
X137376191Y-96811809D01*
X137586235Y-96952157D01*
X137631619Y-96961184D01*
X137613375Y-96973375D01*
X137285161Y-97464582D01*
X137169908Y-98044000D01*
X137266254Y-98528366D01*
X137188272Y-98606348D01*
X137133167Y-98643168D01*
X137096347Y-98698273D01*
X137096345Y-98698275D01*
X136987294Y-98861482D01*
X136936070Y-99119001D01*
X136949000Y-99184004D01*
X136948999Y-100944622D01*
X134412427Y-103481195D01*
X134367645Y-103373076D01*
X133977358Y-102944817D01*
X133847522Y-102883843D01*
X134166625Y-102670625D01*
X134494839Y-102179418D01*
X134610092Y-101600000D01*
X134494839Y-101020582D01*
X134166625Y-100529375D01*
X134148381Y-100517184D01*
X134193765Y-100508157D01*
X134403809Y-100367809D01*
X134544157Y-100157765D01*
X134593440Y-99910000D01*
X134593440Y-98210000D01*
X134544157Y-97962235D01*
X134403809Y-97752191D01*
X134193765Y-97611843D01*
X133946000Y-97562560D01*
X133335016Y-97562560D01*
X138012577Y-92885000D01*
X153193306Y-92885000D01*
X153314017Y-92935000D01*
X153685983Y-92935000D01*
X154029635Y-92792655D01*
X154292655Y-92529635D01*
X154435000Y-92185983D01*
X154435000Y-91814017D01*
X154292655Y-91470365D01*
X154029635Y-91207345D01*
X153685983Y-91065000D01*
X153314017Y-91065000D01*
X153193306Y-91115000D01*
X137733157Y-91115000D01*
X137645997Y-91097663D01*
X137558837Y-91115000D01*
X137558833Y-91115000D01*
X137300688Y-91166348D01*
X137300686Y-91166349D01*
X137300687Y-91166349D01*
X137081843Y-91312576D01*
X137081842Y-91312577D01*
X137007949Y-91361951D01*
X136958575Y-91435844D01*
X130981834Y-97412586D01*
X130907941Y-97461960D01*
X130858567Y-97535853D01*
X130858565Y-97535855D01*
X130712337Y-97754700D01*
X130685000Y-97892135D01*
X130685000Y-79685000D01*
X172315001Y-79685000D01*
X172315000Y-118193196D01*
X172315000Y-118193196D01*
G37*
X172315000Y-118193196D02*
X171868295Y-117746492D01*
X172086839Y-117419418D01*
X172202092Y-116840000D01*
X172086839Y-116260582D01*
X171758625Y-115769375D01*
X171460239Y-115570000D01*
X171758625Y-115370625D01*
X172086839Y-114879418D01*
X172202092Y-114300000D01*
X172086839Y-113720582D01*
X171758625Y-113229375D01*
X171460239Y-113030000D01*
X171758625Y-112830625D01*
X172086839Y-112339418D01*
X172202092Y-111760000D01*
X172086839Y-111180582D01*
X171758625Y-110689375D01*
X171740381Y-110677184D01*
X171785765Y-110668157D01*
X171995809Y-110527809D01*
X172136157Y-110317765D01*
X172185440Y-110070000D01*
X172185440Y-108370000D01*
X172136157Y-108122235D01*
X171995809Y-107912191D01*
X171785765Y-107771843D01*
X171538000Y-107722560D01*
X169932943Y-107722560D01*
X163264656Y-101054274D01*
X163227834Y-100999166D01*
X163009520Y-100853293D01*
X162817004Y-100814999D01*
X162816999Y-100814999D01*
X162752001Y-100802070D01*
X162687003Y-100814999D01*
X159882998Y-100814999D01*
X159817999Y-100802070D01*
X159753000Y-100814999D01*
X159752996Y-100814999D01*
X159560480Y-100853293D01*
X159400058Y-100960484D01*
X159342166Y-100999166D01*
X159305346Y-101054271D01*
X154054273Y-106305345D01*
X153999168Y-106342165D01*
X153962347Y-106397271D01*
X153962346Y-106397272D01*
X153945502Y-106422481D01*
X153853294Y-106560479D01*
X153815000Y-106752995D01*
X153815000Y-106753000D01*
X153807640Y-106790000D01*
X151289997Y-106790000D01*
X151224999Y-106777071D01*
X151160001Y-106790000D01*
X151159997Y-106790000D01*
X150967481Y-106828294D01*
X150749167Y-106974167D01*
X150712347Y-107029272D01*
X147809999Y-109931621D01*
X147809999Y-103205996D01*
X147822928Y-103140997D01*
X147809999Y-103075997D01*
X147809999Y-103075994D01*
X147771705Y-102883478D01*
X147771705Y-102883477D01*
X147662653Y-102720270D01*
X147662652Y-102720269D01*
X147625832Y-102665164D01*
X147570727Y-102628344D01*
X146062656Y-101120274D01*
X146025834Y-101065166D01*
X145807520Y-100919293D01*
X145635118Y-100885000D01*
X146633422Y-100885000D01*
X149157345Y-103408924D01*
X149207345Y-103529635D01*
X149470365Y-103792655D01*
X149814017Y-103935000D01*
X150185983Y-103935000D01*
X150529635Y-103792655D01*
X150792655Y-103529635D01*
X150935000Y-103185983D01*
X150935000Y-102814017D01*
X150792655Y-102470365D01*
X150529635Y-102207345D01*
X150408924Y-102157345D01*
X147687425Y-99435847D01*
X147638049Y-99361951D01*
X147345310Y-99166348D01*
X147087165Y-99115000D01*
X147087161Y-99115000D01*
X147000000Y-99097663D01*
X146912839Y-99115000D01*
X144306694Y-99115000D01*
X144185983Y-99065000D01*
X143814017Y-99065000D01*
X143693306Y-99115000D01*
X143546579Y-99115000D01*
X140181440Y-95749862D01*
X140181440Y-94654000D01*
X140132157Y-94406235D01*
X139991809Y-94196191D01*
X139781765Y-94055843D01*
X139534000Y-94006560D01*
X137834000Y-94006560D01*
X137586235Y-94055843D01*
X137376191Y-94196191D01*
X137235843Y-94406235D01*
X137186560Y-94654000D01*
X137186560Y-96354000D01*
X137235843Y-96601765D01*
X137376191Y-96811809D01*
X137586235Y-96952157D01*
X137631619Y-96961184D01*
X137613375Y-96973375D01*
X137285161Y-97464582D01*
X137169908Y-98044000D01*
X137266254Y-98528366D01*
X137188272Y-98606348D01*
X137133167Y-98643168D01*
X137096347Y-98698273D01*
X137096345Y-98698275D01*
X136987294Y-98861482D01*
X136936070Y-99119001D01*
X136949000Y-99184004D01*
X136948999Y-100944622D01*
X134412427Y-103481195D01*
X134367645Y-103373076D01*
X133977358Y-102944817D01*
X133847522Y-102883843D01*
X134166625Y-102670625D01*
X134494839Y-102179418D01*
X134610092Y-101600000D01*
X134494839Y-101020582D01*
X134166625Y-100529375D01*
X134148381Y-100517184D01*
X134193765Y-100508157D01*
X134403809Y-100367809D01*
X134544157Y-100157765D01*
X134593440Y-99910000D01*
X134593440Y-98210000D01*
X134544157Y-97962235D01*
X134403809Y-97752191D01*
X134193765Y-97611843D01*
X133946000Y-97562560D01*
X133335016Y-97562560D01*
X138012577Y-92885000D01*
X153193306Y-92885000D01*
X153314017Y-92935000D01*
X153685983Y-92935000D01*
X154029635Y-92792655D01*
X154292655Y-92529635D01*
X154435000Y-92185983D01*
X154435000Y-91814017D01*
X154292655Y-91470365D01*
X154029635Y-91207345D01*
X153685983Y-91065000D01*
X153314017Y-91065000D01*
X153193306Y-91115000D01*
X137733157Y-91115000D01*
X137645997Y-91097663D01*
X137558837Y-91115000D01*
X137558833Y-91115000D01*
X137300688Y-91166348D01*
X137300686Y-91166349D01*
X137300687Y-91166349D01*
X137081843Y-91312576D01*
X137081842Y-91312577D01*
X137007949Y-91361951D01*
X136958575Y-91435844D01*
X130981834Y-97412586D01*
X130907941Y-97461960D01*
X130858567Y-97535853D01*
X130858565Y-97535855D01*
X130712337Y-97754700D01*
X130685000Y-97892135D01*
X130685000Y-79685000D01*
X172315001Y-79685000D01*
X172315000Y-118193196D01*
G36*
X168952999Y-108609378D02*
X168953000Y-115699996D01*
X168943540Y-115747553D01*
X165630000Y-112434013D01*
X165630000Y-105286378D01*
X168952999Y-108609378D01*
X168952999Y-108609378D01*
G37*
X168952999Y-108609378D02*
X168953000Y-115699996D01*
X168943540Y-115747553D01*
X165630000Y-112434013D01*
X165630000Y-105286378D01*
X168952999Y-108609378D01*
G36*
X133223000Y-104013000D02*
X133243000Y-104013000D01*
X133243000Y-104267000D01*
X133223000Y-104267000D01*
X133223000Y-104287000D01*
X132969000Y-104287000D01*
X132969000Y-104267000D01*
X132949000Y-104267000D01*
X132949000Y-104013000D01*
X132969000Y-104013000D01*
X132969000Y-103993000D01*
X133223000Y-103993000D01*
X133223000Y-104013000D01*
X133223000Y-104013000D01*
G37*
X133223000Y-104013000D02*
X133243000Y-104013000D01*
X133243000Y-104267000D01*
X133223000Y-104267000D01*
X133223000Y-104287000D01*
X132969000Y-104287000D01*
X132969000Y-104267000D01*
X132949000Y-104267000D01*
X132949000Y-104013000D01*
X132969000Y-104013000D01*
X132969000Y-103993000D01*
X133223000Y-103993000D01*
X133223000Y-104013000D01*
G04 #@! TD*
M02*
