M48
;DRILL file {KiCad (5.0.0-rc2-196-g73a8d2a9d)} date Sat Jun 23 20:12:04 2018
;FORMAT={-:-/ absolute / inch / decimal}
FMAT,2
INCH,TZ
T1C0.0157
T2C0.0394
T3C0.0787
%
G90
G05
M72
T1
X5.3346Y-4.3898
X5.3937Y-4.7638
X5.5118Y-4.685
X5.5315Y-4.5276
X5.5512Y-4.2323
X5.5874Y-4.8594
X5.5906Y-3.2087
X5.5906Y-4.7244
X5.6476Y-3.7579
X5.6496Y-3.5827
X5.6496Y-4.5079
X5.6693Y-3.937
X5.6693Y-4.2913
X5.7618Y-4.9134
X5.7677Y-4.4685
X5.814Y-4.3701
X5.8268Y-4.5922
X5.8465Y-4.3898
X5.8477Y-3.9555
X5.8795Y-4.9222
X5.9051Y-4.0952
X5.9055Y-3.563
X5.9055Y-4.0551
X5.9197Y-4.7012
X5.9252Y-4.8228
X5.9823Y-4.7071
X6.0433Y-3.622
X6.0679Y-4.6654
X6.0817Y-4.2303
X6.1157Y-4.866
X6.1201Y-4.7667
X6.1225Y-5.1579
X6.1811Y-4.7244
X6.2185Y-4.8317
X6.2402Y-4.5973
X6.2776Y-4.9262
X6.2795Y-4.685
X6.2992Y-4.7441
X6.2992Y-4.7835
X6.3083Y-4.9192
X6.3976Y-4.0157
X6.4173Y-4.8819
X6.437Y-4.5079
X6.4567Y-4.6063
X6.5531Y-4.7628
X6.5551Y-4.3701
X6.6339Y-4.9228
X6.6732Y-4.8819
T2
X5.5Y-4.9059
X5.5Y-5.0059
X5.46Y-3.76
X5.46Y-3.86
X5.46Y-3.96
X5.46Y-4.06
X5.46Y-4.16
X5.24Y-3.9
X5.24Y-4.
X5.24Y-4.1
X5.24Y-4.2
X5.24Y-4.3
X5.25Y-4.75
X5.25Y-4.85
X5.25Y-4.95
X5.25Y-5.05
X5.61Y-4.04
X5.71Y-4.04
X6.29Y-4.08
X6.39Y-4.08
X6.72Y-4.3
X6.72Y-4.4
X6.72Y-4.5
X6.72Y-4.6
X6.72Y-4.7
X5.3909Y-5.228
X5.3909Y-5.328
X5.4909Y-5.228
X5.4909Y-5.328
X5.5909Y-5.228
X5.5909Y-5.328
X5.6909Y-5.228
X5.6909Y-5.328
X5.7909Y-5.228
X5.7909Y-5.328
X5.8909Y-5.228
X5.8909Y-5.328
X5.9909Y-5.228
X5.9909Y-5.328
X6.0909Y-5.228
X6.0909Y-5.328
X6.1909Y-5.228
X6.1909Y-5.328
X6.2909Y-5.228
X6.2909Y-5.328
X6.3909Y-5.228
X6.3909Y-5.328
X6.4909Y-5.228
X6.4909Y-5.328
T3
X6.5339Y-3.6303
T0
M30
