G04 #@! TF.GenerationSoftware,KiCad,Pcbnew,(5.0.0-rc2-196-g73a8d2a9d)*
G04 #@! TF.CreationDate,2018-06-23T20:12:08-07:00*
G04 #@! TF.ProjectId,SMD_Lebowski,534D445F4C65626F77736B692E6B6963,rev?*
G04 #@! TF.SameCoordinates,Original*
G04 #@! TF.FileFunction,Legend,Top*
G04 #@! TF.FilePolarity,Positive*
%FSLAX46Y46*%
G04 Gerber Fmt 4.6, Leading zero omitted, Abs format (unit mm)*
G04 Created by KiCad (PCBNEW (5.0.0-rc2-196-g73a8d2a9d)) date Sat Jun 23 20:12:08 2018*
%MOMM*%
%LPD*%
G01*
G04 APERTURE LIST*
%ADD10C,0.250000*%
%ADD11C,0.150000*%
%ADD12C,0.120000*%
G04 APERTURE END LIST*
D10*
X153476190Y-94202380D02*
X153476190Y-93202380D01*
X153857142Y-93202380D01*
X153952380Y-93250000D01*
X154000000Y-93297619D01*
X154047619Y-93392857D01*
X154047619Y-93535714D01*
X154000000Y-93630952D01*
X153952380Y-93678571D01*
X153857142Y-93726190D01*
X153476190Y-93726190D01*
X154857142Y-94154761D02*
X154761904Y-94202380D01*
X154571428Y-94202380D01*
X154476190Y-94154761D01*
X154428571Y-94059523D01*
X154428571Y-93678571D01*
X154476190Y-93583333D01*
X154571428Y-93535714D01*
X154761904Y-93535714D01*
X154857142Y-93583333D01*
X154904761Y-93678571D01*
X154904761Y-93773809D01*
X154428571Y-93869047D01*
X155714285Y-94154761D02*
X155619047Y-94202380D01*
X155428571Y-94202380D01*
X155333333Y-94154761D01*
X155285714Y-94059523D01*
X155285714Y-93678571D01*
X155333333Y-93583333D01*
X155428571Y-93535714D01*
X155619047Y-93535714D01*
X155714285Y-93583333D01*
X155761904Y-93678571D01*
X155761904Y-93773809D01*
X155285714Y-93869047D01*
X156952380Y-94202380D02*
X156952380Y-93535714D01*
X156952380Y-93202380D02*
X156904761Y-93250000D01*
X156952380Y-93297619D01*
X157000000Y-93250000D01*
X156952380Y-93202380D01*
X156952380Y-93297619D01*
X157380952Y-94154761D02*
X157476190Y-94202380D01*
X157666666Y-94202380D01*
X157761904Y-94154761D01*
X157809523Y-94059523D01*
X157809523Y-94011904D01*
X157761904Y-93916666D01*
X157666666Y-93869047D01*
X157523809Y-93869047D01*
X157428571Y-93821428D01*
X157380952Y-93726190D01*
X157380952Y-93678571D01*
X157428571Y-93583333D01*
X157523809Y-93535714D01*
X157666666Y-93535714D01*
X157761904Y-93583333D01*
X153857142Y-95904761D02*
X153952380Y-95952380D01*
X154142857Y-95952380D01*
X154238095Y-95904761D01*
X154285714Y-95809523D01*
X154285714Y-95761904D01*
X154238095Y-95666666D01*
X154142857Y-95619047D01*
X154000000Y-95619047D01*
X153904761Y-95571428D01*
X153857142Y-95476190D01*
X153857142Y-95428571D01*
X153904761Y-95333333D01*
X154000000Y-95285714D01*
X154142857Y-95285714D01*
X154238095Y-95333333D01*
X154571428Y-95285714D02*
X154952380Y-95285714D01*
X154714285Y-94952380D02*
X154714285Y-95809523D01*
X154761904Y-95904761D01*
X154857142Y-95952380D01*
X154952380Y-95952380D01*
X155428571Y-95952380D02*
X155333333Y-95904761D01*
X155285714Y-95857142D01*
X155238095Y-95761904D01*
X155238095Y-95476190D01*
X155285714Y-95380952D01*
X155333333Y-95333333D01*
X155428571Y-95285714D01*
X155571428Y-95285714D01*
X155666666Y-95333333D01*
X155714285Y-95380952D01*
X155761904Y-95476190D01*
X155761904Y-95761904D01*
X155714285Y-95857142D01*
X155666666Y-95904761D01*
X155571428Y-95952380D01*
X155428571Y-95952380D01*
X156190476Y-95952380D02*
X156190476Y-95285714D01*
X156190476Y-95476190D02*
X156238095Y-95380952D01*
X156285714Y-95333333D01*
X156380952Y-95285714D01*
X156476190Y-95285714D01*
X157190476Y-95904761D02*
X157095238Y-95952380D01*
X156904761Y-95952380D01*
X156809523Y-95904761D01*
X156761904Y-95809523D01*
X156761904Y-95428571D01*
X156809523Y-95333333D01*
X156904761Y-95285714D01*
X157095238Y-95285714D01*
X157190476Y-95333333D01*
X157238095Y-95428571D01*
X157238095Y-95523809D01*
X156761904Y-95619047D01*
X158095238Y-95952380D02*
X158095238Y-94952380D01*
X158095238Y-95904761D02*
X158000000Y-95952380D01*
X157809523Y-95952380D01*
X157714285Y-95904761D01*
X157666666Y-95857142D01*
X157619047Y-95761904D01*
X157619047Y-95476190D01*
X157666666Y-95380952D01*
X157714285Y-95333333D01*
X157809523Y-95285714D01*
X158000000Y-95285714D01*
X158095238Y-95333333D01*
X152166666Y-97702380D02*
X152166666Y-97035714D01*
X152166666Y-96702380D02*
X152119047Y-96750000D01*
X152166666Y-96797619D01*
X152214285Y-96750000D01*
X152166666Y-96702380D01*
X152166666Y-96797619D01*
X152642857Y-97035714D02*
X152642857Y-97702380D01*
X152642857Y-97130952D02*
X152690476Y-97083333D01*
X152785714Y-97035714D01*
X152928571Y-97035714D01*
X153023809Y-97083333D01*
X153071428Y-97178571D01*
X153071428Y-97702380D01*
X154166666Y-97035714D02*
X154547619Y-97035714D01*
X154309523Y-96702380D02*
X154309523Y-97559523D01*
X154357142Y-97654761D01*
X154452380Y-97702380D01*
X154547619Y-97702380D01*
X154880952Y-97702380D02*
X154880952Y-96702380D01*
X155309523Y-97702380D02*
X155309523Y-97178571D01*
X155261904Y-97083333D01*
X155166666Y-97035714D01*
X155023809Y-97035714D01*
X154928571Y-97083333D01*
X154880952Y-97130952D01*
X156166666Y-97654761D02*
X156071428Y-97702380D01*
X155880952Y-97702380D01*
X155785714Y-97654761D01*
X155738095Y-97559523D01*
X155738095Y-97178571D01*
X155785714Y-97083333D01*
X155880952Y-97035714D01*
X156071428Y-97035714D01*
X156166666Y-97083333D01*
X156214285Y-97178571D01*
X156214285Y-97273809D01*
X155738095Y-97369047D01*
X157404761Y-97702380D02*
X157404761Y-96702380D01*
X157404761Y-97083333D02*
X157500000Y-97035714D01*
X157690476Y-97035714D01*
X157785714Y-97083333D01*
X157833333Y-97130952D01*
X157880952Y-97226190D01*
X157880952Y-97511904D01*
X157833333Y-97607142D01*
X157785714Y-97654761D01*
X157690476Y-97702380D01*
X157500000Y-97702380D01*
X157404761Y-97654761D01*
X158738095Y-97702380D02*
X158738095Y-97178571D01*
X158690476Y-97083333D01*
X158595238Y-97035714D01*
X158404761Y-97035714D01*
X158309523Y-97083333D01*
X158738095Y-97654761D02*
X158642857Y-97702380D01*
X158404761Y-97702380D01*
X158309523Y-97654761D01*
X158261904Y-97559523D01*
X158261904Y-97464285D01*
X158309523Y-97369047D01*
X158404761Y-97321428D01*
X158642857Y-97321428D01*
X158738095Y-97273809D01*
X159357142Y-97702380D02*
X159261904Y-97654761D01*
X159214285Y-97559523D01*
X159214285Y-96702380D01*
X159880952Y-97702380D02*
X159785714Y-97654761D01*
X159738095Y-97559523D01*
X159738095Y-96702380D01*
X160214285Y-97654761D02*
X160309523Y-97702380D01*
X160500000Y-97702380D01*
X160595238Y-97654761D01*
X160642857Y-97559523D01*
X160642857Y-97511904D01*
X160595238Y-97416666D01*
X160500000Y-97369047D01*
X160357142Y-97369047D01*
X160261904Y-97321428D01*
X160214285Y-97226190D01*
X160214285Y-97178571D01*
X160261904Y-97083333D01*
X160357142Y-97035714D01*
X160500000Y-97035714D01*
X160595238Y-97083333D01*
D11*
G04 #@! TO.C,U1*
X145193000Y-110141000D02*
X145193000Y-110716000D01*
X155543000Y-110141000D02*
X155543000Y-110816000D01*
X155543000Y-120491000D02*
X155543000Y-119816000D01*
X145193000Y-120491000D02*
X145193000Y-119816000D01*
X145193000Y-110141000D02*
X145868000Y-110141000D01*
X145193000Y-120491000D02*
X145868000Y-120491000D01*
X155543000Y-120491000D02*
X154868000Y-120491000D01*
X155543000Y-110141000D02*
X154868000Y-110141000D01*
X145193000Y-110716000D02*
X143918000Y-110716000D01*
D12*
G04 #@! TO.C,D1*
X159260000Y-122118000D02*
X159260000Y-123048000D01*
X159260000Y-125278000D02*
X159260000Y-124348000D01*
X159260000Y-125278000D02*
X162420000Y-125278000D01*
X159260000Y-122118000D02*
X160720000Y-122118000D01*
G04 #@! TO.C,C16*
X154356000Y-84014000D02*
X154356000Y-86674000D01*
X149936000Y-84014000D02*
X149936000Y-86674000D01*
G04 #@! TO.C,C17*
X144010000Y-92800000D02*
X143010000Y-92800000D01*
X144010000Y-90080000D02*
X143010000Y-90080000D01*
G04 #@! TO.C,D3*
X159280000Y-125660000D02*
X159280000Y-126590000D01*
X159280000Y-128820000D02*
X159280000Y-127890000D01*
X159280000Y-128820000D02*
X162440000Y-128820000D01*
X159280000Y-125660000D02*
X160740000Y-125660000D01*
G04 #@! TO.C,D4*
X170432000Y-124770000D02*
X170432000Y-123840000D01*
X170432000Y-121610000D02*
X170432000Y-122540000D01*
X170432000Y-121610000D02*
X167272000Y-121610000D01*
X170432000Y-124770000D02*
X168972000Y-124770000D01*
G04 #@! TO.C,D5*
X165024000Y-112920000D02*
X168924000Y-112920000D01*
X168924000Y-112920000D02*
X168924000Y-110600000D01*
X168924000Y-110600000D02*
X165024000Y-110600000D01*
G04 #@! TO.C,D6*
X165024000Y-110380000D02*
X168924000Y-110380000D01*
X168924000Y-110380000D02*
X168924000Y-108060000D01*
X168924000Y-108060000D02*
X165024000Y-108060000D01*
G04 #@! TO.C,D7*
X165024000Y-107840000D02*
X168924000Y-107840000D01*
X168924000Y-107840000D02*
X168924000Y-105520000D01*
X168924000Y-105520000D02*
X165024000Y-105520000D01*
G04 #@! TO.C,D8*
X165024000Y-105554000D02*
X168924000Y-105554000D01*
X168924000Y-105554000D02*
X168924000Y-103234000D01*
X168924000Y-103234000D02*
X165024000Y-103234000D01*
G04 #@! TO.C,D11*
X134002000Y-86944000D02*
X134002000Y-83044000D01*
X134002000Y-83044000D02*
X131682000Y-83044000D01*
X131682000Y-83044000D02*
X131682000Y-86944000D01*
G04 #@! TO.C,D12*
X157482000Y-80970000D02*
X157482000Y-81900000D01*
X157482000Y-84130000D02*
X157482000Y-83200000D01*
X157482000Y-84130000D02*
X160642000Y-84130000D01*
X157482000Y-80970000D02*
X158942000Y-80970000D01*
G04 #@! TO.C,D13*
X168004000Y-80188000D02*
X168004000Y-84088000D01*
X168004000Y-84088000D02*
X170324000Y-84088000D01*
X170324000Y-84088000D02*
X170324000Y-80188000D01*
G04 #@! TO.C,L1*
X138086000Y-89908000D02*
X138086000Y-88908000D01*
X140806000Y-89908000D02*
X140806000Y-88908000D01*
G04 #@! TO.C,L2*
X153856000Y-101312000D02*
X150656000Y-101312000D01*
X150656000Y-101312000D02*
X150656000Y-90712000D01*
X150656000Y-90712000D02*
X153856000Y-90712000D01*
X158056000Y-90712000D02*
X161256000Y-90712000D01*
X161256000Y-90712000D02*
X161256000Y-101312000D01*
X161256000Y-101312000D02*
X158056000Y-101312000D01*
G04 #@! TO.C,P1*
X131766000Y-110550000D02*
X134426000Y-110550000D01*
X131766000Y-100330000D02*
X131766000Y-110550000D01*
X134426000Y-100330000D02*
X134426000Y-110550000D01*
X131766000Y-100330000D02*
X134426000Y-100330000D01*
X131766000Y-99060000D02*
X131766000Y-97730000D01*
X131766000Y-97730000D02*
X133096000Y-97730000D01*
G04 #@! TO.C,P2*
X137354000Y-106994000D02*
X140014000Y-106994000D01*
X137354000Y-96774000D02*
X137354000Y-106994000D01*
X140014000Y-96774000D02*
X140014000Y-106994000D01*
X137354000Y-96774000D02*
X140014000Y-96774000D01*
X137354000Y-95504000D02*
X137354000Y-94174000D01*
X137354000Y-94174000D02*
X138684000Y-94174000D01*
G04 #@! TO.C,P3*
X169358000Y-120710000D02*
X172018000Y-120710000D01*
X169358000Y-110490000D02*
X169358000Y-120710000D01*
X172018000Y-110490000D02*
X172018000Y-120710000D01*
X169358000Y-110490000D02*
X172018000Y-110490000D01*
X169358000Y-109220000D02*
X169358000Y-107890000D01*
X169358000Y-107890000D02*
X170688000Y-107890000D01*
G04 #@! TO.C,P5*
X138370000Y-128480000D02*
X141030000Y-128480000D01*
X138370000Y-125880000D02*
X138370000Y-128480000D01*
X141030000Y-125880000D02*
X141030000Y-128480000D01*
X138370000Y-125880000D02*
X141030000Y-125880000D01*
X138370000Y-124610000D02*
X138370000Y-123280000D01*
X138370000Y-123280000D02*
X139700000Y-123280000D01*
G04 #@! TO.C,P7*
X146364000Y-103946000D02*
X146364000Y-101286000D01*
X143764000Y-103946000D02*
X146364000Y-103946000D01*
X143764000Y-101286000D02*
X146364000Y-101286000D01*
X143764000Y-103946000D02*
X143764000Y-101286000D01*
X142494000Y-103946000D02*
X141164000Y-103946000D01*
X141164000Y-103946000D02*
X141164000Y-102616000D01*
G04 #@! TO.C,P8*
X163636000Y-104962000D02*
X163636000Y-102302000D01*
X161036000Y-104962000D02*
X163636000Y-104962000D01*
X161036000Y-102302000D02*
X163636000Y-102302000D01*
X161036000Y-104962000D02*
X161036000Y-102302000D01*
X159766000Y-104962000D02*
X158436000Y-104962000D01*
X158436000Y-104962000D02*
X158436000Y-103632000D01*
G04 #@! TO.C,U2*
X146390000Y-88022000D02*
X146390000Y-86222000D01*
X143170000Y-86222000D02*
X143170000Y-89172000D01*
D11*
G04 #@! TO.C,U3*
X163287000Y-94277000D02*
X163337000Y-94277000D01*
X163287000Y-90127000D02*
X163432000Y-90127000D01*
X168437000Y-90127000D02*
X168292000Y-90127000D01*
X168437000Y-94277000D02*
X168292000Y-94277000D01*
X163287000Y-94277000D02*
X163287000Y-90127000D01*
X168437000Y-94277000D02*
X168437000Y-90127000D01*
X163337000Y-94277000D02*
X163337000Y-95677000D01*
D12*
G04 #@! TO.C,P6*
X132020000Y-129600000D02*
X134680000Y-129600000D01*
X132020000Y-121920000D02*
X132020000Y-129600000D01*
X134680000Y-121920000D02*
X134680000Y-129600000D01*
X132020000Y-121920000D02*
X134680000Y-121920000D01*
X132020000Y-120650000D02*
X132020000Y-119320000D01*
X132020000Y-119320000D02*
X133350000Y-119320000D01*
G04 #@! TO.C,D2*
X159260000Y-118562000D02*
X159260000Y-119492000D01*
X159260000Y-121722000D02*
X159260000Y-120792000D01*
X159260000Y-121722000D02*
X162420000Y-121722000D01*
X159260000Y-118562000D02*
X160720000Y-118562000D01*
G04 #@! TO.C,Q3*
X140968000Y-122484000D02*
X140968000Y-121554000D01*
X140968000Y-119324000D02*
X140968000Y-120254000D01*
X140968000Y-119324000D02*
X137808000Y-119324000D01*
X140968000Y-122484000D02*
X139508000Y-122484000D01*
G04 #@! TO.C,Q2*
X135380000Y-114610000D02*
X135380000Y-113680000D01*
X135380000Y-111450000D02*
X135380000Y-112380000D01*
X135380000Y-111450000D02*
X132220000Y-111450000D01*
X135380000Y-114610000D02*
X133920000Y-114610000D01*
G04 #@! TO.C,Q1*
X137416000Y-107640000D02*
X137416000Y-108570000D01*
X137416000Y-110800000D02*
X137416000Y-109870000D01*
X137416000Y-110800000D02*
X140576000Y-110800000D01*
X137416000Y-107640000D02*
X138876000Y-107640000D01*
G04 #@! TO.C,U4*
X144528000Y-97226000D02*
X144528000Y-98156000D01*
X144528000Y-100386000D02*
X144528000Y-99456000D01*
X144528000Y-100386000D02*
X147688000Y-100386000D01*
X144528000Y-97226000D02*
X145988000Y-97226000D01*
G04 #@! TO.C,Q4*
X142496000Y-93670000D02*
X142496000Y-94600000D01*
X142496000Y-96830000D02*
X142496000Y-95900000D01*
X142496000Y-96830000D02*
X145656000Y-96830000D01*
X142496000Y-93670000D02*
X143956000Y-93670000D01*
G04 #@! TO.C,D10*
X137470000Y-89664000D02*
X136540000Y-89664000D01*
X134310000Y-89664000D02*
X135240000Y-89664000D01*
X134310000Y-89664000D02*
X134310000Y-92824000D01*
X137470000Y-89664000D02*
X137470000Y-91124000D01*
G04 #@! TO.C,D9*
X137866000Y-84834000D02*
X138796000Y-84834000D01*
X141026000Y-84834000D02*
X140096000Y-84834000D01*
X141026000Y-84834000D02*
X141026000Y-81674000D01*
X137866000Y-84834000D02*
X137866000Y-83374000D01*
G04 #@! TO.C,R43*
X163584000Y-98462000D02*
X164584000Y-98462000D01*
X163584000Y-101182000D02*
X164584000Y-101182000D01*
G04 #@! TO.C,U1*
D11*
X149606095Y-107318380D02*
X149606095Y-108127904D01*
X149653714Y-108223142D01*
X149701333Y-108270761D01*
X149796571Y-108318380D01*
X149987047Y-108318380D01*
X150082285Y-108270761D01*
X150129904Y-108223142D01*
X150177523Y-108127904D01*
X150177523Y-107318380D01*
X151177523Y-108318380D02*
X150606095Y-108318380D01*
X150891809Y-108318380D02*
X150891809Y-107318380D01*
X150796571Y-107461238D01*
X150701333Y-107556476D01*
X150606095Y-107604095D01*
G04 #@! TO.C,C7*
X156907142Y-114786666D02*
X156954761Y-114834285D01*
X157002380Y-114977142D01*
X157002380Y-115072380D01*
X156954761Y-115215238D01*
X156859523Y-115310476D01*
X156764285Y-115358095D01*
X156573809Y-115405714D01*
X156430952Y-115405714D01*
X156240476Y-115358095D01*
X156145238Y-115310476D01*
X156050000Y-115215238D01*
X156002380Y-115072380D01*
X156002380Y-114977142D01*
X156050000Y-114834285D01*
X156097619Y-114786666D01*
X156002380Y-114453333D02*
X156002380Y-113786666D01*
X157002380Y-114215238D01*
G04 #@! TO.C,D1*
X159281904Y-126650380D02*
X159281904Y-125650380D01*
X159520000Y-125650380D01*
X159662857Y-125698000D01*
X159758095Y-125793238D01*
X159805714Y-125888476D01*
X159853333Y-126078952D01*
X159853333Y-126221809D01*
X159805714Y-126412285D01*
X159758095Y-126507523D01*
X159662857Y-126602761D01*
X159520000Y-126650380D01*
X159281904Y-126650380D01*
X160805714Y-126650380D02*
X160234285Y-126650380D01*
X160520000Y-126650380D02*
X160520000Y-125650380D01*
X160424761Y-125793238D01*
X160329523Y-125888476D01*
X160234285Y-125936095D01*
G04 #@! TO.C,C2*
X150357142Y-127216666D02*
X150404761Y-127264285D01*
X150452380Y-127407142D01*
X150452380Y-127502380D01*
X150404761Y-127645238D01*
X150309523Y-127740476D01*
X150214285Y-127788095D01*
X150023809Y-127835714D01*
X149880952Y-127835714D01*
X149690476Y-127788095D01*
X149595238Y-127740476D01*
X149500000Y-127645238D01*
X149452380Y-127502380D01*
X149452380Y-127407142D01*
X149500000Y-127264285D01*
X149547619Y-127216666D01*
X149547619Y-126835714D02*
X149500000Y-126788095D01*
X149452380Y-126692857D01*
X149452380Y-126454761D01*
X149500000Y-126359523D01*
X149547619Y-126311904D01*
X149642857Y-126264285D01*
X149738095Y-126264285D01*
X149880952Y-126311904D01*
X150452380Y-126883333D01*
X150452380Y-126264285D01*
G04 #@! TO.C,C1*
X162537142Y-119292666D02*
X162584761Y-119340285D01*
X162632380Y-119483142D01*
X162632380Y-119578380D01*
X162584761Y-119721238D01*
X162489523Y-119816476D01*
X162394285Y-119864095D01*
X162203809Y-119911714D01*
X162060952Y-119911714D01*
X161870476Y-119864095D01*
X161775238Y-119816476D01*
X161680000Y-119721238D01*
X161632380Y-119578380D01*
X161632380Y-119483142D01*
X161680000Y-119340285D01*
X161727619Y-119292666D01*
X162632380Y-118340285D02*
X162632380Y-118911714D01*
X162632380Y-118626000D02*
X161632380Y-118626000D01*
X161775238Y-118721238D01*
X161870476Y-118816476D01*
X161918095Y-118911714D01*
G04 #@! TO.C,C3*
X148423333Y-122207142D02*
X148375714Y-122254761D01*
X148232857Y-122302380D01*
X148137619Y-122302380D01*
X147994761Y-122254761D01*
X147899523Y-122159523D01*
X147851904Y-122064285D01*
X147804285Y-121873809D01*
X147804285Y-121730952D01*
X147851904Y-121540476D01*
X147899523Y-121445238D01*
X147994761Y-121350000D01*
X148137619Y-121302380D01*
X148232857Y-121302380D01*
X148375714Y-121350000D01*
X148423333Y-121397619D01*
X148756666Y-121302380D02*
X149375714Y-121302380D01*
X149042380Y-121683333D01*
X149185238Y-121683333D01*
X149280476Y-121730952D01*
X149328095Y-121778571D01*
X149375714Y-121873809D01*
X149375714Y-122111904D01*
X149328095Y-122207142D01*
X149280476Y-122254761D01*
X149185238Y-122302380D01*
X148899523Y-122302380D01*
X148804285Y-122254761D01*
X148756666Y-122207142D01*
G04 #@! TO.C,C4*
X152833333Y-122207142D02*
X152785714Y-122254761D01*
X152642857Y-122302380D01*
X152547619Y-122302380D01*
X152404761Y-122254761D01*
X152309523Y-122159523D01*
X152261904Y-122064285D01*
X152214285Y-121873809D01*
X152214285Y-121730952D01*
X152261904Y-121540476D01*
X152309523Y-121445238D01*
X152404761Y-121350000D01*
X152547619Y-121302380D01*
X152642857Y-121302380D01*
X152785714Y-121350000D01*
X152833333Y-121397619D01*
X153690476Y-121635714D02*
X153690476Y-122302380D01*
X153452380Y-121254761D02*
X153214285Y-121969047D01*
X153833333Y-121969047D01*
G04 #@! TO.C,C5*
X158837142Y-116496666D02*
X158884761Y-116544285D01*
X158932380Y-116687142D01*
X158932380Y-116782380D01*
X158884761Y-116925238D01*
X158789523Y-117020476D01*
X158694285Y-117068095D01*
X158503809Y-117115714D01*
X158360952Y-117115714D01*
X158170476Y-117068095D01*
X158075238Y-117020476D01*
X157980000Y-116925238D01*
X157932380Y-116782380D01*
X157932380Y-116687142D01*
X157980000Y-116544285D01*
X158027619Y-116496666D01*
X157932380Y-115591904D02*
X157932380Y-116068095D01*
X158408571Y-116115714D01*
X158360952Y-116068095D01*
X158313333Y-115972857D01*
X158313333Y-115734761D01*
X158360952Y-115639523D01*
X158408571Y-115591904D01*
X158503809Y-115544285D01*
X158741904Y-115544285D01*
X158837142Y-115591904D01*
X158884761Y-115639523D01*
X158932380Y-115734761D01*
X158932380Y-115972857D01*
X158884761Y-116068095D01*
X158837142Y-116115714D01*
G04 #@! TO.C,C6*
X160697142Y-116496666D02*
X160744761Y-116544285D01*
X160792380Y-116687142D01*
X160792380Y-116782380D01*
X160744761Y-116925238D01*
X160649523Y-117020476D01*
X160554285Y-117068095D01*
X160363809Y-117115714D01*
X160220952Y-117115714D01*
X160030476Y-117068095D01*
X159935238Y-117020476D01*
X159840000Y-116925238D01*
X159792380Y-116782380D01*
X159792380Y-116687142D01*
X159840000Y-116544285D01*
X159887619Y-116496666D01*
X159792380Y-115639523D02*
X159792380Y-115830000D01*
X159840000Y-115925238D01*
X159887619Y-115972857D01*
X160030476Y-116068095D01*
X160220952Y-116115714D01*
X160601904Y-116115714D01*
X160697142Y-116068095D01*
X160744761Y-116020476D01*
X160792380Y-115925238D01*
X160792380Y-115734761D01*
X160744761Y-115639523D01*
X160697142Y-115591904D01*
X160601904Y-115544285D01*
X160363809Y-115544285D01*
X160268571Y-115591904D01*
X160220952Y-115639523D01*
X160173333Y-115734761D01*
X160173333Y-115925238D01*
X160220952Y-116020476D01*
X160268571Y-116068095D01*
X160363809Y-116115714D01*
G04 #@! TO.C,C8*
X148567142Y-106592666D02*
X148614761Y-106640285D01*
X148662380Y-106783142D01*
X148662380Y-106878380D01*
X148614761Y-107021238D01*
X148519523Y-107116476D01*
X148424285Y-107164095D01*
X148233809Y-107211714D01*
X148090952Y-107211714D01*
X147900476Y-107164095D01*
X147805238Y-107116476D01*
X147710000Y-107021238D01*
X147662380Y-106878380D01*
X147662380Y-106783142D01*
X147710000Y-106640285D01*
X147757619Y-106592666D01*
X148090952Y-106021238D02*
X148043333Y-106116476D01*
X147995714Y-106164095D01*
X147900476Y-106211714D01*
X147852857Y-106211714D01*
X147757619Y-106164095D01*
X147710000Y-106116476D01*
X147662380Y-106021238D01*
X147662380Y-105830761D01*
X147710000Y-105735523D01*
X147757619Y-105687904D01*
X147852857Y-105640285D01*
X147900476Y-105640285D01*
X147995714Y-105687904D01*
X148043333Y-105735523D01*
X148090952Y-105830761D01*
X148090952Y-106021238D01*
X148138571Y-106116476D01*
X148186190Y-106164095D01*
X148281428Y-106211714D01*
X148471904Y-106211714D01*
X148567142Y-106164095D01*
X148614761Y-106116476D01*
X148662380Y-106021238D01*
X148662380Y-105830761D01*
X148614761Y-105735523D01*
X148567142Y-105687904D01*
X148471904Y-105640285D01*
X148281428Y-105640285D01*
X148186190Y-105687904D01*
X148138571Y-105735523D01*
X148090952Y-105830761D01*
G04 #@! TO.C,C9*
X140693142Y-115990666D02*
X140740761Y-116038285D01*
X140788380Y-116181142D01*
X140788380Y-116276380D01*
X140740761Y-116419238D01*
X140645523Y-116514476D01*
X140550285Y-116562095D01*
X140359809Y-116609714D01*
X140216952Y-116609714D01*
X140026476Y-116562095D01*
X139931238Y-116514476D01*
X139836000Y-116419238D01*
X139788380Y-116276380D01*
X139788380Y-116181142D01*
X139836000Y-116038285D01*
X139883619Y-115990666D01*
X140788380Y-115514476D02*
X140788380Y-115324000D01*
X140740761Y-115228761D01*
X140693142Y-115181142D01*
X140550285Y-115085904D01*
X140359809Y-115038285D01*
X139978857Y-115038285D01*
X139883619Y-115085904D01*
X139836000Y-115133523D01*
X139788380Y-115228761D01*
X139788380Y-115419238D01*
X139836000Y-115514476D01*
X139883619Y-115562095D01*
X139978857Y-115609714D01*
X140216952Y-115609714D01*
X140312190Y-115562095D01*
X140359809Y-115514476D01*
X140407428Y-115419238D01*
X140407428Y-115228761D01*
X140359809Y-115133523D01*
X140312190Y-115085904D01*
X140216952Y-115038285D01*
G04 #@! TO.C,C10*
X148357142Y-127725357D02*
X148404761Y-127772976D01*
X148452380Y-127915833D01*
X148452380Y-128011071D01*
X148404761Y-128153928D01*
X148309523Y-128249166D01*
X148214285Y-128296785D01*
X148023809Y-128344404D01*
X147880952Y-128344404D01*
X147690476Y-128296785D01*
X147595238Y-128249166D01*
X147500000Y-128153928D01*
X147452380Y-128011071D01*
X147452380Y-127915833D01*
X147500000Y-127772976D01*
X147547619Y-127725357D01*
X148452380Y-126772976D02*
X148452380Y-127344404D01*
X148452380Y-127058690D02*
X147452380Y-127058690D01*
X147595238Y-127153928D01*
X147690476Y-127249166D01*
X147738095Y-127344404D01*
X147452380Y-126153928D02*
X147452380Y-126058690D01*
X147500000Y-125963452D01*
X147547619Y-125915833D01*
X147642857Y-125868214D01*
X147833333Y-125820595D01*
X148071428Y-125820595D01*
X148261904Y-125868214D01*
X148357142Y-125915833D01*
X148404761Y-125963452D01*
X148452380Y-126058690D01*
X148452380Y-126153928D01*
X148404761Y-126249166D01*
X148357142Y-126296785D01*
X148261904Y-126344404D01*
X148071428Y-126392023D01*
X147833333Y-126392023D01*
X147642857Y-126344404D01*
X147547619Y-126296785D01*
X147500000Y-126249166D01*
X147452380Y-126153928D01*
G04 #@! TO.C,C11*
X163087142Y-95817142D02*
X163039523Y-95864761D01*
X162896666Y-95912380D01*
X162801428Y-95912380D01*
X162658571Y-95864761D01*
X162563333Y-95769523D01*
X162515714Y-95674285D01*
X162468095Y-95483809D01*
X162468095Y-95340952D01*
X162515714Y-95150476D01*
X162563333Y-95055238D01*
X162658571Y-94960000D01*
X162801428Y-94912380D01*
X162896666Y-94912380D01*
X163039523Y-94960000D01*
X163087142Y-95007619D01*
X164039523Y-95912380D02*
X163468095Y-95912380D01*
X163753809Y-95912380D02*
X163753809Y-94912380D01*
X163658571Y-95055238D01*
X163563333Y-95150476D01*
X163468095Y-95198095D01*
X164991904Y-95912380D02*
X164420476Y-95912380D01*
X164706190Y-95912380D02*
X164706190Y-94912380D01*
X164610952Y-95055238D01*
X164515714Y-95150476D01*
X164420476Y-95198095D01*
G04 #@! TO.C,C12*
X142613142Y-82019142D02*
X142565523Y-82066761D01*
X142422666Y-82114380D01*
X142327428Y-82114380D01*
X142184571Y-82066761D01*
X142089333Y-81971523D01*
X142041714Y-81876285D01*
X141994095Y-81685809D01*
X141994095Y-81542952D01*
X142041714Y-81352476D01*
X142089333Y-81257238D01*
X142184571Y-81162000D01*
X142327428Y-81114380D01*
X142422666Y-81114380D01*
X142565523Y-81162000D01*
X142613142Y-81209619D01*
X143565523Y-82114380D02*
X142994095Y-82114380D01*
X143279809Y-82114380D02*
X143279809Y-81114380D01*
X143184571Y-81257238D01*
X143089333Y-81352476D01*
X142994095Y-81400095D01*
X143946476Y-81209619D02*
X143994095Y-81162000D01*
X144089333Y-81114380D01*
X144327428Y-81114380D01*
X144422666Y-81162000D01*
X144470285Y-81209619D01*
X144517904Y-81304857D01*
X144517904Y-81400095D01*
X144470285Y-81542952D01*
X143898857Y-82114380D01*
X144517904Y-82114380D01*
G04 #@! TO.C,C13*
X149835142Y-86494857D02*
X149882761Y-86542476D01*
X149930380Y-86685333D01*
X149930380Y-86780571D01*
X149882761Y-86923428D01*
X149787523Y-87018666D01*
X149692285Y-87066285D01*
X149501809Y-87113904D01*
X149358952Y-87113904D01*
X149168476Y-87066285D01*
X149073238Y-87018666D01*
X148978000Y-86923428D01*
X148930380Y-86780571D01*
X148930380Y-86685333D01*
X148978000Y-86542476D01*
X149025619Y-86494857D01*
X149930380Y-85542476D02*
X149930380Y-86113904D01*
X149930380Y-85828190D02*
X148930380Y-85828190D01*
X149073238Y-85923428D01*
X149168476Y-86018666D01*
X149216095Y-86113904D01*
X148930380Y-85209142D02*
X148930380Y-84590095D01*
X149311333Y-84923428D01*
X149311333Y-84780571D01*
X149358952Y-84685333D01*
X149406571Y-84637714D01*
X149501809Y-84590095D01*
X149739904Y-84590095D01*
X149835142Y-84637714D01*
X149882761Y-84685333D01*
X149930380Y-84780571D01*
X149930380Y-85066285D01*
X149882761Y-85161523D01*
X149835142Y-85209142D01*
G04 #@! TO.C,C14*
X156187142Y-88526857D02*
X156234761Y-88574476D01*
X156282380Y-88717333D01*
X156282380Y-88812571D01*
X156234761Y-88955428D01*
X156139523Y-89050666D01*
X156044285Y-89098285D01*
X155853809Y-89145904D01*
X155710952Y-89145904D01*
X155520476Y-89098285D01*
X155425238Y-89050666D01*
X155330000Y-88955428D01*
X155282380Y-88812571D01*
X155282380Y-88717333D01*
X155330000Y-88574476D01*
X155377619Y-88526857D01*
X156282380Y-87574476D02*
X156282380Y-88145904D01*
X156282380Y-87860190D02*
X155282380Y-87860190D01*
X155425238Y-87955428D01*
X155520476Y-88050666D01*
X155568095Y-88145904D01*
X155615714Y-86717333D02*
X156282380Y-86717333D01*
X155234761Y-86955428D02*
X155949047Y-87193523D01*
X155949047Y-86574476D01*
G04 #@! TO.C,C15*
X164477142Y-86922857D02*
X164524761Y-86970476D01*
X164572380Y-87113333D01*
X164572380Y-87208571D01*
X164524761Y-87351428D01*
X164429523Y-87446666D01*
X164334285Y-87494285D01*
X164143809Y-87541904D01*
X164000952Y-87541904D01*
X163810476Y-87494285D01*
X163715238Y-87446666D01*
X163620000Y-87351428D01*
X163572380Y-87208571D01*
X163572380Y-87113333D01*
X163620000Y-86970476D01*
X163667619Y-86922857D01*
X164572380Y-85970476D02*
X164572380Y-86541904D01*
X164572380Y-86256190D02*
X163572380Y-86256190D01*
X163715238Y-86351428D01*
X163810476Y-86446666D01*
X163858095Y-86541904D01*
X163572380Y-85065714D02*
X163572380Y-85541904D01*
X164048571Y-85589523D01*
X164000952Y-85541904D01*
X163953333Y-85446666D01*
X163953333Y-85208571D01*
X164000952Y-85113333D01*
X164048571Y-85065714D01*
X164143809Y-85018095D01*
X164381904Y-85018095D01*
X164477142Y-85065714D01*
X164524761Y-85113333D01*
X164572380Y-85208571D01*
X164572380Y-85446666D01*
X164524761Y-85541904D01*
X164477142Y-85589523D01*
G04 #@! TO.C,C16*
X155703142Y-85986857D02*
X155750761Y-86034476D01*
X155798380Y-86177333D01*
X155798380Y-86272571D01*
X155750761Y-86415428D01*
X155655523Y-86510666D01*
X155560285Y-86558285D01*
X155369809Y-86605904D01*
X155226952Y-86605904D01*
X155036476Y-86558285D01*
X154941238Y-86510666D01*
X154846000Y-86415428D01*
X154798380Y-86272571D01*
X154798380Y-86177333D01*
X154846000Y-86034476D01*
X154893619Y-85986857D01*
X155798380Y-85034476D02*
X155798380Y-85605904D01*
X155798380Y-85320190D02*
X154798380Y-85320190D01*
X154941238Y-85415428D01*
X155036476Y-85510666D01*
X155084095Y-85605904D01*
X154798380Y-84177333D02*
X154798380Y-84367809D01*
X154846000Y-84463047D01*
X154893619Y-84510666D01*
X155036476Y-84605904D01*
X155226952Y-84653523D01*
X155607904Y-84653523D01*
X155703142Y-84605904D01*
X155750761Y-84558285D01*
X155798380Y-84463047D01*
X155798380Y-84272571D01*
X155750761Y-84177333D01*
X155703142Y-84129714D01*
X155607904Y-84082095D01*
X155369809Y-84082095D01*
X155274571Y-84129714D01*
X155226952Y-84177333D01*
X155179333Y-84272571D01*
X155179333Y-84463047D01*
X155226952Y-84558285D01*
X155274571Y-84605904D01*
X155369809Y-84653523D01*
G04 #@! TO.C,C17*
X142867142Y-94097142D02*
X142819523Y-94144761D01*
X142676666Y-94192380D01*
X142581428Y-94192380D01*
X142438571Y-94144761D01*
X142343333Y-94049523D01*
X142295714Y-93954285D01*
X142248095Y-93763809D01*
X142248095Y-93620952D01*
X142295714Y-93430476D01*
X142343333Y-93335238D01*
X142438571Y-93240000D01*
X142581428Y-93192380D01*
X142676666Y-93192380D01*
X142819523Y-93240000D01*
X142867142Y-93287619D01*
X143819523Y-94192380D02*
X143248095Y-94192380D01*
X143533809Y-94192380D02*
X143533809Y-93192380D01*
X143438571Y-93335238D01*
X143343333Y-93430476D01*
X143248095Y-93478095D01*
X144152857Y-93192380D02*
X144819523Y-93192380D01*
X144390952Y-94192380D01*
G04 #@! TO.C,C18*
X143485142Y-99448857D02*
X143532761Y-99496476D01*
X143580380Y-99639333D01*
X143580380Y-99734571D01*
X143532761Y-99877428D01*
X143437523Y-99972666D01*
X143342285Y-100020285D01*
X143151809Y-100067904D01*
X143008952Y-100067904D01*
X142818476Y-100020285D01*
X142723238Y-99972666D01*
X142628000Y-99877428D01*
X142580380Y-99734571D01*
X142580380Y-99639333D01*
X142628000Y-99496476D01*
X142675619Y-99448857D01*
X143580380Y-98496476D02*
X143580380Y-99067904D01*
X143580380Y-98782190D02*
X142580380Y-98782190D01*
X142723238Y-98877428D01*
X142818476Y-98972666D01*
X142866095Y-99067904D01*
X143008952Y-97925047D02*
X142961333Y-98020285D01*
X142913714Y-98067904D01*
X142818476Y-98115523D01*
X142770857Y-98115523D01*
X142675619Y-98067904D01*
X142628000Y-98020285D01*
X142580380Y-97925047D01*
X142580380Y-97734571D01*
X142628000Y-97639333D01*
X142675619Y-97591714D01*
X142770857Y-97544095D01*
X142818476Y-97544095D01*
X142913714Y-97591714D01*
X142961333Y-97639333D01*
X143008952Y-97734571D01*
X143008952Y-97925047D01*
X143056571Y-98020285D01*
X143104190Y-98067904D01*
X143199428Y-98115523D01*
X143389904Y-98115523D01*
X143485142Y-98067904D01*
X143532761Y-98020285D01*
X143580380Y-97925047D01*
X143580380Y-97734571D01*
X143532761Y-97639333D01*
X143485142Y-97591714D01*
X143389904Y-97544095D01*
X143199428Y-97544095D01*
X143104190Y-97591714D01*
X143056571Y-97639333D01*
X143008952Y-97734571D01*
G04 #@! TO.C,D3*
X159301904Y-130192380D02*
X159301904Y-129192380D01*
X159540000Y-129192380D01*
X159682857Y-129240000D01*
X159778095Y-129335238D01*
X159825714Y-129430476D01*
X159873333Y-129620952D01*
X159873333Y-129763809D01*
X159825714Y-129954285D01*
X159778095Y-130049523D01*
X159682857Y-130144761D01*
X159540000Y-130192380D01*
X159301904Y-130192380D01*
X160206666Y-129192380D02*
X160825714Y-129192380D01*
X160492380Y-129573333D01*
X160635238Y-129573333D01*
X160730476Y-129620952D01*
X160778095Y-129668571D01*
X160825714Y-129763809D01*
X160825714Y-130001904D01*
X160778095Y-130097142D01*
X160730476Y-130144761D01*
X160635238Y-130192380D01*
X160349523Y-130192380D01*
X160254285Y-130144761D01*
X160206666Y-130097142D01*
G04 #@! TO.C,D4*
X168933904Y-121142380D02*
X168933904Y-120142380D01*
X169172000Y-120142380D01*
X169314857Y-120190000D01*
X169410095Y-120285238D01*
X169457714Y-120380476D01*
X169505333Y-120570952D01*
X169505333Y-120713809D01*
X169457714Y-120904285D01*
X169410095Y-120999523D01*
X169314857Y-121094761D01*
X169172000Y-121142380D01*
X168933904Y-121142380D01*
X170362476Y-120475714D02*
X170362476Y-121142380D01*
X170124380Y-120094761D02*
X169886285Y-120809047D01*
X170505333Y-120809047D01*
G04 #@! TO.C,D5*
X165885904Y-114062380D02*
X165885904Y-113062380D01*
X166124000Y-113062380D01*
X166266857Y-113110000D01*
X166362095Y-113205238D01*
X166409714Y-113300476D01*
X166457333Y-113490952D01*
X166457333Y-113633809D01*
X166409714Y-113824285D01*
X166362095Y-113919523D01*
X166266857Y-114014761D01*
X166124000Y-114062380D01*
X165885904Y-114062380D01*
X167362095Y-113062380D02*
X166885904Y-113062380D01*
X166838285Y-113538571D01*
X166885904Y-113490952D01*
X166981142Y-113443333D01*
X167219238Y-113443333D01*
X167314476Y-113490952D01*
X167362095Y-113538571D01*
X167409714Y-113633809D01*
X167409714Y-113871904D01*
X167362095Y-113967142D01*
X167314476Y-114014761D01*
X167219238Y-114062380D01*
X166981142Y-114062380D01*
X166885904Y-114014761D01*
X166838285Y-113967142D01*
G04 #@! TO.C,D6*
X165885904Y-111522380D02*
X165885904Y-110522380D01*
X166124000Y-110522380D01*
X166266857Y-110570000D01*
X166362095Y-110665238D01*
X166409714Y-110760476D01*
X166457333Y-110950952D01*
X166457333Y-111093809D01*
X166409714Y-111284285D01*
X166362095Y-111379523D01*
X166266857Y-111474761D01*
X166124000Y-111522380D01*
X165885904Y-111522380D01*
X167314476Y-110522380D02*
X167124000Y-110522380D01*
X167028761Y-110570000D01*
X166981142Y-110617619D01*
X166885904Y-110760476D01*
X166838285Y-110950952D01*
X166838285Y-111331904D01*
X166885904Y-111427142D01*
X166933523Y-111474761D01*
X167028761Y-111522380D01*
X167219238Y-111522380D01*
X167314476Y-111474761D01*
X167362095Y-111427142D01*
X167409714Y-111331904D01*
X167409714Y-111093809D01*
X167362095Y-110998571D01*
X167314476Y-110950952D01*
X167219238Y-110903333D01*
X167028761Y-110903333D01*
X166933523Y-110950952D01*
X166885904Y-110998571D01*
X166838285Y-111093809D01*
G04 #@! TO.C,D7*
X165885904Y-108982380D02*
X165885904Y-107982380D01*
X166124000Y-107982380D01*
X166266857Y-108030000D01*
X166362095Y-108125238D01*
X166409714Y-108220476D01*
X166457333Y-108410952D01*
X166457333Y-108553809D01*
X166409714Y-108744285D01*
X166362095Y-108839523D01*
X166266857Y-108934761D01*
X166124000Y-108982380D01*
X165885904Y-108982380D01*
X166790666Y-107982380D02*
X167457333Y-107982380D01*
X167028761Y-108982380D01*
G04 #@! TO.C,D8*
X165885904Y-106696380D02*
X165885904Y-105696380D01*
X166124000Y-105696380D01*
X166266857Y-105744000D01*
X166362095Y-105839238D01*
X166409714Y-105934476D01*
X166457333Y-106124952D01*
X166457333Y-106267809D01*
X166409714Y-106458285D01*
X166362095Y-106553523D01*
X166266857Y-106648761D01*
X166124000Y-106696380D01*
X165885904Y-106696380D01*
X167028761Y-106124952D02*
X166933523Y-106077333D01*
X166885904Y-106029714D01*
X166838285Y-105934476D01*
X166838285Y-105886857D01*
X166885904Y-105791619D01*
X166933523Y-105744000D01*
X167028761Y-105696380D01*
X167219238Y-105696380D01*
X167314476Y-105744000D01*
X167362095Y-105791619D01*
X167409714Y-105886857D01*
X167409714Y-105934476D01*
X167362095Y-106029714D01*
X167314476Y-106077333D01*
X167219238Y-106124952D01*
X167028761Y-106124952D01*
X166933523Y-106172571D01*
X166885904Y-106220190D01*
X166838285Y-106315428D01*
X166838285Y-106505904D01*
X166885904Y-106601142D01*
X166933523Y-106648761D01*
X167028761Y-106696380D01*
X167219238Y-106696380D01*
X167314476Y-106648761D01*
X167362095Y-106601142D01*
X167409714Y-106505904D01*
X167409714Y-106315428D01*
X167362095Y-106220190D01*
X167314476Y-106172571D01*
X167219238Y-106124952D01*
G04 #@! TO.C,D11*
X135144380Y-86558285D02*
X134144380Y-86558285D01*
X134144380Y-86320190D01*
X134192000Y-86177333D01*
X134287238Y-86082095D01*
X134382476Y-86034476D01*
X134572952Y-85986857D01*
X134715809Y-85986857D01*
X134906285Y-86034476D01*
X135001523Y-86082095D01*
X135096761Y-86177333D01*
X135144380Y-86320190D01*
X135144380Y-86558285D01*
X135144380Y-85034476D02*
X135144380Y-85605904D01*
X135144380Y-85320190D02*
X134144380Y-85320190D01*
X134287238Y-85415428D01*
X134382476Y-85510666D01*
X134430095Y-85605904D01*
X135144380Y-84082095D02*
X135144380Y-84653523D01*
X135144380Y-84367809D02*
X134144380Y-84367809D01*
X134287238Y-84463047D01*
X134382476Y-84558285D01*
X134430095Y-84653523D01*
G04 #@! TO.C,D12*
X157027714Y-85502380D02*
X157027714Y-84502380D01*
X157265809Y-84502380D01*
X157408666Y-84550000D01*
X157503904Y-84645238D01*
X157551523Y-84740476D01*
X157599142Y-84930952D01*
X157599142Y-85073809D01*
X157551523Y-85264285D01*
X157503904Y-85359523D01*
X157408666Y-85454761D01*
X157265809Y-85502380D01*
X157027714Y-85502380D01*
X158551523Y-85502380D02*
X157980095Y-85502380D01*
X158265809Y-85502380D02*
X158265809Y-84502380D01*
X158170571Y-84645238D01*
X158075333Y-84740476D01*
X157980095Y-84788095D01*
X158932476Y-84597619D02*
X158980095Y-84550000D01*
X159075333Y-84502380D01*
X159313428Y-84502380D01*
X159408666Y-84550000D01*
X159456285Y-84597619D01*
X159503904Y-84692857D01*
X159503904Y-84788095D01*
X159456285Y-84930952D01*
X158884857Y-85502380D01*
X159503904Y-85502380D01*
G04 #@! TO.C,D13*
X167766380Y-83002285D02*
X166766380Y-83002285D01*
X166766380Y-82764190D01*
X166814000Y-82621333D01*
X166909238Y-82526095D01*
X167004476Y-82478476D01*
X167194952Y-82430857D01*
X167337809Y-82430857D01*
X167528285Y-82478476D01*
X167623523Y-82526095D01*
X167718761Y-82621333D01*
X167766380Y-82764190D01*
X167766380Y-83002285D01*
X167766380Y-81478476D02*
X167766380Y-82049904D01*
X167766380Y-81764190D02*
X166766380Y-81764190D01*
X166909238Y-81859428D01*
X167004476Y-81954666D01*
X167052095Y-82049904D01*
X166766380Y-81145142D02*
X166766380Y-80526095D01*
X167147333Y-80859428D01*
X167147333Y-80716571D01*
X167194952Y-80621333D01*
X167242571Y-80573714D01*
X167337809Y-80526095D01*
X167575904Y-80526095D01*
X167671142Y-80573714D01*
X167718761Y-80621333D01*
X167766380Y-80716571D01*
X167766380Y-81002285D01*
X167718761Y-81097523D01*
X167671142Y-81145142D01*
G04 #@! TO.C,L1*
X137598380Y-89574666D02*
X137598380Y-90050857D01*
X136598380Y-90050857D01*
X137598380Y-88717523D02*
X137598380Y-89288952D01*
X137598380Y-89003238D02*
X136598380Y-89003238D01*
X136741238Y-89098476D01*
X136836476Y-89193714D01*
X136884095Y-89288952D01*
G04 #@! TO.C,L2*
X162758380Y-96178666D02*
X162758380Y-96654857D01*
X161758380Y-96654857D01*
X161853619Y-95892952D02*
X161806000Y-95845333D01*
X161758380Y-95750095D01*
X161758380Y-95512000D01*
X161806000Y-95416761D01*
X161853619Y-95369142D01*
X161948857Y-95321523D01*
X162044095Y-95321523D01*
X162186952Y-95369142D01*
X162758380Y-95940571D01*
X162758380Y-95321523D01*
G04 #@! TO.C,P1*
X132357904Y-97182380D02*
X132357904Y-96182380D01*
X132738857Y-96182380D01*
X132834095Y-96230000D01*
X132881714Y-96277619D01*
X132929333Y-96372857D01*
X132929333Y-96515714D01*
X132881714Y-96610952D01*
X132834095Y-96658571D01*
X132738857Y-96706190D01*
X132357904Y-96706190D01*
X133881714Y-97182380D02*
X133310285Y-97182380D01*
X133596000Y-97182380D02*
X133596000Y-96182380D01*
X133500761Y-96325238D01*
X133405523Y-96420476D01*
X133310285Y-96468095D01*
G04 #@! TO.C,P2*
X137945904Y-93626380D02*
X137945904Y-92626380D01*
X138326857Y-92626380D01*
X138422095Y-92674000D01*
X138469714Y-92721619D01*
X138517333Y-92816857D01*
X138517333Y-92959714D01*
X138469714Y-93054952D01*
X138422095Y-93102571D01*
X138326857Y-93150190D01*
X137945904Y-93150190D01*
X138898285Y-92721619D02*
X138945904Y-92674000D01*
X139041142Y-92626380D01*
X139279238Y-92626380D01*
X139374476Y-92674000D01*
X139422095Y-92721619D01*
X139469714Y-92816857D01*
X139469714Y-92912095D01*
X139422095Y-93054952D01*
X138850666Y-93626380D01*
X139469714Y-93626380D01*
G04 #@! TO.C,P3*
X169949904Y-107342380D02*
X169949904Y-106342380D01*
X170330857Y-106342380D01*
X170426095Y-106390000D01*
X170473714Y-106437619D01*
X170521333Y-106532857D01*
X170521333Y-106675714D01*
X170473714Y-106770952D01*
X170426095Y-106818571D01*
X170330857Y-106866190D01*
X169949904Y-106866190D01*
X170854666Y-106342380D02*
X171473714Y-106342380D01*
X171140380Y-106723333D01*
X171283238Y-106723333D01*
X171378476Y-106770952D01*
X171426095Y-106818571D01*
X171473714Y-106913809D01*
X171473714Y-107151904D01*
X171426095Y-107247142D01*
X171378476Y-107294761D01*
X171283238Y-107342380D01*
X170997523Y-107342380D01*
X170902285Y-107294761D01*
X170854666Y-107247142D01*
G04 #@! TO.C,P5*
X138961904Y-122732380D02*
X138961904Y-121732380D01*
X139342857Y-121732380D01*
X139438095Y-121780000D01*
X139485714Y-121827619D01*
X139533333Y-121922857D01*
X139533333Y-122065714D01*
X139485714Y-122160952D01*
X139438095Y-122208571D01*
X139342857Y-122256190D01*
X138961904Y-122256190D01*
X140438095Y-121732380D02*
X139961904Y-121732380D01*
X139914285Y-122208571D01*
X139961904Y-122160952D01*
X140057142Y-122113333D01*
X140295238Y-122113333D01*
X140390476Y-122160952D01*
X140438095Y-122208571D01*
X140485714Y-122303809D01*
X140485714Y-122541904D01*
X140438095Y-122637142D01*
X140390476Y-122684761D01*
X140295238Y-122732380D01*
X140057142Y-122732380D01*
X139961904Y-122684761D01*
X139914285Y-122637142D01*
G04 #@! TO.C,P7*
X140616380Y-103354095D02*
X139616380Y-103354095D01*
X139616380Y-102973142D01*
X139664000Y-102877904D01*
X139711619Y-102830285D01*
X139806857Y-102782666D01*
X139949714Y-102782666D01*
X140044952Y-102830285D01*
X140092571Y-102877904D01*
X140140190Y-102973142D01*
X140140190Y-103354095D01*
X139616380Y-102449333D02*
X139616380Y-101782666D01*
X140616380Y-102211238D01*
G04 #@! TO.C,P8*
X157888380Y-104370095D02*
X156888380Y-104370095D01*
X156888380Y-103989142D01*
X156936000Y-103893904D01*
X156983619Y-103846285D01*
X157078857Y-103798666D01*
X157221714Y-103798666D01*
X157316952Y-103846285D01*
X157364571Y-103893904D01*
X157412190Y-103989142D01*
X157412190Y-104370095D01*
X157316952Y-103227238D02*
X157269333Y-103322476D01*
X157221714Y-103370095D01*
X157126476Y-103417714D01*
X157078857Y-103417714D01*
X156983619Y-103370095D01*
X156936000Y-103322476D01*
X156888380Y-103227238D01*
X156888380Y-103036761D01*
X156936000Y-102941523D01*
X156983619Y-102893904D01*
X157078857Y-102846285D01*
X157126476Y-102846285D01*
X157221714Y-102893904D01*
X157269333Y-102941523D01*
X157316952Y-103036761D01*
X157316952Y-103227238D01*
X157364571Y-103322476D01*
X157412190Y-103370095D01*
X157507428Y-103417714D01*
X157697904Y-103417714D01*
X157793142Y-103370095D01*
X157840761Y-103322476D01*
X157888380Y-103227238D01*
X157888380Y-103036761D01*
X157840761Y-102941523D01*
X157793142Y-102893904D01*
X157697904Y-102846285D01*
X157507428Y-102846285D01*
X157412190Y-102893904D01*
X157364571Y-102941523D01*
X157316952Y-103036761D01*
G04 #@! TO.C,R1*
X164679333Y-120976380D02*
X164346000Y-120500190D01*
X164107904Y-120976380D02*
X164107904Y-119976380D01*
X164488857Y-119976380D01*
X164584095Y-120024000D01*
X164631714Y-120071619D01*
X164679333Y-120166857D01*
X164679333Y-120309714D01*
X164631714Y-120404952D01*
X164584095Y-120452571D01*
X164488857Y-120500190D01*
X164107904Y-120500190D01*
X165631714Y-120976380D02*
X165060285Y-120976380D01*
X165346000Y-120976380D02*
X165346000Y-119976380D01*
X165250761Y-120119238D01*
X165155523Y-120214476D01*
X165060285Y-120262095D01*
G04 #@! TO.C,R2*
X166711333Y-116912380D02*
X166378000Y-116436190D01*
X166139904Y-116912380D02*
X166139904Y-115912380D01*
X166520857Y-115912380D01*
X166616095Y-115960000D01*
X166663714Y-116007619D01*
X166711333Y-116102857D01*
X166711333Y-116245714D01*
X166663714Y-116340952D01*
X166616095Y-116388571D01*
X166520857Y-116436190D01*
X166139904Y-116436190D01*
X167092285Y-116007619D02*
X167139904Y-115960000D01*
X167235142Y-115912380D01*
X167473238Y-115912380D01*
X167568476Y-115960000D01*
X167616095Y-116007619D01*
X167663714Y-116102857D01*
X167663714Y-116198095D01*
X167616095Y-116340952D01*
X167044666Y-116912380D01*
X167663714Y-116912380D01*
G04 #@! TO.C,R3*
X164679333Y-125040380D02*
X164346000Y-124564190D01*
X164107904Y-125040380D02*
X164107904Y-124040380D01*
X164488857Y-124040380D01*
X164584095Y-124088000D01*
X164631714Y-124135619D01*
X164679333Y-124230857D01*
X164679333Y-124373714D01*
X164631714Y-124468952D01*
X164584095Y-124516571D01*
X164488857Y-124564190D01*
X164107904Y-124564190D01*
X165012666Y-124040380D02*
X165631714Y-124040380D01*
X165298380Y-124421333D01*
X165441238Y-124421333D01*
X165536476Y-124468952D01*
X165584095Y-124516571D01*
X165631714Y-124611809D01*
X165631714Y-124849904D01*
X165584095Y-124945142D01*
X165536476Y-124992761D01*
X165441238Y-125040380D01*
X165155523Y-125040380D01*
X165060285Y-124992761D01*
X165012666Y-124945142D01*
G04 #@! TO.C,R4*
X166696380Y-127166666D02*
X166220190Y-127500000D01*
X166696380Y-127738095D02*
X165696380Y-127738095D01*
X165696380Y-127357142D01*
X165744000Y-127261904D01*
X165791619Y-127214285D01*
X165886857Y-127166666D01*
X166029714Y-127166666D01*
X166124952Y-127214285D01*
X166172571Y-127261904D01*
X166220190Y-127357142D01*
X166220190Y-127738095D01*
X166029714Y-126309523D02*
X166696380Y-126309523D01*
X165648761Y-126547619D02*
X166363047Y-126785714D01*
X166363047Y-126166666D01*
G04 #@! TO.C,R5*
X164679333Y-123008380D02*
X164346000Y-122532190D01*
X164107904Y-123008380D02*
X164107904Y-122008380D01*
X164488857Y-122008380D01*
X164584095Y-122056000D01*
X164631714Y-122103619D01*
X164679333Y-122198857D01*
X164679333Y-122341714D01*
X164631714Y-122436952D01*
X164584095Y-122484571D01*
X164488857Y-122532190D01*
X164107904Y-122532190D01*
X165584095Y-122008380D02*
X165107904Y-122008380D01*
X165060285Y-122484571D01*
X165107904Y-122436952D01*
X165203142Y-122389333D01*
X165441238Y-122389333D01*
X165536476Y-122436952D01*
X165584095Y-122484571D01*
X165631714Y-122579809D01*
X165631714Y-122817904D01*
X165584095Y-122913142D01*
X165536476Y-122960761D01*
X165441238Y-123008380D01*
X165203142Y-123008380D01*
X165107904Y-122960761D01*
X165060285Y-122913142D01*
G04 #@! TO.C,R6*
X166711333Y-122244380D02*
X166378000Y-121768190D01*
X166139904Y-122244380D02*
X166139904Y-121244380D01*
X166520857Y-121244380D01*
X166616095Y-121292000D01*
X166663714Y-121339619D01*
X166711333Y-121434857D01*
X166711333Y-121577714D01*
X166663714Y-121672952D01*
X166616095Y-121720571D01*
X166520857Y-121768190D01*
X166139904Y-121768190D01*
X167568476Y-121244380D02*
X167378000Y-121244380D01*
X167282761Y-121292000D01*
X167235142Y-121339619D01*
X167139904Y-121482476D01*
X167092285Y-121672952D01*
X167092285Y-122053904D01*
X167139904Y-122149142D01*
X167187523Y-122196761D01*
X167282761Y-122244380D01*
X167473238Y-122244380D01*
X167568476Y-122196761D01*
X167616095Y-122149142D01*
X167663714Y-122053904D01*
X167663714Y-121815809D01*
X167616095Y-121720571D01*
X167568476Y-121672952D01*
X167473238Y-121625333D01*
X167282761Y-121625333D01*
X167187523Y-121672952D01*
X167139904Y-121720571D01*
X167092285Y-121815809D01*
G04 #@! TO.C,R7*
X164679333Y-126818380D02*
X164346000Y-126342190D01*
X164107904Y-126818380D02*
X164107904Y-125818380D01*
X164488857Y-125818380D01*
X164584095Y-125866000D01*
X164631714Y-125913619D01*
X164679333Y-126008857D01*
X164679333Y-126151714D01*
X164631714Y-126246952D01*
X164584095Y-126294571D01*
X164488857Y-126342190D01*
X164107904Y-126342190D01*
X165012666Y-125818380D02*
X165679333Y-125818380D01*
X165250761Y-126818380D01*
G04 #@! TO.C,R8*
X152472380Y-127216666D02*
X151996190Y-127550000D01*
X152472380Y-127788095D02*
X151472380Y-127788095D01*
X151472380Y-127407142D01*
X151520000Y-127311904D01*
X151567619Y-127264285D01*
X151662857Y-127216666D01*
X151805714Y-127216666D01*
X151900952Y-127264285D01*
X151948571Y-127311904D01*
X151996190Y-127407142D01*
X151996190Y-127788095D01*
X151900952Y-126645238D02*
X151853333Y-126740476D01*
X151805714Y-126788095D01*
X151710476Y-126835714D01*
X151662857Y-126835714D01*
X151567619Y-126788095D01*
X151520000Y-126740476D01*
X151472380Y-126645238D01*
X151472380Y-126454761D01*
X151520000Y-126359523D01*
X151567619Y-126311904D01*
X151662857Y-126264285D01*
X151710476Y-126264285D01*
X151805714Y-126311904D01*
X151853333Y-126359523D01*
X151900952Y-126454761D01*
X151900952Y-126645238D01*
X151948571Y-126740476D01*
X151996190Y-126788095D01*
X152091428Y-126835714D01*
X152281904Y-126835714D01*
X152377142Y-126788095D01*
X152424761Y-126740476D01*
X152472380Y-126645238D01*
X152472380Y-126454761D01*
X152424761Y-126359523D01*
X152377142Y-126311904D01*
X152281904Y-126264285D01*
X152091428Y-126264285D01*
X151996190Y-126311904D01*
X151948571Y-126359523D01*
X151900952Y-126454761D01*
G04 #@! TO.C,R9*
X154502380Y-127216666D02*
X154026190Y-127550000D01*
X154502380Y-127788095D02*
X153502380Y-127788095D01*
X153502380Y-127407142D01*
X153550000Y-127311904D01*
X153597619Y-127264285D01*
X153692857Y-127216666D01*
X153835714Y-127216666D01*
X153930952Y-127264285D01*
X153978571Y-127311904D01*
X154026190Y-127407142D01*
X154026190Y-127788095D01*
X154502380Y-126740476D02*
X154502380Y-126550000D01*
X154454761Y-126454761D01*
X154407142Y-126407142D01*
X154264285Y-126311904D01*
X154073809Y-126264285D01*
X153692857Y-126264285D01*
X153597619Y-126311904D01*
X153550000Y-126359523D01*
X153502380Y-126454761D01*
X153502380Y-126645238D01*
X153550000Y-126740476D01*
X153597619Y-126788095D01*
X153692857Y-126835714D01*
X153930952Y-126835714D01*
X154026190Y-126788095D01*
X154073809Y-126740476D01*
X154121428Y-126645238D01*
X154121428Y-126454761D01*
X154073809Y-126359523D01*
X154026190Y-126311904D01*
X153930952Y-126264285D01*
G04 #@! TO.C,R10*
X156502380Y-127692857D02*
X156026190Y-128026190D01*
X156502380Y-128264285D02*
X155502380Y-128264285D01*
X155502380Y-127883333D01*
X155550000Y-127788095D01*
X155597619Y-127740476D01*
X155692857Y-127692857D01*
X155835714Y-127692857D01*
X155930952Y-127740476D01*
X155978571Y-127788095D01*
X156026190Y-127883333D01*
X156026190Y-128264285D01*
X156502380Y-126740476D02*
X156502380Y-127311904D01*
X156502380Y-127026190D02*
X155502380Y-127026190D01*
X155645238Y-127121428D01*
X155740476Y-127216666D01*
X155788095Y-127311904D01*
X155502380Y-126121428D02*
X155502380Y-126026190D01*
X155550000Y-125930952D01*
X155597619Y-125883333D01*
X155692857Y-125835714D01*
X155883333Y-125788095D01*
X156121428Y-125788095D01*
X156311904Y-125835714D01*
X156407142Y-125883333D01*
X156454761Y-125930952D01*
X156502380Y-126026190D01*
X156502380Y-126121428D01*
X156454761Y-126216666D01*
X156407142Y-126264285D01*
X156311904Y-126311904D01*
X156121428Y-126359523D01*
X155883333Y-126359523D01*
X155692857Y-126311904D01*
X155597619Y-126264285D01*
X155550000Y-126216666D01*
X155502380Y-126121428D01*
G04 #@! TO.C,R11*
X161697142Y-114892380D02*
X161363809Y-114416190D01*
X161125714Y-114892380D02*
X161125714Y-113892380D01*
X161506666Y-113892380D01*
X161601904Y-113940000D01*
X161649523Y-113987619D01*
X161697142Y-114082857D01*
X161697142Y-114225714D01*
X161649523Y-114320952D01*
X161601904Y-114368571D01*
X161506666Y-114416190D01*
X161125714Y-114416190D01*
X162649523Y-114892380D02*
X162078095Y-114892380D01*
X162363809Y-114892380D02*
X162363809Y-113892380D01*
X162268571Y-114035238D01*
X162173333Y-114130476D01*
X162078095Y-114178095D01*
X163601904Y-114892380D02*
X163030476Y-114892380D01*
X163316190Y-114892380D02*
X163316190Y-113892380D01*
X163220952Y-114035238D01*
X163125714Y-114130476D01*
X163030476Y-114178095D01*
G04 #@! TO.C,R12*
X161663142Y-113100380D02*
X161329809Y-112624190D01*
X161091714Y-113100380D02*
X161091714Y-112100380D01*
X161472666Y-112100380D01*
X161567904Y-112148000D01*
X161615523Y-112195619D01*
X161663142Y-112290857D01*
X161663142Y-112433714D01*
X161615523Y-112528952D01*
X161567904Y-112576571D01*
X161472666Y-112624190D01*
X161091714Y-112624190D01*
X162615523Y-113100380D02*
X162044095Y-113100380D01*
X162329809Y-113100380D02*
X162329809Y-112100380D01*
X162234571Y-112243238D01*
X162139333Y-112338476D01*
X162044095Y-112386095D01*
X162996476Y-112195619D02*
X163044095Y-112148000D01*
X163139333Y-112100380D01*
X163377428Y-112100380D01*
X163472666Y-112148000D01*
X163520285Y-112195619D01*
X163567904Y-112290857D01*
X163567904Y-112386095D01*
X163520285Y-112528952D01*
X162948857Y-113100380D01*
X163567904Y-113100380D01*
G04 #@! TO.C,R13*
X166235142Y-114880380D02*
X165901809Y-114404190D01*
X165663714Y-114880380D02*
X165663714Y-113880380D01*
X166044666Y-113880380D01*
X166139904Y-113928000D01*
X166187523Y-113975619D01*
X166235142Y-114070857D01*
X166235142Y-114213714D01*
X166187523Y-114308952D01*
X166139904Y-114356571D01*
X166044666Y-114404190D01*
X165663714Y-114404190D01*
X167187523Y-114880380D02*
X166616095Y-114880380D01*
X166901809Y-114880380D02*
X166901809Y-113880380D01*
X166806571Y-114023238D01*
X166711333Y-114118476D01*
X166616095Y-114166095D01*
X167520857Y-113880380D02*
X168139904Y-113880380D01*
X167806571Y-114261333D01*
X167949428Y-114261333D01*
X168044666Y-114308952D01*
X168092285Y-114356571D01*
X168139904Y-114451809D01*
X168139904Y-114689904D01*
X168092285Y-114785142D01*
X168044666Y-114832761D01*
X167949428Y-114880380D01*
X167663714Y-114880380D01*
X167568476Y-114832761D01*
X167520857Y-114785142D01*
G04 #@! TO.C,R14*
X161663142Y-110814380D02*
X161329809Y-110338190D01*
X161091714Y-110814380D02*
X161091714Y-109814380D01*
X161472666Y-109814380D01*
X161567904Y-109862000D01*
X161615523Y-109909619D01*
X161663142Y-110004857D01*
X161663142Y-110147714D01*
X161615523Y-110242952D01*
X161567904Y-110290571D01*
X161472666Y-110338190D01*
X161091714Y-110338190D01*
X162615523Y-110814380D02*
X162044095Y-110814380D01*
X162329809Y-110814380D02*
X162329809Y-109814380D01*
X162234571Y-109957238D01*
X162139333Y-110052476D01*
X162044095Y-110100095D01*
X163472666Y-110147714D02*
X163472666Y-110814380D01*
X163234571Y-109766761D02*
X162996476Y-110481047D01*
X163615523Y-110481047D01*
G04 #@! TO.C,R15*
X166235142Y-112848380D02*
X165901809Y-112372190D01*
X165663714Y-112848380D02*
X165663714Y-111848380D01*
X166044666Y-111848380D01*
X166139904Y-111896000D01*
X166187523Y-111943619D01*
X166235142Y-112038857D01*
X166235142Y-112181714D01*
X166187523Y-112276952D01*
X166139904Y-112324571D01*
X166044666Y-112372190D01*
X165663714Y-112372190D01*
X167187523Y-112848380D02*
X166616095Y-112848380D01*
X166901809Y-112848380D02*
X166901809Y-111848380D01*
X166806571Y-111991238D01*
X166711333Y-112086476D01*
X166616095Y-112134095D01*
X168092285Y-111848380D02*
X167616095Y-111848380D01*
X167568476Y-112324571D01*
X167616095Y-112276952D01*
X167711333Y-112229333D01*
X167949428Y-112229333D01*
X168044666Y-112276952D01*
X168092285Y-112324571D01*
X168139904Y-112419809D01*
X168139904Y-112657904D01*
X168092285Y-112753142D01*
X168044666Y-112800761D01*
X167949428Y-112848380D01*
X167711333Y-112848380D01*
X167616095Y-112800761D01*
X167568476Y-112753142D01*
G04 #@! TO.C,R16*
X161663142Y-108782380D02*
X161329809Y-108306190D01*
X161091714Y-108782380D02*
X161091714Y-107782380D01*
X161472666Y-107782380D01*
X161567904Y-107830000D01*
X161615523Y-107877619D01*
X161663142Y-107972857D01*
X161663142Y-108115714D01*
X161615523Y-108210952D01*
X161567904Y-108258571D01*
X161472666Y-108306190D01*
X161091714Y-108306190D01*
X162615523Y-108782380D02*
X162044095Y-108782380D01*
X162329809Y-108782380D02*
X162329809Y-107782380D01*
X162234571Y-107925238D01*
X162139333Y-108020476D01*
X162044095Y-108068095D01*
X163472666Y-107782380D02*
X163282190Y-107782380D01*
X163186952Y-107830000D01*
X163139333Y-107877619D01*
X163044095Y-108020476D01*
X162996476Y-108210952D01*
X162996476Y-108591904D01*
X163044095Y-108687142D01*
X163091714Y-108734761D01*
X163186952Y-108782380D01*
X163377428Y-108782380D01*
X163472666Y-108734761D01*
X163520285Y-108687142D01*
X163567904Y-108591904D01*
X163567904Y-108353809D01*
X163520285Y-108258571D01*
X163472666Y-108210952D01*
X163377428Y-108163333D01*
X163186952Y-108163333D01*
X163091714Y-108210952D01*
X163044095Y-108258571D01*
X162996476Y-108353809D01*
G04 #@! TO.C,R17*
X134946380Y-96654857D02*
X134470190Y-96988190D01*
X134946380Y-97226285D02*
X133946380Y-97226285D01*
X133946380Y-96845333D01*
X133994000Y-96750095D01*
X134041619Y-96702476D01*
X134136857Y-96654857D01*
X134279714Y-96654857D01*
X134374952Y-96702476D01*
X134422571Y-96750095D01*
X134470190Y-96845333D01*
X134470190Y-97226285D01*
X134946380Y-95702476D02*
X134946380Y-96273904D01*
X134946380Y-95988190D02*
X133946380Y-95988190D01*
X134089238Y-96083428D01*
X134184476Y-96178666D01*
X134232095Y-96273904D01*
X133946380Y-95369142D02*
X133946380Y-94702476D01*
X134946380Y-95131047D01*
G04 #@! TO.C,R18*
X152265142Y-105480380D02*
X151931809Y-105004190D01*
X151693714Y-105480380D02*
X151693714Y-104480380D01*
X152074666Y-104480380D01*
X152169904Y-104528000D01*
X152217523Y-104575619D01*
X152265142Y-104670857D01*
X152265142Y-104813714D01*
X152217523Y-104908952D01*
X152169904Y-104956571D01*
X152074666Y-105004190D01*
X151693714Y-105004190D01*
X153217523Y-105480380D02*
X152646095Y-105480380D01*
X152931809Y-105480380D02*
X152931809Y-104480380D01*
X152836571Y-104623238D01*
X152741333Y-104718476D01*
X152646095Y-104766095D01*
X153788952Y-104908952D02*
X153693714Y-104861333D01*
X153646095Y-104813714D01*
X153598476Y-104718476D01*
X153598476Y-104670857D01*
X153646095Y-104575619D01*
X153693714Y-104528000D01*
X153788952Y-104480380D01*
X153979428Y-104480380D01*
X154074666Y-104528000D01*
X154122285Y-104575619D01*
X154169904Y-104670857D01*
X154169904Y-104718476D01*
X154122285Y-104813714D01*
X154074666Y-104861333D01*
X153979428Y-104908952D01*
X153788952Y-104908952D01*
X153693714Y-104956571D01*
X153646095Y-105004190D01*
X153598476Y-105099428D01*
X153598476Y-105289904D01*
X153646095Y-105385142D01*
X153693714Y-105432761D01*
X153788952Y-105480380D01*
X153979428Y-105480380D01*
X154074666Y-105432761D01*
X154122285Y-105385142D01*
X154169904Y-105289904D01*
X154169904Y-105099428D01*
X154122285Y-105004190D01*
X154074666Y-104956571D01*
X153979428Y-104908952D01*
G04 #@! TO.C,R19*
X135152380Y-127542857D02*
X134676190Y-127876190D01*
X135152380Y-128114285D02*
X134152380Y-128114285D01*
X134152380Y-127733333D01*
X134200000Y-127638095D01*
X134247619Y-127590476D01*
X134342857Y-127542857D01*
X134485714Y-127542857D01*
X134580952Y-127590476D01*
X134628571Y-127638095D01*
X134676190Y-127733333D01*
X134676190Y-128114285D01*
X135152380Y-126590476D02*
X135152380Y-127161904D01*
X135152380Y-126876190D02*
X134152380Y-126876190D01*
X134295238Y-126971428D01*
X134390476Y-127066666D01*
X134438095Y-127161904D01*
X135152380Y-126114285D02*
X135152380Y-125923809D01*
X135104761Y-125828571D01*
X135057142Y-125780952D01*
X134914285Y-125685714D01*
X134723809Y-125638095D01*
X134342857Y-125638095D01*
X134247619Y-125685714D01*
X134200000Y-125733333D01*
X134152380Y-125828571D01*
X134152380Y-126019047D01*
X134200000Y-126114285D01*
X134247619Y-126161904D01*
X134342857Y-126209523D01*
X134580952Y-126209523D01*
X134676190Y-126161904D01*
X134723809Y-126114285D01*
X134771428Y-126019047D01*
X134771428Y-125828571D01*
X134723809Y-125733333D01*
X134676190Y-125685714D01*
X134580952Y-125638095D01*
G04 #@! TO.C,R20*
X154758380Y-107068857D02*
X154282190Y-107402190D01*
X154758380Y-107640285D02*
X153758380Y-107640285D01*
X153758380Y-107259333D01*
X153806000Y-107164095D01*
X153853619Y-107116476D01*
X153948857Y-107068857D01*
X154091714Y-107068857D01*
X154186952Y-107116476D01*
X154234571Y-107164095D01*
X154282190Y-107259333D01*
X154282190Y-107640285D01*
X153853619Y-106687904D02*
X153806000Y-106640285D01*
X153758380Y-106545047D01*
X153758380Y-106306952D01*
X153806000Y-106211714D01*
X153853619Y-106164095D01*
X153948857Y-106116476D01*
X154044095Y-106116476D01*
X154186952Y-106164095D01*
X154758380Y-106735523D01*
X154758380Y-106116476D01*
X153758380Y-105497428D02*
X153758380Y-105402190D01*
X153806000Y-105306952D01*
X153853619Y-105259333D01*
X153948857Y-105211714D01*
X154139333Y-105164095D01*
X154377428Y-105164095D01*
X154567904Y-105211714D01*
X154663142Y-105259333D01*
X154710761Y-105306952D01*
X154758380Y-105402190D01*
X154758380Y-105497428D01*
X154710761Y-105592666D01*
X154663142Y-105640285D01*
X154567904Y-105687904D01*
X154377428Y-105735523D01*
X154139333Y-105735523D01*
X153948857Y-105687904D01*
X153853619Y-105640285D01*
X153806000Y-105592666D01*
X153758380Y-105497428D01*
G04 #@! TO.C,R21*
X137992380Y-101988857D02*
X137516190Y-102322190D01*
X137992380Y-102560285D02*
X136992380Y-102560285D01*
X136992380Y-102179333D01*
X137040000Y-102084095D01*
X137087619Y-102036476D01*
X137182857Y-101988857D01*
X137325714Y-101988857D01*
X137420952Y-102036476D01*
X137468571Y-102084095D01*
X137516190Y-102179333D01*
X137516190Y-102560285D01*
X137087619Y-101607904D02*
X137040000Y-101560285D01*
X136992380Y-101465047D01*
X136992380Y-101226952D01*
X137040000Y-101131714D01*
X137087619Y-101084095D01*
X137182857Y-101036476D01*
X137278095Y-101036476D01*
X137420952Y-101084095D01*
X137992380Y-101655523D01*
X137992380Y-101036476D01*
X137992380Y-100084095D02*
X137992380Y-100655523D01*
X137992380Y-100369809D02*
X136992380Y-100369809D01*
X137135238Y-100465047D01*
X137230476Y-100560285D01*
X137278095Y-100655523D01*
G04 #@! TO.C,R22*
X143836380Y-107068857D02*
X143360190Y-107402190D01*
X143836380Y-107640285D02*
X142836380Y-107640285D01*
X142836380Y-107259333D01*
X142884000Y-107164095D01*
X142931619Y-107116476D01*
X143026857Y-107068857D01*
X143169714Y-107068857D01*
X143264952Y-107116476D01*
X143312571Y-107164095D01*
X143360190Y-107259333D01*
X143360190Y-107640285D01*
X142931619Y-106687904D02*
X142884000Y-106640285D01*
X142836380Y-106545047D01*
X142836380Y-106306952D01*
X142884000Y-106211714D01*
X142931619Y-106164095D01*
X143026857Y-106116476D01*
X143122095Y-106116476D01*
X143264952Y-106164095D01*
X143836380Y-106735523D01*
X143836380Y-106116476D01*
X142931619Y-105735523D02*
X142884000Y-105687904D01*
X142836380Y-105592666D01*
X142836380Y-105354571D01*
X142884000Y-105259333D01*
X142931619Y-105211714D01*
X143026857Y-105164095D01*
X143122095Y-105164095D01*
X143264952Y-105211714D01*
X143836380Y-105783142D01*
X143836380Y-105164095D01*
G04 #@! TO.C,R23*
X146122380Y-107068857D02*
X145646190Y-107402190D01*
X146122380Y-107640285D02*
X145122380Y-107640285D01*
X145122380Y-107259333D01*
X145170000Y-107164095D01*
X145217619Y-107116476D01*
X145312857Y-107068857D01*
X145455714Y-107068857D01*
X145550952Y-107116476D01*
X145598571Y-107164095D01*
X145646190Y-107259333D01*
X145646190Y-107640285D01*
X145217619Y-106687904D02*
X145170000Y-106640285D01*
X145122380Y-106545047D01*
X145122380Y-106306952D01*
X145170000Y-106211714D01*
X145217619Y-106164095D01*
X145312857Y-106116476D01*
X145408095Y-106116476D01*
X145550952Y-106164095D01*
X146122380Y-106735523D01*
X146122380Y-106116476D01*
X145122380Y-105783142D02*
X145122380Y-105164095D01*
X145503333Y-105497428D01*
X145503333Y-105354571D01*
X145550952Y-105259333D01*
X145598571Y-105211714D01*
X145693809Y-105164095D01*
X145931904Y-105164095D01*
X146027142Y-105211714D01*
X146074761Y-105259333D01*
X146122380Y-105354571D01*
X146122380Y-105640285D01*
X146074761Y-105735523D01*
X146027142Y-105783142D01*
G04 #@! TO.C,R24*
X140581142Y-114624380D02*
X140247809Y-114148190D01*
X140009714Y-114624380D02*
X140009714Y-113624380D01*
X140390666Y-113624380D01*
X140485904Y-113672000D01*
X140533523Y-113719619D01*
X140581142Y-113814857D01*
X140581142Y-113957714D01*
X140533523Y-114052952D01*
X140485904Y-114100571D01*
X140390666Y-114148190D01*
X140009714Y-114148190D01*
X140962095Y-113719619D02*
X141009714Y-113672000D01*
X141104952Y-113624380D01*
X141343047Y-113624380D01*
X141438285Y-113672000D01*
X141485904Y-113719619D01*
X141533523Y-113814857D01*
X141533523Y-113910095D01*
X141485904Y-114052952D01*
X140914476Y-114624380D01*
X141533523Y-114624380D01*
X142390666Y-113957714D02*
X142390666Y-114624380D01*
X142152571Y-113576761D02*
X141914476Y-114291047D01*
X142533523Y-114291047D01*
G04 #@! TO.C,R25*
X141042380Y-109862857D02*
X140566190Y-110196190D01*
X141042380Y-110434285D02*
X140042380Y-110434285D01*
X140042380Y-110053333D01*
X140090000Y-109958095D01*
X140137619Y-109910476D01*
X140232857Y-109862857D01*
X140375714Y-109862857D01*
X140470952Y-109910476D01*
X140518571Y-109958095D01*
X140566190Y-110053333D01*
X140566190Y-110434285D01*
X140137619Y-109481904D02*
X140090000Y-109434285D01*
X140042380Y-109339047D01*
X140042380Y-109100952D01*
X140090000Y-109005714D01*
X140137619Y-108958095D01*
X140232857Y-108910476D01*
X140328095Y-108910476D01*
X140470952Y-108958095D01*
X141042380Y-109529523D01*
X141042380Y-108910476D01*
X140042380Y-108005714D02*
X140042380Y-108481904D01*
X140518571Y-108529523D01*
X140470952Y-108481904D01*
X140423333Y-108386666D01*
X140423333Y-108148571D01*
X140470952Y-108053333D01*
X140518571Y-108005714D01*
X140613809Y-107958095D01*
X140851904Y-107958095D01*
X140947142Y-108005714D01*
X140994761Y-108053333D01*
X141042380Y-108148571D01*
X141042380Y-108386666D01*
X140994761Y-108481904D01*
X140947142Y-108529523D01*
G04 #@! TO.C,U2*
X141332380Y-87883904D02*
X142141904Y-87883904D01*
X142237142Y-87836285D01*
X142284761Y-87788666D01*
X142332380Y-87693428D01*
X142332380Y-87502952D01*
X142284761Y-87407714D01*
X142237142Y-87360095D01*
X142141904Y-87312476D01*
X141332380Y-87312476D01*
X141427619Y-86883904D02*
X141380000Y-86836285D01*
X141332380Y-86741047D01*
X141332380Y-86502952D01*
X141380000Y-86407714D01*
X141427619Y-86360095D01*
X141522857Y-86312476D01*
X141618095Y-86312476D01*
X141760952Y-86360095D01*
X142332380Y-86931523D01*
X142332380Y-86312476D01*
G04 #@! TO.C,U3*
X161814380Y-92963904D02*
X162623904Y-92963904D01*
X162719142Y-92916285D01*
X162766761Y-92868666D01*
X162814380Y-92773428D01*
X162814380Y-92582952D01*
X162766761Y-92487714D01*
X162719142Y-92440095D01*
X162623904Y-92392476D01*
X161814380Y-92392476D01*
X161814380Y-92011523D02*
X161814380Y-91392476D01*
X162195333Y-91725809D01*
X162195333Y-91582952D01*
X162242952Y-91487714D01*
X162290571Y-91440095D01*
X162385809Y-91392476D01*
X162623904Y-91392476D01*
X162719142Y-91440095D01*
X162766761Y-91487714D01*
X162814380Y-91582952D01*
X162814380Y-91868666D01*
X162766761Y-91963904D01*
X162719142Y-92011523D01*
G04 #@! TO.C,P6*
X132611904Y-118772380D02*
X132611904Y-117772380D01*
X132992857Y-117772380D01*
X133088095Y-117820000D01*
X133135714Y-117867619D01*
X133183333Y-117962857D01*
X133183333Y-118105714D01*
X133135714Y-118200952D01*
X133088095Y-118248571D01*
X132992857Y-118296190D01*
X132611904Y-118296190D01*
X134040476Y-117772380D02*
X133850000Y-117772380D01*
X133754761Y-117820000D01*
X133707142Y-117867619D01*
X133611904Y-118010476D01*
X133564285Y-118200952D01*
X133564285Y-118581904D01*
X133611904Y-118677142D01*
X133659523Y-118724761D01*
X133754761Y-118772380D01*
X133945238Y-118772380D01*
X134040476Y-118724761D01*
X134088095Y-118677142D01*
X134135714Y-118581904D01*
X134135714Y-118343809D01*
X134088095Y-118248571D01*
X134040476Y-118200952D01*
X133945238Y-118153333D01*
X133754761Y-118153333D01*
X133659523Y-118200952D01*
X133611904Y-118248571D01*
X133564285Y-118343809D01*
G04 #@! TO.C,R40*
X135200380Y-123832857D02*
X134724190Y-124166190D01*
X135200380Y-124404285D02*
X134200380Y-124404285D01*
X134200380Y-124023333D01*
X134248000Y-123928095D01*
X134295619Y-123880476D01*
X134390857Y-123832857D01*
X134533714Y-123832857D01*
X134628952Y-123880476D01*
X134676571Y-123928095D01*
X134724190Y-124023333D01*
X134724190Y-124404285D01*
X134533714Y-122975714D02*
X135200380Y-122975714D01*
X134152761Y-123213809D02*
X134867047Y-123451904D01*
X134867047Y-122832857D01*
X134200380Y-122261428D02*
X134200380Y-122166190D01*
X134248000Y-122070952D01*
X134295619Y-122023333D01*
X134390857Y-121975714D01*
X134581333Y-121928095D01*
X134819428Y-121928095D01*
X135009904Y-121975714D01*
X135105142Y-122023333D01*
X135152761Y-122070952D01*
X135200380Y-122166190D01*
X135200380Y-122261428D01*
X135152761Y-122356666D01*
X135105142Y-122404285D01*
X135009904Y-122451904D01*
X134819428Y-122499523D01*
X134581333Y-122499523D01*
X134390857Y-122451904D01*
X134295619Y-122404285D01*
X134248000Y-122356666D01*
X134200380Y-122261428D01*
G04 #@! TO.C,D2*
X159281904Y-123094380D02*
X159281904Y-122094380D01*
X159520000Y-122094380D01*
X159662857Y-122142000D01*
X159758095Y-122237238D01*
X159805714Y-122332476D01*
X159853333Y-122522952D01*
X159853333Y-122665809D01*
X159805714Y-122856285D01*
X159758095Y-122951523D01*
X159662857Y-123046761D01*
X159520000Y-123094380D01*
X159281904Y-123094380D01*
X160234285Y-122189619D02*
X160281904Y-122142000D01*
X160377142Y-122094380D01*
X160615238Y-122094380D01*
X160710476Y-122142000D01*
X160758095Y-122189619D01*
X160805714Y-122284857D01*
X160805714Y-122380095D01*
X160758095Y-122522952D01*
X160186666Y-123094380D01*
X160805714Y-123094380D01*
G04 #@! TO.C,Q3*
X140112761Y-118951619D02*
X140017523Y-118904000D01*
X139922285Y-118808761D01*
X139779428Y-118665904D01*
X139684190Y-118618285D01*
X139588952Y-118618285D01*
X139636571Y-118856380D02*
X139541333Y-118808761D01*
X139446095Y-118713523D01*
X139398476Y-118523047D01*
X139398476Y-118189714D01*
X139446095Y-117999238D01*
X139541333Y-117904000D01*
X139636571Y-117856380D01*
X139827047Y-117856380D01*
X139922285Y-117904000D01*
X140017523Y-117999238D01*
X140065142Y-118189714D01*
X140065142Y-118523047D01*
X140017523Y-118713523D01*
X139922285Y-118808761D01*
X139827047Y-118856380D01*
X139636571Y-118856380D01*
X140398476Y-117856380D02*
X141017523Y-117856380D01*
X140684190Y-118237333D01*
X140827047Y-118237333D01*
X140922285Y-118284952D01*
X140969904Y-118332571D01*
X141017523Y-118427809D01*
X141017523Y-118665904D01*
X140969904Y-118761142D01*
X140922285Y-118808761D01*
X140827047Y-118856380D01*
X140541333Y-118856380D01*
X140446095Y-118808761D01*
X140398476Y-118761142D01*
G04 #@! TO.C,R27*
X131390380Y-117482857D02*
X130914190Y-117816190D01*
X131390380Y-118054285D02*
X130390380Y-118054285D01*
X130390380Y-117673333D01*
X130438000Y-117578095D01*
X130485619Y-117530476D01*
X130580857Y-117482857D01*
X130723714Y-117482857D01*
X130818952Y-117530476D01*
X130866571Y-117578095D01*
X130914190Y-117673333D01*
X130914190Y-118054285D01*
X130485619Y-117101904D02*
X130438000Y-117054285D01*
X130390380Y-116959047D01*
X130390380Y-116720952D01*
X130438000Y-116625714D01*
X130485619Y-116578095D01*
X130580857Y-116530476D01*
X130676095Y-116530476D01*
X130818952Y-116578095D01*
X131390380Y-117149523D01*
X131390380Y-116530476D01*
X130390380Y-116197142D02*
X130390380Y-115530476D01*
X131390380Y-115959047D01*
G04 #@! TO.C,R29*
X133422380Y-117482857D02*
X132946190Y-117816190D01*
X133422380Y-118054285D02*
X132422380Y-118054285D01*
X132422380Y-117673333D01*
X132470000Y-117578095D01*
X132517619Y-117530476D01*
X132612857Y-117482857D01*
X132755714Y-117482857D01*
X132850952Y-117530476D01*
X132898571Y-117578095D01*
X132946190Y-117673333D01*
X132946190Y-118054285D01*
X132517619Y-117101904D02*
X132470000Y-117054285D01*
X132422380Y-116959047D01*
X132422380Y-116720952D01*
X132470000Y-116625714D01*
X132517619Y-116578095D01*
X132612857Y-116530476D01*
X132708095Y-116530476D01*
X132850952Y-116578095D01*
X133422380Y-117149523D01*
X133422380Y-116530476D01*
X133422380Y-116054285D02*
X133422380Y-115863809D01*
X133374761Y-115768571D01*
X133327142Y-115720952D01*
X133184285Y-115625714D01*
X132993809Y-115578095D01*
X132612857Y-115578095D01*
X132517619Y-115625714D01*
X132470000Y-115673333D01*
X132422380Y-115768571D01*
X132422380Y-115959047D01*
X132470000Y-116054285D01*
X132517619Y-116101904D01*
X132612857Y-116149523D01*
X132850952Y-116149523D01*
X132946190Y-116101904D01*
X132993809Y-116054285D01*
X133041428Y-115959047D01*
X133041428Y-115768571D01*
X132993809Y-115673333D01*
X132946190Y-115625714D01*
X132850952Y-115578095D01*
G04 #@! TO.C,R28*
X138754380Y-116212857D02*
X138278190Y-116546190D01*
X138754380Y-116784285D02*
X137754380Y-116784285D01*
X137754380Y-116403333D01*
X137802000Y-116308095D01*
X137849619Y-116260476D01*
X137944857Y-116212857D01*
X138087714Y-116212857D01*
X138182952Y-116260476D01*
X138230571Y-116308095D01*
X138278190Y-116403333D01*
X138278190Y-116784285D01*
X137849619Y-115831904D02*
X137802000Y-115784285D01*
X137754380Y-115689047D01*
X137754380Y-115450952D01*
X137802000Y-115355714D01*
X137849619Y-115308095D01*
X137944857Y-115260476D01*
X138040095Y-115260476D01*
X138182952Y-115308095D01*
X138754380Y-115879523D01*
X138754380Y-115260476D01*
X138182952Y-114689047D02*
X138135333Y-114784285D01*
X138087714Y-114831904D01*
X137992476Y-114879523D01*
X137944857Y-114879523D01*
X137849619Y-114831904D01*
X137802000Y-114784285D01*
X137754380Y-114689047D01*
X137754380Y-114498571D01*
X137802000Y-114403333D01*
X137849619Y-114355714D01*
X137944857Y-114308095D01*
X137992476Y-114308095D01*
X138087714Y-114355714D01*
X138135333Y-114403333D01*
X138182952Y-114498571D01*
X138182952Y-114689047D01*
X138230571Y-114784285D01*
X138278190Y-114831904D01*
X138373428Y-114879523D01*
X138563904Y-114879523D01*
X138659142Y-114831904D01*
X138706761Y-114784285D01*
X138754380Y-114689047D01*
X138754380Y-114498571D01*
X138706761Y-114403333D01*
X138659142Y-114355714D01*
X138563904Y-114308095D01*
X138373428Y-114308095D01*
X138278190Y-114355714D01*
X138230571Y-114403333D01*
X138182952Y-114498571D01*
G04 #@! TO.C,Q2*
X134524761Y-111077619D02*
X134429523Y-111030000D01*
X134334285Y-110934761D01*
X134191428Y-110791904D01*
X134096190Y-110744285D01*
X134000952Y-110744285D01*
X134048571Y-110982380D02*
X133953333Y-110934761D01*
X133858095Y-110839523D01*
X133810476Y-110649047D01*
X133810476Y-110315714D01*
X133858095Y-110125238D01*
X133953333Y-110030000D01*
X134048571Y-109982380D01*
X134239047Y-109982380D01*
X134334285Y-110030000D01*
X134429523Y-110125238D01*
X134477142Y-110315714D01*
X134477142Y-110649047D01*
X134429523Y-110839523D01*
X134334285Y-110934761D01*
X134239047Y-110982380D01*
X134048571Y-110982380D01*
X134858095Y-110077619D02*
X134905714Y-110030000D01*
X135000952Y-109982380D01*
X135239047Y-109982380D01*
X135334285Y-110030000D01*
X135381904Y-110077619D01*
X135429523Y-110172857D01*
X135429523Y-110268095D01*
X135381904Y-110410952D01*
X134810476Y-110982380D01*
X135429523Y-110982380D01*
G04 #@! TO.C,Q1*
X138080761Y-112267619D02*
X137985523Y-112220000D01*
X137890285Y-112124761D01*
X137747428Y-111981904D01*
X137652190Y-111934285D01*
X137556952Y-111934285D01*
X137604571Y-112172380D02*
X137509333Y-112124761D01*
X137414095Y-112029523D01*
X137366476Y-111839047D01*
X137366476Y-111505714D01*
X137414095Y-111315238D01*
X137509333Y-111220000D01*
X137604571Y-111172380D01*
X137795047Y-111172380D01*
X137890285Y-111220000D01*
X137985523Y-111315238D01*
X138033142Y-111505714D01*
X138033142Y-111839047D01*
X137985523Y-112029523D01*
X137890285Y-112124761D01*
X137795047Y-112172380D01*
X137604571Y-112172380D01*
X138985523Y-112172380D02*
X138414095Y-112172380D01*
X138699809Y-112172380D02*
X138699809Y-111172380D01*
X138604571Y-111315238D01*
X138509333Y-111410476D01*
X138414095Y-111458095D01*
G04 #@! TO.C,R26*
X141597142Y-104974380D02*
X141263809Y-104498190D01*
X141025714Y-104974380D02*
X141025714Y-103974380D01*
X141406666Y-103974380D01*
X141501904Y-104022000D01*
X141549523Y-104069619D01*
X141597142Y-104164857D01*
X141597142Y-104307714D01*
X141549523Y-104402952D01*
X141501904Y-104450571D01*
X141406666Y-104498190D01*
X141025714Y-104498190D01*
X141978095Y-104069619D02*
X142025714Y-104022000D01*
X142120952Y-103974380D01*
X142359047Y-103974380D01*
X142454285Y-104022000D01*
X142501904Y-104069619D01*
X142549523Y-104164857D01*
X142549523Y-104260095D01*
X142501904Y-104402952D01*
X141930476Y-104974380D01*
X142549523Y-104974380D01*
X143406666Y-103974380D02*
X143216190Y-103974380D01*
X143120952Y-104022000D01*
X143073333Y-104069619D01*
X142978095Y-104212476D01*
X142930476Y-104402952D01*
X142930476Y-104783904D01*
X142978095Y-104879142D01*
X143025714Y-104926761D01*
X143120952Y-104974380D01*
X143311428Y-104974380D01*
X143406666Y-104926761D01*
X143454285Y-104879142D01*
X143501904Y-104783904D01*
X143501904Y-104545809D01*
X143454285Y-104450571D01*
X143406666Y-104402952D01*
X143311428Y-104355333D01*
X143120952Y-104355333D01*
X143025714Y-104402952D01*
X142978095Y-104450571D01*
X142930476Y-104545809D01*
G04 #@! TO.C,R41*
X152265142Y-107766380D02*
X151931809Y-107290190D01*
X151693714Y-107766380D02*
X151693714Y-106766380D01*
X152074666Y-106766380D01*
X152169904Y-106814000D01*
X152217523Y-106861619D01*
X152265142Y-106956857D01*
X152265142Y-107099714D01*
X152217523Y-107194952D01*
X152169904Y-107242571D01*
X152074666Y-107290190D01*
X151693714Y-107290190D01*
X153122285Y-107099714D02*
X153122285Y-107766380D01*
X152884190Y-106718761D02*
X152646095Y-107433047D01*
X153265142Y-107433047D01*
X154169904Y-107766380D02*
X153598476Y-107766380D01*
X153884190Y-107766380D02*
X153884190Y-106766380D01*
X153788952Y-106909238D01*
X153693714Y-107004476D01*
X153598476Y-107052095D01*
G04 #@! TO.C,U4*
X144526095Y-100758380D02*
X144526095Y-101567904D01*
X144573714Y-101663142D01*
X144621333Y-101710761D01*
X144716571Y-101758380D01*
X144907047Y-101758380D01*
X145002285Y-101710761D01*
X145049904Y-101663142D01*
X145097523Y-101567904D01*
X145097523Y-100758380D01*
X146002285Y-101091714D02*
X146002285Y-101758380D01*
X145764190Y-100710761D02*
X145526095Y-101425047D01*
X146145142Y-101425047D01*
G04 #@! TO.C,Q4*
X143160761Y-98297619D02*
X143065523Y-98250000D01*
X142970285Y-98154761D01*
X142827428Y-98011904D01*
X142732190Y-97964285D01*
X142636952Y-97964285D01*
X142684571Y-98202380D02*
X142589333Y-98154761D01*
X142494095Y-98059523D01*
X142446476Y-97869047D01*
X142446476Y-97535714D01*
X142494095Y-97345238D01*
X142589333Y-97250000D01*
X142684571Y-97202380D01*
X142875047Y-97202380D01*
X142970285Y-97250000D01*
X143065523Y-97345238D01*
X143113142Y-97535714D01*
X143113142Y-97869047D01*
X143065523Y-98059523D01*
X142970285Y-98154761D01*
X142875047Y-98202380D01*
X142684571Y-98202380D01*
X143970285Y-97535714D02*
X143970285Y-98202380D01*
X143732190Y-97154761D02*
X143494095Y-97869047D01*
X144113142Y-97869047D01*
G04 #@! TO.C,R44*
X151454380Y-98432857D02*
X150978190Y-98766190D01*
X151454380Y-99004285D02*
X150454380Y-99004285D01*
X150454380Y-98623333D01*
X150502000Y-98528095D01*
X150549619Y-98480476D01*
X150644857Y-98432857D01*
X150787714Y-98432857D01*
X150882952Y-98480476D01*
X150930571Y-98528095D01*
X150978190Y-98623333D01*
X150978190Y-99004285D01*
X150787714Y-97575714D02*
X151454380Y-97575714D01*
X150406761Y-97813809D02*
X151121047Y-98051904D01*
X151121047Y-97432857D01*
X150787714Y-96623333D02*
X151454380Y-96623333D01*
X150406761Y-96861428D02*
X151121047Y-97099523D01*
X151121047Y-96480476D01*
G04 #@! TO.C,R39*
X147439142Y-97098380D02*
X147105809Y-96622190D01*
X146867714Y-97098380D02*
X146867714Y-96098380D01*
X147248666Y-96098380D01*
X147343904Y-96146000D01*
X147391523Y-96193619D01*
X147439142Y-96288857D01*
X147439142Y-96431714D01*
X147391523Y-96526952D01*
X147343904Y-96574571D01*
X147248666Y-96622190D01*
X146867714Y-96622190D01*
X147772476Y-96098380D02*
X148391523Y-96098380D01*
X148058190Y-96479333D01*
X148201047Y-96479333D01*
X148296285Y-96526952D01*
X148343904Y-96574571D01*
X148391523Y-96669809D01*
X148391523Y-96907904D01*
X148343904Y-97003142D01*
X148296285Y-97050761D01*
X148201047Y-97098380D01*
X147915333Y-97098380D01*
X147820095Y-97050761D01*
X147772476Y-97003142D01*
X148867714Y-97098380D02*
X149058190Y-97098380D01*
X149153428Y-97050761D01*
X149201047Y-97003142D01*
X149296285Y-96860285D01*
X149343904Y-96669809D01*
X149343904Y-96288857D01*
X149296285Y-96193619D01*
X149248666Y-96146000D01*
X149153428Y-96098380D01*
X148962952Y-96098380D01*
X148867714Y-96146000D01*
X148820095Y-96193619D01*
X148772476Y-96288857D01*
X148772476Y-96526952D01*
X148820095Y-96622190D01*
X148867714Y-96669809D01*
X148962952Y-96717428D01*
X149153428Y-96717428D01*
X149248666Y-96669809D01*
X149296285Y-96622190D01*
X149343904Y-96526952D01*
G04 #@! TO.C,R30*
X147439142Y-95066380D02*
X147105809Y-94590190D01*
X146867714Y-95066380D02*
X146867714Y-94066380D01*
X147248666Y-94066380D01*
X147343904Y-94114000D01*
X147391523Y-94161619D01*
X147439142Y-94256857D01*
X147439142Y-94399714D01*
X147391523Y-94494952D01*
X147343904Y-94542571D01*
X147248666Y-94590190D01*
X146867714Y-94590190D01*
X147772476Y-94066380D02*
X148391523Y-94066380D01*
X148058190Y-94447333D01*
X148201047Y-94447333D01*
X148296285Y-94494952D01*
X148343904Y-94542571D01*
X148391523Y-94637809D01*
X148391523Y-94875904D01*
X148343904Y-94971142D01*
X148296285Y-95018761D01*
X148201047Y-95066380D01*
X147915333Y-95066380D01*
X147820095Y-95018761D01*
X147772476Y-94971142D01*
X149010571Y-94066380D02*
X149105809Y-94066380D01*
X149201047Y-94114000D01*
X149248666Y-94161619D01*
X149296285Y-94256857D01*
X149343904Y-94447333D01*
X149343904Y-94685428D01*
X149296285Y-94875904D01*
X149248666Y-94971142D01*
X149201047Y-95018761D01*
X149105809Y-95066380D01*
X149010571Y-95066380D01*
X148915333Y-95018761D01*
X148867714Y-94971142D01*
X148820095Y-94875904D01*
X148772476Y-94685428D01*
X148772476Y-94447333D01*
X148820095Y-94256857D01*
X148867714Y-94161619D01*
X148915333Y-94114000D01*
X149010571Y-94066380D01*
G04 #@! TO.C,D10*
X133842380Y-91638285D02*
X132842380Y-91638285D01*
X132842380Y-91400190D01*
X132890000Y-91257333D01*
X132985238Y-91162095D01*
X133080476Y-91114476D01*
X133270952Y-91066857D01*
X133413809Y-91066857D01*
X133604285Y-91114476D01*
X133699523Y-91162095D01*
X133794761Y-91257333D01*
X133842380Y-91400190D01*
X133842380Y-91638285D01*
X133842380Y-90114476D02*
X133842380Y-90685904D01*
X133842380Y-90400190D02*
X132842380Y-90400190D01*
X132985238Y-90495428D01*
X133080476Y-90590666D01*
X133128095Y-90685904D01*
X132842380Y-89495428D02*
X132842380Y-89400190D01*
X132890000Y-89304952D01*
X132937619Y-89257333D01*
X133032857Y-89209714D01*
X133223333Y-89162095D01*
X133461428Y-89162095D01*
X133651904Y-89209714D01*
X133747142Y-89257333D01*
X133794761Y-89304952D01*
X133842380Y-89400190D01*
X133842380Y-89495428D01*
X133794761Y-89590666D01*
X133747142Y-89638285D01*
X133651904Y-89685904D01*
X133461428Y-89733523D01*
X133223333Y-89733523D01*
X133032857Y-89685904D01*
X132937619Y-89638285D01*
X132890000Y-89590666D01*
X132842380Y-89495428D01*
G04 #@! TO.C,R38*
X134184380Y-86494857D02*
X133708190Y-86828190D01*
X134184380Y-87066285D02*
X133184380Y-87066285D01*
X133184380Y-86685333D01*
X133232000Y-86590095D01*
X133279619Y-86542476D01*
X133374857Y-86494857D01*
X133517714Y-86494857D01*
X133612952Y-86542476D01*
X133660571Y-86590095D01*
X133708190Y-86685333D01*
X133708190Y-87066285D01*
X133184380Y-86161523D02*
X133184380Y-85542476D01*
X133565333Y-85875809D01*
X133565333Y-85732952D01*
X133612952Y-85637714D01*
X133660571Y-85590095D01*
X133755809Y-85542476D01*
X133993904Y-85542476D01*
X134089142Y-85590095D01*
X134136761Y-85637714D01*
X134184380Y-85732952D01*
X134184380Y-86018666D01*
X134136761Y-86113904D01*
X134089142Y-86161523D01*
X133612952Y-84971047D02*
X133565333Y-85066285D01*
X133517714Y-85113904D01*
X133422476Y-85161523D01*
X133374857Y-85161523D01*
X133279619Y-85113904D01*
X133232000Y-85066285D01*
X133184380Y-84971047D01*
X133184380Y-84780571D01*
X133232000Y-84685333D01*
X133279619Y-84637714D01*
X133374857Y-84590095D01*
X133422476Y-84590095D01*
X133517714Y-84637714D01*
X133565333Y-84685333D01*
X133612952Y-84780571D01*
X133612952Y-84971047D01*
X133660571Y-85066285D01*
X133708190Y-85113904D01*
X133803428Y-85161523D01*
X133993904Y-85161523D01*
X134089142Y-85113904D01*
X134136761Y-85066285D01*
X134184380Y-84971047D01*
X134184380Y-84780571D01*
X134136761Y-84685333D01*
X134089142Y-84637714D01*
X133993904Y-84590095D01*
X133803428Y-84590095D01*
X133708190Y-84637714D01*
X133660571Y-84685333D01*
X133612952Y-84780571D01*
G04 #@! TO.C,D9*
X142398380Y-84812095D02*
X141398380Y-84812095D01*
X141398380Y-84574000D01*
X141446000Y-84431142D01*
X141541238Y-84335904D01*
X141636476Y-84288285D01*
X141826952Y-84240666D01*
X141969809Y-84240666D01*
X142160285Y-84288285D01*
X142255523Y-84335904D01*
X142350761Y-84431142D01*
X142398380Y-84574000D01*
X142398380Y-84812095D01*
X142398380Y-83764476D02*
X142398380Y-83574000D01*
X142350761Y-83478761D01*
X142303142Y-83431142D01*
X142160285Y-83335904D01*
X141969809Y-83288285D01*
X141588857Y-83288285D01*
X141493619Y-83335904D01*
X141446000Y-83383523D01*
X141398380Y-83478761D01*
X141398380Y-83669238D01*
X141446000Y-83764476D01*
X141493619Y-83812095D01*
X141588857Y-83859714D01*
X141826952Y-83859714D01*
X141922190Y-83812095D01*
X141969809Y-83764476D01*
X142017428Y-83669238D01*
X142017428Y-83478761D01*
X141969809Y-83383523D01*
X141922190Y-83335904D01*
X141826952Y-83288285D01*
G04 #@! TO.C,R31*
X149930380Y-90304857D02*
X149454190Y-90638190D01*
X149930380Y-90876285D02*
X148930380Y-90876285D01*
X148930380Y-90495333D01*
X148978000Y-90400095D01*
X149025619Y-90352476D01*
X149120857Y-90304857D01*
X149263714Y-90304857D01*
X149358952Y-90352476D01*
X149406571Y-90400095D01*
X149454190Y-90495333D01*
X149454190Y-90876285D01*
X148930380Y-89971523D02*
X148930380Y-89352476D01*
X149311333Y-89685809D01*
X149311333Y-89542952D01*
X149358952Y-89447714D01*
X149406571Y-89400095D01*
X149501809Y-89352476D01*
X149739904Y-89352476D01*
X149835142Y-89400095D01*
X149882761Y-89447714D01*
X149930380Y-89542952D01*
X149930380Y-89828666D01*
X149882761Y-89923904D01*
X149835142Y-89971523D01*
X149930380Y-88400095D02*
X149930380Y-88971523D01*
X149930380Y-88685809D02*
X148930380Y-88685809D01*
X149073238Y-88781047D01*
X149168476Y-88876285D01*
X149216095Y-88971523D01*
G04 #@! TO.C,R43*
X163441142Y-97974380D02*
X163107809Y-97498190D01*
X162869714Y-97974380D02*
X162869714Y-96974380D01*
X163250666Y-96974380D01*
X163345904Y-97022000D01*
X163393523Y-97069619D01*
X163441142Y-97164857D01*
X163441142Y-97307714D01*
X163393523Y-97402952D01*
X163345904Y-97450571D01*
X163250666Y-97498190D01*
X162869714Y-97498190D01*
X164298285Y-97307714D02*
X164298285Y-97974380D01*
X164060190Y-96926761D02*
X163822095Y-97641047D01*
X164441142Y-97641047D01*
X164726857Y-96974380D02*
X165345904Y-96974380D01*
X165012571Y-97355333D01*
X165155428Y-97355333D01*
X165250666Y-97402952D01*
X165298285Y-97450571D01*
X165345904Y-97545809D01*
X165345904Y-97783904D01*
X165298285Y-97879142D01*
X165250666Y-97926761D01*
X165155428Y-97974380D01*
X164869714Y-97974380D01*
X164774476Y-97926761D01*
X164726857Y-97879142D01*
G04 #@! TO.C,R34*
X167505142Y-103702380D02*
X167171809Y-103226190D01*
X166933714Y-103702380D02*
X166933714Y-102702380D01*
X167314666Y-102702380D01*
X167409904Y-102750000D01*
X167457523Y-102797619D01*
X167505142Y-102892857D01*
X167505142Y-103035714D01*
X167457523Y-103130952D01*
X167409904Y-103178571D01*
X167314666Y-103226190D01*
X166933714Y-103226190D01*
X167838476Y-102702380D02*
X168457523Y-102702380D01*
X168124190Y-103083333D01*
X168267047Y-103083333D01*
X168362285Y-103130952D01*
X168409904Y-103178571D01*
X168457523Y-103273809D01*
X168457523Y-103511904D01*
X168409904Y-103607142D01*
X168362285Y-103654761D01*
X168267047Y-103702380D01*
X167981333Y-103702380D01*
X167886095Y-103654761D01*
X167838476Y-103607142D01*
X169314666Y-103035714D02*
X169314666Y-103702380D01*
X169076571Y-102654761D02*
X168838476Y-103369047D01*
X169457523Y-103369047D01*
G04 #@! TO.C,R33*
X167505142Y-98370380D02*
X167171809Y-97894190D01*
X166933714Y-98370380D02*
X166933714Y-97370380D01*
X167314666Y-97370380D01*
X167409904Y-97418000D01*
X167457523Y-97465619D01*
X167505142Y-97560857D01*
X167505142Y-97703714D01*
X167457523Y-97798952D01*
X167409904Y-97846571D01*
X167314666Y-97894190D01*
X166933714Y-97894190D01*
X167838476Y-97370380D02*
X168457523Y-97370380D01*
X168124190Y-97751333D01*
X168267047Y-97751333D01*
X168362285Y-97798952D01*
X168409904Y-97846571D01*
X168457523Y-97941809D01*
X168457523Y-98179904D01*
X168409904Y-98275142D01*
X168362285Y-98322761D01*
X168267047Y-98370380D01*
X167981333Y-98370380D01*
X167886095Y-98322761D01*
X167838476Y-98275142D01*
X168790857Y-97370380D02*
X169409904Y-97370380D01*
X169076571Y-97751333D01*
X169219428Y-97751333D01*
X169314666Y-97798952D01*
X169362285Y-97846571D01*
X169409904Y-97941809D01*
X169409904Y-98179904D01*
X169362285Y-98275142D01*
X169314666Y-98322761D01*
X169219428Y-98370380D01*
X168933714Y-98370380D01*
X168838476Y-98322761D01*
X168790857Y-98275142D01*
G04 #@! TO.C,R32*
X167505142Y-96084380D02*
X167171809Y-95608190D01*
X166933714Y-96084380D02*
X166933714Y-95084380D01*
X167314666Y-95084380D01*
X167409904Y-95132000D01*
X167457523Y-95179619D01*
X167505142Y-95274857D01*
X167505142Y-95417714D01*
X167457523Y-95512952D01*
X167409904Y-95560571D01*
X167314666Y-95608190D01*
X166933714Y-95608190D01*
X167838476Y-95084380D02*
X168457523Y-95084380D01*
X168124190Y-95465333D01*
X168267047Y-95465333D01*
X168362285Y-95512952D01*
X168409904Y-95560571D01*
X168457523Y-95655809D01*
X168457523Y-95893904D01*
X168409904Y-95989142D01*
X168362285Y-96036761D01*
X168267047Y-96084380D01*
X167981333Y-96084380D01*
X167886095Y-96036761D01*
X167838476Y-95989142D01*
X168838476Y-95179619D02*
X168886095Y-95132000D01*
X168981333Y-95084380D01*
X169219428Y-95084380D01*
X169314666Y-95132000D01*
X169362285Y-95179619D01*
X169409904Y-95274857D01*
X169409904Y-95370095D01*
X169362285Y-95512952D01*
X168790857Y-96084380D01*
X169409904Y-96084380D01*
G04 #@! TO.C,R35*
X162307142Y-87446380D02*
X161973809Y-86970190D01*
X161735714Y-87446380D02*
X161735714Y-86446380D01*
X162116666Y-86446380D01*
X162211904Y-86494000D01*
X162259523Y-86541619D01*
X162307142Y-86636857D01*
X162307142Y-86779714D01*
X162259523Y-86874952D01*
X162211904Y-86922571D01*
X162116666Y-86970190D01*
X161735714Y-86970190D01*
X162640476Y-86446380D02*
X163259523Y-86446380D01*
X162926190Y-86827333D01*
X163069047Y-86827333D01*
X163164285Y-86874952D01*
X163211904Y-86922571D01*
X163259523Y-87017809D01*
X163259523Y-87255904D01*
X163211904Y-87351142D01*
X163164285Y-87398761D01*
X163069047Y-87446380D01*
X162783333Y-87446380D01*
X162688095Y-87398761D01*
X162640476Y-87351142D01*
X164164285Y-86446380D02*
X163688095Y-86446380D01*
X163640476Y-86922571D01*
X163688095Y-86874952D01*
X163783333Y-86827333D01*
X164021428Y-86827333D01*
X164116666Y-86874952D01*
X164164285Y-86922571D01*
X164211904Y-87017809D01*
X164211904Y-87255904D01*
X164164285Y-87351142D01*
X164116666Y-87398761D01*
X164021428Y-87446380D01*
X163783333Y-87446380D01*
X163688095Y-87398761D01*
X163640476Y-87351142D01*
G04 #@! TO.C,R37*
X165426380Y-83192857D02*
X164950190Y-83526190D01*
X165426380Y-83764285D02*
X164426380Y-83764285D01*
X164426380Y-83383333D01*
X164474000Y-83288095D01*
X164521619Y-83240476D01*
X164616857Y-83192857D01*
X164759714Y-83192857D01*
X164854952Y-83240476D01*
X164902571Y-83288095D01*
X164950190Y-83383333D01*
X164950190Y-83764285D01*
X164426380Y-82859523D02*
X164426380Y-82240476D01*
X164807333Y-82573809D01*
X164807333Y-82430952D01*
X164854952Y-82335714D01*
X164902571Y-82288095D01*
X164997809Y-82240476D01*
X165235904Y-82240476D01*
X165331142Y-82288095D01*
X165378761Y-82335714D01*
X165426380Y-82430952D01*
X165426380Y-82716666D01*
X165378761Y-82811904D01*
X165331142Y-82859523D01*
X164426380Y-81907142D02*
X164426380Y-81240476D01*
X165426380Y-81669047D01*
G04 #@! TO.C,R42*
X163394380Y-83192857D02*
X162918190Y-83526190D01*
X163394380Y-83764285D02*
X162394380Y-83764285D01*
X162394380Y-83383333D01*
X162442000Y-83288095D01*
X162489619Y-83240476D01*
X162584857Y-83192857D01*
X162727714Y-83192857D01*
X162822952Y-83240476D01*
X162870571Y-83288095D01*
X162918190Y-83383333D01*
X162918190Y-83764285D01*
X162727714Y-82335714D02*
X163394380Y-82335714D01*
X162346761Y-82573809D02*
X163061047Y-82811904D01*
X163061047Y-82192857D01*
X162489619Y-81859523D02*
X162442000Y-81811904D01*
X162394380Y-81716666D01*
X162394380Y-81478571D01*
X162442000Y-81383333D01*
X162489619Y-81335714D01*
X162584857Y-81288095D01*
X162680095Y-81288095D01*
X162822952Y-81335714D01*
X163394380Y-81907142D01*
X163394380Y-81288095D01*
G04 #@! TO.C,R36*
X161108380Y-83192857D02*
X160632190Y-83526190D01*
X161108380Y-83764285D02*
X160108380Y-83764285D01*
X160108380Y-83383333D01*
X160156000Y-83288095D01*
X160203619Y-83240476D01*
X160298857Y-83192857D01*
X160441714Y-83192857D01*
X160536952Y-83240476D01*
X160584571Y-83288095D01*
X160632190Y-83383333D01*
X160632190Y-83764285D01*
X160108380Y-82859523D02*
X160108380Y-82240476D01*
X160489333Y-82573809D01*
X160489333Y-82430952D01*
X160536952Y-82335714D01*
X160584571Y-82288095D01*
X160679809Y-82240476D01*
X160917904Y-82240476D01*
X161013142Y-82288095D01*
X161060761Y-82335714D01*
X161108380Y-82430952D01*
X161108380Y-82716666D01*
X161060761Y-82811904D01*
X161013142Y-82859523D01*
X160108380Y-81383333D02*
X160108380Y-81573809D01*
X160156000Y-81669047D01*
X160203619Y-81716666D01*
X160346476Y-81811904D01*
X160536952Y-81859523D01*
X160917904Y-81859523D01*
X161013142Y-81811904D01*
X161060761Y-81764285D01*
X161108380Y-81669047D01*
X161108380Y-81478571D01*
X161060761Y-81383333D01*
X161013142Y-81335714D01*
X160917904Y-81288095D01*
X160679809Y-81288095D01*
X160584571Y-81335714D01*
X160536952Y-81383333D01*
X160489333Y-81478571D01*
X160489333Y-81669047D01*
X160536952Y-81764285D01*
X160584571Y-81811904D01*
X160679809Y-81859523D01*
G04 #@! TD*
M02*
